<svg xmlns="http://www.w3.org/2000/svg" viewBox="0 0 64 64"><defs><style>.cls-1{fill:#94d35e;}.cls-2{fill:#f7f7f7;}.cls-3{fill:#448744;}.cls-4{fill:#519b51;}.cls-5{fill:#70c470;}</style></defs><g id="Ebene_2" data-name="Ebene 2"><g id="svg4921"><g id="tile7"><path id="grass1" class="cls-1" d="M29.5,0H0V64H64V34.5A34.57,34.57,0,0,1,29.5,0ZM12.1,18a5,5,0,1,1,5,5A5,5,0,0,1,12.1,18ZM23.2,54.1A6.1,6.1,0,1,1,29.3,48,6.1,6.1,0,0,1,23.2,54.1ZM56.8,43.6a3.3,3.3,0,1,1-3.3,3.3A3.3,3.3,0,0,1,56.8,43.6Z"/><path id="grass2" class="cls-1" d="M34.5,0A29.49,29.49,0,0,0,64,29.5V0Z"/><path id="street1" class="cls-2" d="M29.5,0h5A29.49,29.49,0,0,0,64,29.5v5A34.57,34.57,0,0,1,29.5,0Z"/><g id="Baum"><circle class="cls-3" cx="17.1" cy="18" r="5"/><circle class="cls-4" cx="17.1" cy="18" r="4"/><circle class="cls-5" cx="17.1" cy="18" r="2.9" transform="translate(-4.35 30.51) rotate(-76.72)"/></g><g id="Baum-2" data-name="Baum"><circle class="cls-3" cx="56.8" cy="46.9" r="3.3"/><circle class="cls-4" cx="56.8" cy="46.9" r="2.7"/><circle class="cls-5" cx="56.8" cy="46.9" r="1.9"/></g><g id="Baum-3" data-name="Baum"><circle class="cls-3" cx="23.2" cy="48" r="6.1"/><circle class="cls-4" cx="23.2" cy="48" r="4.9"/><circle class="cls-5" cx="23.2" cy="48" r="3.5"/></g></g></g></g></svg>