<svg xmlns="http://www.w3.org/2000/svg" viewBox="0 0 64 64"><defs><style>.cls-1{fill:#94d35e;}.cls-2{fill:#f7f7f7;}.cls-3{fill:#bf89d3;}</style></defs><g id="Ebene_2" data-name="Ebene 2"><g id="svg4921"><g id="tile5"><path id="grass1" class="cls-1" d="M64,0H0V64H64V34.5H47.6A8,8,0,0,1,40,40H19a3,3,0,0,1-3-3V27a3,3,0,0,1,3-3H40a8.08,8.08,0,0,1,7.6,5.5H64Z"/><path id="street1" class="cls-2" d="M48,32a6.9,6.9,0,0,1-.4,2.5H64v-5H47.6A6.9,6.9,0,0,1,48,32Z"/><path id="chapel1" class="cls-3" d="M19,24H40a8,8,0,0,1,0,16H19a3,3,0,0,1-3-3V27A3,3,0,0,1,19,24Z"/></g></g></g></svg>