<?xml version="1.0" encoding="UTF-8" standalone="no"?>
<svg
   xmlns:dc="http://purl.org/dc/elements/1.1/"
   xmlns:cc="http://creativecommons.org/ns#"
   xmlns:rdf="http://www.w3.org/1999/02/22-rdf-syntax-ns#"
   xmlns:svg="http://www.w3.org/2000/svg"
   xmlns="http://www.w3.org/2000/svg"
   id="svg1389"
   version="1.1"
   viewBox="0 0 14.541301 16.3238"
   height="16.323799mm"
   width="14.541302mm">
  <defs
     id="defs1383" />
  <metadata
     id="metadata1386">
    <rdf:RDF>
      <cc:Work
         rdf:about="">
        <dc:format>image/svg+xml</dc:format>
        <dc:type
           rdf:resource="http://purl.org/dc/dcmitype/StillImage" />
        <dc:title></dc:title>
      </cc:Work>
    </rdf:RDF>
  </metadata>
  <g
     transform="translate(-77.9148,-120.9408)"
     id="layer1">
    <path
       id="path905-2-6"
       d="m 83.543697,122.95862 a 0.55451415,1.1339279 0 0 0 -0.0392,0.003 0.55451415,1.1339279 0 0 0 -0.05502,0.0137 0.55451415,1.1339279 0 0 0 -0.05415,0.0248 0.55451415,1.1339279 0 0 0 -0.05263,0.0359 0.55451415,1.1339279 0 0 0 -0.05047,0.0461 0.55451415,1.1339279 0 0 0 -0.04809,0.0562 0.55451415,1.1339279 0 0 0 -0.04505,0.066 0.55451415,1.1339279 0 0 0 -0.0418,0.0748 0.55451415,1.1339279 0 0 0 -0.03769,0.0828 0.55451415,1.1339279 0 0 0 -0.03357,0.0904 0.55451415,1.1339279 0 0 0 -0.02903,0.0966 0.55451415,1.1339279 0 0 0 -0.02405,0.10231 0.55451415,1.1339279 0 0 0 -0.01905,0.10631 0.55451415,1.1339279 0 0 0 -0.01365,0.10985 0.55451415,1.1339279 0 0 0 -0.0082,0.11206 0.55451415,1.1339279 0 0 0 -0.0028,0.1134 0.55451415,1.1339279 0 0 0 0.0013,0.0802 0.55451415,1.1339279 0 0 0 0.0067,0.1125 0.55451415,1.1339279 0 0 0 0.01214,0.1103 0.55451415,1.1339279 0 0 0 0.01754,0.10763 0.55451415,1.1339279 0 0 0 0.02254,0.10365 0.55451415,1.1339279 0 0 0 0.02773,0.0983 0.55451415,1.1339279 0 0 0 0.03227,0.0921 0.55451415,1.1339279 0 0 0 0.03639,0.085 0.55451415,1.1339279 0 0 0 0.04072,0.0775 0.55451415,1.1339279 0 0 0 0.04397,0.0687 0.55451415,1.1339279 0 0 0 0.04744,0.0589 0.55451415,1.1339279 0 0 0 0.04982,0.0496 0.55451415,1.1339279 0 0 0 0.05199,0.0385 0.55451415,1.1339279 0 0 0 0.05372,0.0284 0.55451415,1.1339279 0 0 0 0.0548,0.0168 0.55451415,1.1339279 0 0 0 0.05545,0.006 0.55451415,1.1339279 0 0 0 0.0392,-0.003 0.55451415,1.1339279 0 0 0 0.05502,-0.0137 0.55451415,1.1339279 0 0 0 0.05415,-0.0248 0.55451415,1.1339279 0 0 0 0.05242,-0.0354 0.55451415,1.1339279 0 0 0 0.05069,-0.0465 0.55451415,1.1339279 0 0 0 0.04809,-0.0562 0.55451415,1.1339279 0 0 0 0.04505,-0.066 0.55451415,1.1339279 0 0 0 0.04159,-0.0748 0.55451415,1.1339279 0 0 0 0.0379,-0.0828 0.55451415,1.1339279 0 0 0 0.03357,-0.0904 0.55451415,1.1339279 0 0 0 0.02881,-0.0966 0.55451415,1.1339279 0 0 0 0.02426,-0.10188 0.55451415,1.1339279 0 0 0 0.01905,-0.10675 0.55451415,1.1339279 0 0 0 0.01365,-0.10985 0.55451415,1.1339279 0 0 0 0.0082,-0.11206 0.55451415,1.1339279 0 0 0 0.0028,-0.11295 0.55451415,1.1339279 0 0 0 -0.0016,-0.0802 0.55451415,1.1339279 0 0 0 -0.0065,-0.11251 0.55451415,1.1339279 0 0 0 -0.01214,-0.11073 0.55451415,1.1339279 0 0 0 -0.01754,-0.10764 0.55451415,1.1339279 0 0 0 -0.02274,-0.10364 0.55451415,1.1339279 0 0 0 -0.02751,-0.0983 0.55451415,1.1339279 0 0 0 -0.03227,-0.0921 0.55451415,1.1339279 0 0 0 -0.0366,-0.085 0.55451415,1.1339279 0 0 0 -0.04051,-0.0771 0.55451415,1.1339279 0 0 0 -0.04419,-0.0687 0.55451415,1.1339279 0 0 0 -0.04722,-0.0594 0.55451415,1.1339279 0 0 0 -0.04982,-0.0492 0.55451415,1.1339279 0 0 0 -0.0522,-0.039 0.55451415,1.1339279 0 0 0 -0.05372,-0.0279 0.55451415,1.1339279 0 0 0 -0.0548,-0.0173 0.55451415,1.1339279 0 0 0 -0.05523,-0.005 z"
       style="opacity:1;fill:#7f5f2a;fill-opacity:1;stroke:none;stroke-width:0.130254;stroke-miterlimit:4;stroke-dasharray:none;stroke-opacity:1" />
    <path
       id="path908-7-9"
       d="m 86.839104,122.95862 a 0.5211118,1.133928 0 0 0 -0.03684,0.003 0.5211118,1.133928 0 0 0 -0.0517,0.0137 0.5211118,1.133928 0 0 0 -0.05089,0.0248 0.5211118,1.133928 0 0 0 -0.04946,0.0359 0.5211118,1.133928 0 0 0 -0.04743,0.0461 0.5211118,1.133928 0 0 0 -0.04519,0.0562 0.5211118,1.133928 0 0 0 -0.04234,0.066 0.5211118,1.133928 0 0 0 -0.03929,0.0748 0.5211118,1.133928 0 0 0 -0.03542,0.0828 0.5211118,1.133928 0 0 0 -0.03155,0.0904 0.5211118,1.133928 0 0 0 -0.02728,0.0966 0.5211118,1.133928 0 0 0 -0.0226,0.10231 0.5211118,1.133928 0 0 0 -0.01791,0.10631 0.5211118,1.133928 0 0 0 -0.01283,0.10985 0.5211118,1.133928 0 0 0 -0.0077,0.11206 0.5211118,1.133928 0 0 0 -0.0026,0.1134 0.5211118,1.133928 0 0 0 0.0013,0.0802 0.5211118,1.133928 0 0 0 0.0063,0.1125 0.5211118,1.133928 0 0 0 0.0114,0.1103 0.5211118,1.133928 0 0 0 0.01648,0.10763 0.5211118,1.133928 0 0 0 0.02138,0.10365 0.5211118,1.133928 0 0 0 0.02585,0.0983 0.5211118,1.133928 0 0 0 0.03033,0.0921 0.5211118,1.133928 0 0 0 0.0344,0.085 0.5211118,1.133928 0 0 0 0.03807,0.0775 0.5211118,1.133928 0 0 0 0.04153,0.0687 0.5211118,1.133928 0 0 0 0.04438,0.0589 0.5211118,1.133928 0 0 0 0.04682,0.0496 0.5211118,1.133928 0 0 0 0.04885,0.0385 0.5211118,1.133928 0 0 0 0.05048,0.0284 0.5211118,1.133928 0 0 0 0.0515,0.0168 0.5211118,1.133928 0 0 0 0.05211,0.006 0.5211118,1.133928 0 0 0 0.03685,-0.003 0.5211118,1.133928 0 0 0 0.0517,-0.0137 0.5211118,1.133928 0 0 0 0.05089,-0.0248 0.5211118,1.133928 0 0 0 0.04946,-0.0354 0.5211118,1.133928 0 0 0 0.04743,-0.0465 0.5211118,1.133928 0 0 0 0.04519,-0.0562 0.5211118,1.133928 0 0 0 0.04234,-0.066 0.5211118,1.133928 0 0 0 0.03929,-0.0748 0.5211118,1.133928 0 0 0 0.03542,-0.0828 0.5211118,1.133928 0 0 0 0.03155,-0.0904 0.5211118,1.133928 0 0 0 0.02728,-0.0966 0.5211118,1.133928 0 0 0 0.0226,-0.10188 0.5211118,1.133928 0 0 0 0.01791,-0.10675 0.5211118,1.133928 0 0 0 0.01283,-0.10985 0.5211118,1.133928 0 0 0 0.0077,-0.11206 0.5211118,1.133928 0 0 0 0.0026,-0.11295 0.5211118,1.133928 0 0 0 -0.0013,-0.0802 0.5211118,1.133928 0 0 0 -0.0063,-0.11251 0.5211118,1.133928 0 0 0 -0.0114,-0.11073 0.5211118,1.133928 0 0 0 -0.01648,-0.10764 0.5211118,1.133928 0 0 0 -0.02138,-0.10365 0.5211118,1.133928 0 0 0 -0.02585,-0.0983 0.5211118,1.133928 0 0 0 -0.03033,-0.0921 0.5211118,1.133928 0 0 0 -0.0344,-0.0851 0.5211118,1.133928 0 0 0 -0.03807,-0.0771 0.5211118,1.133928 0 0 0 -0.04152,-0.0687 0.5211118,1.133928 0 0 0 -0.04438,-0.0594 0.5211118,1.133928 0 0 0 -0.04682,-0.0492 0.5211118,1.133928 0 0 0 -0.04885,-0.039 0.5211118,1.133928 0 0 0 -0.05048,-0.0279 0.5211118,1.133928 0 0 0 -0.0515,-0.0173 0.5211118,1.133928 0 0 0 -0.05211,-0.005 z"
       style="opacity:1;fill:#7f5f2a;fill-opacity:1;stroke:none;stroke-width:0.12627003;stroke-miterlimit:4;stroke-dasharray:none;stroke-opacity:1" />
    <path
       id="path17-0-3"
       d="m 85.138427,120.9408 a 4.4175963,4.2758556 0 0 0 -4.417819,4.27571 4.4175963,4.2758556 0 0 0 4.417819,4.27571 4.4175963,4.2758556 0 0 0 4.417301,-4.27571 4.4175963,4.2758556 0 0 0 -4.417301,-4.27571 z m -1.594736,1.82883 a 1.3229166,1.3229166 0 0 1 0.131774,0.006 1.3229166,1.3229166 0 0 1 0.130745,0.0202 1.3229166,1.3229166 0 0 1 0.128153,0.0326 1.3229166,1.3229166 0 0 1 0.124542,0.0455 1.3229166,1.3229166 0 0 1 0.118857,0.0574 1.3229166,1.3229166 0 0 1 0.112656,0.0692 1.3229166,1.3229166 0 0 1 0.105416,0.0801 1.3229166,1.3229166 0 0 1 0.09664,0.0899 1.3229166,1.3229166 0 0 1 0.08733,0.0992 1.3229166,1.3229166 0 0 1 0.077,0.10748 1.3229166,1.3229166 0 0 1 0.06563,0.11473 1.3229166,1.3229166 0 0 1 0.05426,0.12092 1.3229166,1.3229166 0 0 1 0.04186,0.12557 1.3229166,1.3229166 0 0 1 0.02894,0.12919 1.3229166,1.3229166 0 0 1 0.0155,0.13126 1.3229166,1.3229166 0 0 1 0.0036,0.0935 1.3229166,1.3229166 0 0 1 -0.0067,0.13178 1.3229166,1.3229166 0 0 1 -0.01963,0.13074 1.3229166,1.3229166 0 0 1 -0.03255,0.12816 1.3229166,1.3229166 0 0 1 -0.04548,0.12454 1.3229166,1.3229166 0 0 1 -0.05788,0.11885 1.3229166,1.3229166 0 0 1 -0.06873,0.11266 1.3229166,1.3229166 0 0 1 -0.0801,0.10542 1.3229166,1.3229166 0 0 1 -0.09043,0.0966 1.3229166,1.3229166 0 0 1 -0.09922,0.0873 1.3229166,1.3229166 0 0 1 -0.107487,0.077 1.3229166,1.3229166 0 0 1 -0.114721,0.0656 1.3229166,1.3229166 0 0 1 -0.120923,0.0543 1.3229166,1.3229166 0 0 1 -0.125058,0.0413 1.3229166,1.3229166 0 0 1 -0.12919,0.0289 1.3229166,1.3229166 0 0 1 -0.131257,0.016 1.3229166,1.3229166 0 0 1 -0.09353,0.004 1.3229166,1.3229166 0 0 1 -0.132289,-0.007 1.3229166,1.3229166 0 0 1 -0.130741,-0.0196 1.3229166,1.3229166 0 0 1 -0.128156,-0.0331 1.3229166,1.3229166 0 0 1 -0.124024,-0.045 1.3229166,1.3229166 0 0 1 -0.118856,-0.0579 1.3229166,1.3229166 0 0 1 -0.113173,-0.0687 1.3229166,1.3229166 0 0 1 -0.104902,-0.0801 1.3229166,1.3229166 0 0 1 -0.09715,-0.0904 1.3229166,1.3229166 0 0 1 -0.08682,-0.0992 1.3229166,1.3229166 0 0 1 -0.077,-0.10749 1.3229166,1.3229166 0 0 1 -0.06615,-0.11472 1.3229166,1.3229166 0 0 1 -0.05374,-0.12092 1.3229166,1.3229166 0 0 1 -0.04186,-0.12558 1.3229166,1.3229166 0 0 1 -0.02894,-0.12867 1.3229166,1.3229166 0 0 1 -0.01601,-0.13126 1.3229166,1.3229166 0 0 1 -0.0031,-0.0935 1.3229166,1.3229166 0 0 1 0.0067,-0.13229 1.3229166,1.3229166 0 0 1 0.01963,-0.13074 1.3229166,1.3229166 0 0 1 0.03256,-0.12816 1.3229166,1.3229166 0 0 1 0.04547,-0.12402 1.3229166,1.3229166 0 0 1 0.05736,-0.11937 1.3229166,1.3229166 0 0 1 0.06925,-0.11266 1.3229166,1.3229166 0 0 1 0.0801,-0.10542 1.3229166,1.3229166 0 0 1 0.08992,-0.0966 1.3229166,1.3229166 0 0 1 0.09973,-0.0873 1.3229166,1.3229166 0 0 1 0.107487,-0.077 1.3229166,1.3229166 0 0 1 0.114721,-0.0656 1.3229166,1.3229166 0 0 1 0.120409,-0.0537 1.3229166,1.3229166 0 0 1 0.125574,-0.0419 1.3229166,1.3229166 0 0 1 0.129188,-0.0289 1.3229166,1.3229166 0 0 1 0.13126,-0.016 1.3229166,1.3229166 0 0 1 0.09353,-0.003 z m 3.295406,0 a 1.3229166,1.3229166 0 0 1 0.132291,0.006 1.3229166,1.3229166 0 0 1 0.130745,0.0202 1.3229166,1.3229166 0 0 1 0.128156,0.0326 1.3229166,1.3229166 0 0 1 0.124022,0.0455 1.3229166,1.3229166 0 0 1 0.118857,0.0574 1.3229166,1.3229166 0 0 1 0.112657,0.0692 1.3229166,1.3229166 0 0 1 0.105415,0.0801 1.3229166,1.3229166 0 0 1 0.09664,0.0899 1.3229166,1.3229166 0 0 1 0.08733,0.0992 1.3229166,1.3229166 0 0 1 0.077,0.10748 1.3229166,1.3229166 0 0 1 0.06563,0.11473 1.3229166,1.3229166 0 0 1 0.05426,0.12092 1.3229166,1.3229166 0 0 1 0.04186,0.12557 1.3229166,1.3229166 0 0 1 0.02894,0.12919 1.3229166,1.3229166 0 0 1 0.01603,0.13126 1.3229166,1.3229166 0 0 1 0.0031,0.0935 1.3229166,1.3229166 0 0 1 -0.0067,0.13178 1.3229166,1.3229166 0 0 1 -0.01963,0.13074 1.3229166,1.3229166 0 0 1 -0.03256,0.12816 1.3229166,1.3229166 0 0 1 -0.04547,0.12454 1.3229166,1.3229166 0 0 1 -0.05736,0.11885 1.3229166,1.3229166 0 0 1 -0.06925,0.11266 1.3229166,1.3229166 0 0 1 -0.0801,0.10542 1.3229166,1.3229166 0 0 1 -0.08992,0.0966 1.3229166,1.3229166 0 0 1 -0.09974,0.0873 1.3229166,1.3229166 0 0 1 -0.107487,0.077 1.3229166,1.3229166 0 0 1 -0.114721,0.0656 1.3229166,1.3229166 0 0 1 -0.120406,0.0543 1.3229166,1.3229166 0 0 1 -0.125574,0.0413 1.3229166,1.3229166 0 0 1 -0.129191,0.0289 1.3229166,1.3229166 0 0 1 -0.131257,0.016 1.3229166,1.3229166 0 0 1 -0.09354,0.004 1.3229166,1.3229166 0 0 1 -0.132286,-0.007 1.3229166,1.3229166 0 0 1 -0.130741,-0.0196 1.3229166,1.3229166 0 0 1 -0.128162,-0.0331 1.3229166,1.3229166 0 0 1 -0.124023,-0.045 1.3229166,1.3229166 0 0 1 -0.118851,-0.0579 1.3229166,1.3229166 0 0 1 -0.112657,-0.0687 1.3229166,1.3229166 0 0 1 -0.105421,-0.0801 1.3229166,1.3229166 0 0 1 -0.09664,-0.0904 1.3229166,1.3229166 0 0 1 -0.08733,-0.0992 1.3229166,1.3229166 0 0 1 -0.077,-0.10749 1.3229166,1.3229166 0 0 1 -0.06563,-0.11472 1.3229166,1.3229166 0 0 1 -0.05426,-0.12092 1.3229166,1.3229166 0 0 1 -0.04186,-0.12558 1.3229166,1.3229166 0 0 1 -0.02894,-0.12867 1.3229166,1.3229166 0 0 1 -0.01601,-0.13126 1.3229166,1.3229166 0 0 1 -0.0031,-0.0935 1.3229166,1.3229166 0 0 1 0.0067,-0.13229 1.3229166,1.3229166 0 0 1 0.01963,-0.13074 1.3229166,1.3229166 0 0 1 0.03256,-0.12816 1.3229166,1.3229166 0 0 1 0.04547,-0.12402 1.3229166,1.3229166 0 0 1 0.05736,-0.11937 1.3229166,1.3229166 0 0 1 0.06925,-0.11266 1.3229166,1.3229166 0 0 1 0.0801,-0.10542 1.3229166,1.3229166 0 0 1 0.08992,-0.0966 1.3229166,1.3229166 0 0 1 0.09974,-0.0873 1.3229166,1.3229166 0 0 1 0.107487,-0.077 1.3229166,1.3229166 0 0 1 0.114721,-0.0656 1.3229166,1.3229166 0 0 1 0.120407,-0.0537 1.3229166,1.3229166 0 0 1 0.125574,-0.0419 1.3229166,1.3229166 0 0 1 0.12919,-0.0289 1.3229166,1.3229166 0 0 1 0.131257,-0.016 1.3229166,1.3229166 0 0 1 0.09353,-0.003 z"
       style="opacity:1;fill:#7f5f2a;fill-opacity:1;stroke:none;stroke-width:0.2173074;stroke-miterlimit:4;stroke-dasharray:none;stroke-opacity:1" />
    <path
       id="rect19-9-7"
       d="m 82.574275,126.63403 h 5.222347 c 1.484994,0 2.680494,2.37061 2.680494,5.31528 0,2.94468 -1.1955,5.31529 -2.680494,5.31529 h -5.222347 c -1.484994,0 -2.680494,-2.37061 -2.680494,-5.31529 0,-2.94467 1.1955,-5.31528 2.680494,-5.31528 z"
       style="opacity:1;fill:#7f5f2a;fill-opacity:1;stroke:none;stroke-width:0.37006992;stroke-miterlimit:4;stroke-dasharray:none;stroke-opacity:1" />
    <path
       id="path24-3-3-4"
       d="m 81.646796,128.23 a 1.4882812,3.0238094 33.263205 0 0 -2.902958,1.71209 1.4882812,3.0238094 33.263205 0 0 -0.414076,3.34469 1.4882812,3.0238094 33.263205 0 0 2.902958,-1.71209 1.4882812,3.0238094 33.263205 0 0 0.414076,-3.34469 z"
       style="opacity:1;fill:#7f5f2a;fill-opacity:1;stroke:none;stroke-width:0.28285146;stroke-miterlimit:4;stroke-dasharray:none;stroke-opacity:1" />
    <path
       id="path24-3-7-6-5"
       d="m 92.041141,133.28678 a 3.0238094,1.4882812 56.736795 0 1 -2.902958,-1.71209 3.0238094,1.4882812 56.736795 0 1 -0.414076,-3.34469 3.0238094,1.4882812 56.736795 0 1 2.902957,1.71209 3.0238094,1.4882812 56.736795 0 1 0.414077,3.34469 z"
       style="opacity:1;fill:#7f5f2a;fill-opacity:1;stroke:none;stroke-width:0.28285146;stroke-miterlimit:4;stroke-dasharray:none;stroke-opacity:1" />
  </g>
</svg>
