<?xml version="1.0" encoding="UTF-8" standalone="no"?>
<svg
   xmlns:dc="http://purl.org/dc/elements/1.1/"
   xmlns:cc="http://creativecommons.org/ns#"
   xmlns:rdf="http://www.w3.org/1999/02/22-rdf-syntax-ns#"
   xmlns:svg="http://www.w3.org/2000/svg"
   xmlns="http://www.w3.org/2000/svg"
   id="svg1389"
   version="1.1"
   viewBox="0 0 14.541303 16.323811"
   height="16.323811mm"
   width="14.541304mm">
  <defs
     id="defs1383" />
  <metadata
     id="metadata1386">
    <rdf:RDF>
      <cc:Work
         rdf:about="">
        <dc:format>image/svg+xml</dc:format>
        <dc:type
           rdf:resource="http://purl.org/dc/dcmitype/StillImage" />
        <dc:title></dc:title>
      </cc:Work>
    </rdf:RDF>
  </metadata>
  <g
     transform="translate(-82.166225,-122.79131)"
     id="layer1">
    <path
       id="path17-5"
       d="m 89.389849,122.79131 a 4.4175963,4.2758556 0 0 0 -4.417819,4.27571 4.4175963,4.2758556 0 0 0 4.417819,4.27571 4.4175963,4.2758556 0 0 0 4.417302,-4.27571 4.4175963,4.2758556 0 0 0 -4.417302,-4.27571 z m -1.594736,1.82883 a 1.3229166,1.3229166 0 0 1 0.131776,0.006 1.3229166,1.3229166 0 0 1 0.130741,0.0202 1.3229166,1.3229166 0 0 1 0.128156,0.0326 1.3229166,1.3229166 0 0 1 0.124542,0.0455 1.3229166,1.3229166 0 0 1 0.118856,0.0574 1.3229166,1.3229166 0 0 1 0.112655,0.0692 1.3229166,1.3229166 0 0 1 0.105417,0.0801 1.3229166,1.3229166 0 0 1 0.09664,0.0899 1.3229166,1.3229166 0 0 1 0.08733,0.0992 1.3229166,1.3229166 0 0 1 0.077,0.10749 1.3229166,1.3229166 0 0 1 0.06563,0.11472 1.3229166,1.3229166 0 0 1 0.05426,0.12092 1.3229166,1.3229166 0 0 1 0.04186,0.12557 1.3229166,1.3229166 0 0 1 0.02894,0.12919 1.3229166,1.3229166 0 0 1 0.0155,0.13126 1.3229166,1.3229166 0 0 1 0.0036,0.0935 1.3229166,1.3229166 0 0 1 -0.0067,0.13178 1.3229166,1.3229166 0 0 1 -0.01964,0.13074 1.3229166,1.3229166 0 0 1 -0.03255,0.12816 1.3229166,1.3229166 0 0 1 -0.04548,0.12454 1.3229166,1.3229166 0 0 1 -0.05788,0.11885 1.3229166,1.3229166 0 0 1 -0.06873,0.11266 1.3229166,1.3229166 0 0 1 -0.0801,0.10542 1.3229166,1.3229166 0 0 1 -0.09043,0.0966 1.3229166,1.3229166 0 0 1 -0.09922,0.0873 1.3229166,1.3229166 0 0 1 -0.107487,0.077 1.3229166,1.3229166 0 0 1 -0.11472,0.0656 1.3229166,1.3229166 0 0 1 -0.120923,0.0543 1.3229166,1.3229166 0 0 1 -0.125058,0.0413 1.3229166,1.3229166 0 0 1 -0.12919,0.0289 1.3229166,1.3229166 0 0 1 -0.131258,0.016 1.3229166,1.3229166 0 0 1 -0.09353,0.004 1.3229166,1.3229166 0 0 1 -0.132292,-0.007 1.3229166,1.3229166 0 0 1 -0.13074,-0.0196 1.3229166,1.3229166 0 0 1 -0.128156,-0.0331 1.3229166,1.3229166 0 0 1 -0.124024,-0.045 1.3229166,1.3229166 0 0 1 -0.118856,-0.0579 1.3229166,1.3229166 0 0 1 -0.113173,-0.0687 1.3229166,1.3229166 0 0 1 -0.104902,-0.0801 1.3229166,1.3229166 0 0 1 -0.09715,-0.0904 1.3229166,1.3229166 0 0 1 -0.08682,-0.0992 1.3229166,1.3229166 0 0 1 -0.077,-0.10749 1.3229166,1.3229166 0 0 1 -0.06615,-0.11472 1.3229166,1.3229166 0 0 1 -0.05374,-0.12092 1.3229166,1.3229166 0 0 1 -0.04186,-0.12558 1.3229166,1.3229166 0 0 1 -0.02894,-0.12867 1.3229166,1.3229166 0 0 1 -0.01602,-0.13126 1.3229166,1.3229166 0 0 1 -0.0031,-0.0935 1.3229166,1.3229166 0 0 1 0.0067,-0.13229 1.3229166,1.3229166 0 0 1 0.01964,-0.13074 1.3229166,1.3229166 0 0 1 0.03256,-0.12816 1.3229166,1.3229166 0 0 1 0.04547,-0.12402 1.3229166,1.3229166 0 0 1 0.05736,-0.11937 1.3229166,1.3229166 0 0 1 0.06925,-0.11266 1.3229166,1.3229166 0 0 1 0.0801,-0.10542 1.3229166,1.3229166 0 0 1 0.08992,-0.0966 1.3229166,1.3229166 0 0 1 0.09973,-0.0873 1.3229166,1.3229166 0 0 1 0.107487,-0.077 1.3229166,1.3229166 0 0 1 0.114721,-0.0656 1.3229166,1.3229166 0 0 1 0.120407,-0.0537 1.3229166,1.3229166 0 0 1 0.125574,-0.0419 1.3229166,1.3229166 0 0 1 0.12919,-0.0289 1.3229166,1.3229166 0 0 1 0.13126,-0.016 1.3229166,1.3229166 0 0 1 0.09353,-0.003 z m 3.295406,0 a 1.3229166,1.3229166 0 0 1 0.132292,0.006 1.3229166,1.3229166 0 0 1 0.130741,0.0202 1.3229166,1.3229166 0 0 1 0.128159,0.0326 1.3229166,1.3229166 0 0 1 0.124024,0.0455 1.3229166,1.3229166 0 0 1 0.118853,0.0574 1.3229166,1.3229166 0 0 1 0.112657,0.0692 1.3229166,1.3229166 0 0 1 0.105418,0.0801 1.3229166,1.3229166 0 0 1 0.09664,0.0899 1.3229166,1.3229166 0 0 1 0.08733,0.0992 1.3229166,1.3229166 0 0 1 0.077,0.10749 1.3229166,1.3229166 0 0 1 0.06563,0.11472 1.3229166,1.3229166 0 0 1 0.05426,0.12092 1.3229166,1.3229166 0 0 1 0.04186,0.12557 1.3229166,1.3229166 0 0 1 0.02894,0.12919 1.3229166,1.3229166 0 0 1 0.01602,0.13126 1.3229166,1.3229166 0 0 1 0.0031,0.0935 1.3229166,1.3229166 0 0 1 -0.0067,0.13178 1.3229166,1.3229166 0 0 1 -0.01964,0.13074 1.3229166,1.3229166 0 0 1 -0.03256,0.12816 1.3229166,1.3229166 0 0 1 -0.04547,0.12454 1.3229166,1.3229166 0 0 1 -0.05736,0.11885 1.3229166,1.3229166 0 0 1 -0.06925,0.11266 1.3229166,1.3229166 0 0 1 -0.0801,0.10542 1.3229166,1.3229166 0 0 1 -0.08992,0.0966 1.3229166,1.3229166 0 0 1 -0.09974,0.0873 1.3229166,1.3229166 0 0 1 -0.107487,0.077 1.3229166,1.3229166 0 0 1 -0.114721,0.0656 1.3229166,1.3229166 0 0 1 -0.120406,0.0543 1.3229166,1.3229166 0 0 1 -0.125574,0.0413 1.3229166,1.3229166 0 0 1 -0.129191,0.0289 1.3229166,1.3229166 0 0 1 -0.131257,0.016 1.3229166,1.3229166 0 0 1 -0.09354,0.004 1.3229166,1.3229166 0 0 1 -0.132291,-0.007 1.3229166,1.3229166 0 0 1 -0.130741,-0.0196 1.3229166,1.3229166 0 0 1 -0.128159,-0.0331 1.3229166,1.3229166 0 0 1 -0.124024,-0.045 1.3229166,1.3229166 0 0 1 -0.118853,-0.0579 1.3229166,1.3229166 0 0 1 -0.112657,-0.0687 1.3229166,1.3229166 0 0 1 -0.105418,-0.0801 1.3229166,1.3229166 0 0 1 -0.09664,-0.0904 1.3229166,1.3229166 0 0 1 -0.08733,-0.0992 1.3229166,1.3229166 0 0 1 -0.077,-0.10749 1.3229166,1.3229166 0 0 1 -0.06563,-0.11472 1.3229166,1.3229166 0 0 1 -0.05426,-0.12092 1.3229166,1.3229166 0 0 1 -0.04186,-0.12558 1.3229166,1.3229166 0 0 1 -0.02894,-0.12867 1.3229166,1.3229166 0 0 1 -0.01602,-0.13126 1.3229166,1.3229166 0 0 1 -0.0031,-0.0935 1.3229166,1.3229166 0 0 1 0.0067,-0.13229 1.3229166,1.3229166 0 0 1 0.01964,-0.13074 1.3229166,1.3229166 0 0 1 0.03256,-0.12816 1.3229166,1.3229166 0 0 1 0.04547,-0.12402 1.3229166,1.3229166 0 0 1 0.05736,-0.11937 1.3229166,1.3229166 0 0 1 0.06925,-0.11266 1.3229166,1.3229166 0 0 1 0.0801,-0.10542 1.3229166,1.3229166 0 0 1 0.08992,-0.0966 1.3229166,1.3229166 0 0 1 0.09974,-0.0873 1.3229166,1.3229166 0 0 1 0.107487,-0.077 1.3229166,1.3229166 0 0 1 0.114721,-0.0656 1.3229166,1.3229166 0 0 1 0.120406,-0.0537 1.3229166,1.3229166 0 0 1 0.125574,-0.0419 1.3229166,1.3229166 0 0 1 0.129191,-0.0289 1.3229166,1.3229166 0 0 1 0.131257,-0.016 1.3229166,1.3229166 0 0 1 0.09353,-0.003 z"
       style="opacity:1;fill:#7f5f2a;fill-opacity:1;stroke:none;stroke-width:0.2173074;stroke-miterlimit:4;stroke-dasharray:none;stroke-opacity:1" />
    <path
       id="rect19-4"
       d="m 86.825702,128.48454 h 5.222346 c 1.484994,0 2.680494,2.37062 2.680494,5.31529 0,2.94467 -1.1955,5.31529 -2.680494,5.31529 h -5.222346 c -1.484993,0 -2.680494,-2.37062 -2.680494,-5.31529 0,-2.94467 1.195501,-5.31529 2.680494,-5.31529 z"
       style="opacity:1;fill:#7f5f2a;fill-opacity:1;stroke:none;stroke-width:0.37006992;stroke-miterlimit:4;stroke-dasharray:none;stroke-opacity:1" />
    <path
       id="path24-3-76"
       d="m 85.898221,130.08051 a 1.4882812,3.0238094 33.263205 0 0 -2.902958,1.71209 1.4882812,3.0238094 33.263205 0 0 -0.414076,3.34469 1.4882812,3.0238094 33.263205 0 0 2.902958,-1.71209 1.4882812,3.0238094 33.263205 0 0 0.414076,-3.34469 z"
       style="opacity:1;fill:#7f5f2a;fill-opacity:1;stroke:none;stroke-width:0.28285146;stroke-miterlimit:4;stroke-dasharray:none;stroke-opacity:1" />
    <path
       id="path24-3-7-5"
       d="m 96.292567,135.13729 a 3.0238094,1.4882812 56.736795 0 1 -2.902959,-1.71209 3.0238094,1.4882812 56.736795 0 1 -0.414075,-3.34469 3.0238094,1.4882812 56.736795 0 1 2.902958,1.71209 3.0238094,1.4882812 56.736795 0 1 0.414076,3.34469 z"
       style="opacity:1;fill:#7f5f2a;fill-opacity:1;stroke:none;stroke-width:0.28285146;stroke-miterlimit:4;stroke-dasharray:none;stroke-opacity:1" />
  </g>
</svg>
