<?xml version="1.0" encoding="UTF-8" standalone="no"?>
<svg
   xmlns:dc="http://purl.org/dc/elements/1.1/"
   xmlns:cc="http://creativecommons.org/ns#"
   xmlns:rdf="http://www.w3.org/1999/02/22-rdf-syntax-ns#"
   xmlns:svg="http://www.w3.org/2000/svg"
   xmlns="http://www.w3.org/2000/svg"
   id="svg1389"
   version="1.1"
   viewBox="0 0 14.541298 16.323811"
   height="16.323811mm"
   width="14.541299mm">
  <defs
     id="defs1383" />
  <metadata
     id="metadata1386">
    <rdf:RDF>
      <cc:Work
         rdf:about="">
        <dc:format>image/svg+xml</dc:format>
        <dc:type
           rdf:resource="http://purl.org/dc/dcmitype/StillImage" />
        <dc:title></dc:title>
      </cc:Work>
    </rdf:RDF>
  </metadata>
  <g
     transform="translate(-80.274374,-121.96628)"
     id="layer1">
    <path
       id="path905-0-2"
       d="m 85.903269,124.78729 a 0.33072541,0.33072541 0 0 0 -0.02339,7.7e-4 0.33072541,0.33072541 0 0 0 -0.03281,0.004 0.33072541,0.33072541 0 0 0 -0.0323,0.007 0.33072541,0.33072541 0 0 0 -0.03139,0.0105 0.33072541,0.33072541 0 0 0 -0.0301,0.0134 0.33072541,0.33072541 0 0 0 -0.02868,0.0164 0.33072541,0.33072541 0 0 0 -0.02687,0.0192 0.33072541,0.33072541 0 0 0 -0.02492,0.0218 0.33072541,0.33072541 0 0 0 -0.02249,0.0242 0.33072541,0.33072541 0 0 0 -0.02003,0.0263 0.33072541,0.33072541 0 0 0 -0.0173,0.0282 0.33072541,0.33072541 0 0 0 -0.01434,0.0298 0.33072541,0.33072541 0 0 0 -0.01138,0.031 0.33072541,0.33072541 0 0 0 -0.0081,0.032 0.33072541,0.33072541 0 0 0 -0.0049,0.0327 0.33072541,0.33072541 0 0 0 -0.0016,0.0331 0.33072541,0.33072541 0 0 0 7.94e-4,0.0234 0.33072541,0.33072541 0 0 0 0.004,0.0328 0.33072541,0.33072541 0 0 0 0.0072,0.0322 0.33072541,0.33072541 0 0 0 0.01045,0.0314 0.33072541,0.33072541 0 0 0 0.01344,0.0302 0.33072541,0.33072541 0 0 0 0.01654,0.0287 0.33072541,0.33072541 0 0 0 0.01926,0.0269 0.33072541,0.33072541 0 0 0 0.0217,0.0248 0.33072541,0.33072541 0 0 0 0.02429,0.0226 0.33072541,0.33072541 0 0 0 0.02622,0.02 0.33072541,0.33072541 0 0 0 0.02829,0.0172 0.33072541,0.33072541 0 0 0 0.02971,0.0145 0.33072541,0.33072541 0 0 0 0.03101,0.0112 0.33072541,0.33072541 0 0 0 0.03204,0.008 0.33072541,0.33072541 0 0 0 0.03269,0.005 0.33072541,0.33072541 0 0 0 0.03307,0.002 0.33072541,0.33072541 0 0 0 0.02339,-9e-4 0.33072541,0.33072541 0 0 0 0.03281,-0.004 0.33072541,0.33072541 0 0 0 0.0323,-0.007 0.33072541,0.33072541 0 0 0 0.03126,-0.0103 0.33072541,0.33072541 0 0 0 0.03023,-0.0136 0.33072541,0.33072541 0 0 0 0.02868,-0.0164 0.33072541,0.33072541 0 0 0 0.02687,-0.0192 0.33072541,0.33072541 0 0 0 0.02482,-0.0218 0.33072541,0.33072541 0 0 0 0.0226,-0.0242 0.33072541,0.33072541 0 0 0 0.02003,-0.0264 0.33072541,0.33072541 0 0 0 0.01717,-0.0282 0.33072541,0.33072541 0 0 0 0.01447,-0.0297 0.33072541,0.33072541 0 0 0 0.01138,-0.0311 0.33072541,0.33072541 0 0 0 0.0081,-0.032 0.33072541,0.33072541 0 0 0 0.0049,-0.0327 0.33072541,0.33072541 0 0 0 0.0016,-0.0329 0.33072541,0.33072541 0 0 0 -7.94e-4,-0.0234 0.33072541,0.33072541 0 0 0 -0.0039,-0.0328 0.33072541,0.33072541 0 0 0 -0.0072,-0.0323 0.33072541,0.33072541 0 0 0 -0.01045,-0.0314 0.33072541,0.33072541 0 0 0 -0.01357,-0.0302 0.33072541,0.33072541 0 0 0 -0.0164,-0.0287 0.33072541,0.33072541 0 0 0 -0.01926,-0.0269 0.33072541,0.33072541 0 0 0 -0.02183,-0.0248 0.33072541,0.33072541 0 0 0 -0.02416,-0.0225 0.33072541,0.33072541 0 0 0 -0.02635,-0.02 0.33072541,0.33072541 0 0 0 -0.02816,-0.0173 0.33072541,0.33072541 0 0 0 -0.02971,-0.0143 0.33072541,0.33072541 0 0 0 -0.03114,-0.0114 0.33072541,0.33072541 0 0 0 -0.03204,-0.008 0.33072541,0.33072541 0 0 0 -0.03269,-0.005 0.33072541,0.33072541 0 0 0 -0.03294,-0.002 z"
       style="opacity:1;fill:#7f5f2a;fill-opacity:1;stroke:none;stroke-width:0.05432624;stroke-miterlimit:4;stroke-dasharray:none;stroke-opacity:1" />
    <path
       id="path908-6-5"
       d="m 89.198678,124.78729 a 0.33072697,0.33072697 0 0 0 -0.02339,7.7e-4 0.33072697,0.33072697 0 0 0 -0.03281,0.004 0.33072697,0.33072697 0 0 0 -0.0323,0.007 0.33072697,0.33072697 0 0 0 -0.03139,0.0105 0.33072697,0.33072697 0 0 0 -0.0301,0.0134 0.33072697,0.33072697 0 0 0 -0.02868,0.0164 0.33072697,0.33072697 0 0 0 -0.02687,0.0193 0.33072697,0.33072697 0 0 0 -0.02492,0.0218 0.33072697,0.33072697 0 0 0 -0.02249,0.0242 0.33072697,0.33072697 0 0 0 -0.02003,0.0264 0.33072697,0.33072697 0 0 0 -0.0173,0.0282 0.33072697,0.33072697 0 0 0 -0.01434,0.0298 0.33072697,0.33072697 0 0 0 -0.01138,0.031 0.33072697,0.33072697 0 0 0 -0.0081,0.032 0.33072697,0.33072697 0 0 0 -0.0049,0.0327 0.33072697,0.33072697 0 0 0 -0.0016,0.0331 0.33072697,0.33072697 0 0 0 7.94e-4,0.0234 0.33072697,0.33072697 0 0 0 0.004,0.0328 0.33072697,0.33072697 0 0 0 0.0072,0.0322 0.33072697,0.33072697 0 0 0 0.01045,0.0314 0.33072697,0.33072697 0 0 0 0.01357,0.0302 0.33072697,0.33072697 0 0 0 0.0164,0.0287 0.33072697,0.33072697 0 0 0 0.01926,0.0269 0.33072697,0.33072697 0 0 0 0.02183,0.0248 0.33072697,0.33072697 0 0 0 0.02416,0.0226 0.33072697,0.33072697 0 0 0 0.02635,0.02 0.33072697,0.33072697 0 0 0 0.02816,0.0172 0.33072697,0.33072697 0 0 0 0.02971,0.0145 0.33072697,0.33072697 0 0 0 0.03101,0.0112 0.33072697,0.33072697 0 0 0 0.03204,0.008 0.33072697,0.33072697 0 0 0 0.03269,0.005 0.33072697,0.33072697 0 0 0 0.03307,0.002 0.33072697,0.33072697 0 0 0 0.02339,-9e-4 0.33072697,0.33072697 0 0 0 0.03281,-0.004 0.33072697,0.33072697 0 0 0 0.0323,-0.007 0.33072697,0.33072697 0 0 0 0.03139,-0.0103 0.33072697,0.33072697 0 0 0 0.0301,-0.0136 0.33072697,0.33072697 0 0 0 0.02868,-0.0164 0.33072697,0.33072697 0 0 0 0.02687,-0.0192 0.33072697,0.33072697 0 0 0 0.02492,-0.0218 0.33072697,0.33072697 0 0 0 0.02249,-0.0242 0.33072697,0.33072697 0 0 0 0.02003,-0.0264 0.33072697,0.33072697 0 0 0 0.0173,-0.0282 0.33072697,0.33072697 0 0 0 0.01434,-0.0297 0.33072697,0.33072697 0 0 0 0.01138,-0.0311 0.33072697,0.33072697 0 0 0 0.0081,-0.032 0.33072697,0.33072697 0 0 0 0.0049,-0.0327 0.33072697,0.33072697 0 0 0 0.0016,-0.0329 0.33072697,0.33072697 0 0 0 -7.94e-4,-0.0234 0.33072697,0.33072697 0 0 0 -0.004,-0.0328 0.33072697,0.33072697 0 0 0 -0.0072,-0.0323 0.33072697,0.33072697 0 0 0 -0.01048,-0.0314 0.33072697,0.33072697 0 0 0 -0.01357,-0.0302 0.33072697,0.33072697 0 0 0 -0.0164,-0.0287 0.33072697,0.33072697 0 0 0 -0.01926,-0.0269 0.33072697,0.33072697 0 0 0 -0.02183,-0.0248 0.33072697,0.33072697 0 0 0 -0.02416,-0.0225 0.33072697,0.33072697 0 0 0 -0.02635,-0.02 0.33072697,0.33072697 0 0 0 -0.02816,-0.0173 0.33072697,0.33072697 0 0 0 -0.02971,-0.0143 0.33072697,0.33072697 0 0 0 -0.03101,-0.0114 0.33072697,0.33072697 0 0 0 -0.03204,-0.008 0.33072697,0.33072697 0 0 0 -0.03268,-0.005 0.33072697,0.33072697 0 0 0 -0.03307,-0.002 z"
       style="opacity:1;fill:#7f5f2a;fill-opacity:1;stroke:none;stroke-width:0.0543265;stroke-miterlimit:4;stroke-dasharray:none;stroke-opacity:1" />
    <path
       id="path17-2-4"
       d="m 87.497998,121.96628 a 4.4175963,4.2758556 0 0 0 -4.41782,4.27571 4.4175963,4.2758556 0 0 0 4.41782,4.27571 4.4175963,4.2758556 0 0 0 4.4173,-4.27571 4.4175963,4.2758556 0 0 0 -4.4173,-4.27571 z m -1.594737,1.82883 a 1.3229166,1.3229166 0 0 1 0.131776,0.006 1.3229166,1.3229166 0 0 1 0.130741,0.0202 1.3229166,1.3229166 0 0 1 0.128156,0.0326 1.3229166,1.3229166 0 0 1 0.124542,0.0455 1.3229166,1.3229166 0 0 1 0.118857,0.0574 1.3229166,1.3229166 0 0 1 0.112654,0.0692 1.3229166,1.3229166 0 0 1 0.105418,0.0801 1.3229166,1.3229166 0 0 1 0.09664,0.0899 1.3229166,1.3229166 0 0 1 0.08733,0.0992 1.3229166,1.3229166 0 0 1 0.077,0.10749 1.3229166,1.3229166 0 0 1 0.06563,0.11472 1.3229166,1.3229166 0 0 1 0.05426,0.12092 1.3229166,1.3229166 0 0 1 0.04186,0.12557 1.3229166,1.3229166 0 0 1 0.02894,0.12919 1.3229166,1.3229166 0 0 1 0.0155,0.13126 1.3229166,1.3229166 0 0 1 0.0036,0.0935 1.3229166,1.3229166 0 0 1 -0.0067,0.13178 1.3229166,1.3229166 0 0 1 -0.01963,0.13074 1.3229166,1.3229166 0 0 1 -0.03255,0.12816 1.3229166,1.3229166 0 0 1 -0.04548,0.12454 1.3229166,1.3229166 0 0 1 -0.05788,0.11885 1.3229166,1.3229166 0 0 1 -0.06873,0.11266 1.3229166,1.3229166 0 0 1 -0.0801,0.10542 1.3229166,1.3229166 0 0 1 -0.09043,0.0966 1.3229166,1.3229166 0 0 1 -0.09922,0.0873 1.3229166,1.3229166 0 0 1 -0.107487,0.077 1.3229166,1.3229166 0 0 1 -0.11472,0.0656 1.3229166,1.3229166 0 0 1 -0.120923,0.0543 1.3229166,1.3229166 0 0 1 -0.125058,0.0413 1.3229166,1.3229166 0 0 1 -0.129191,0.0289 1.3229166,1.3229166 0 0 1 -0.131256,0.016 1.3229166,1.3229166 0 0 1 -0.09353,0.004 1.3229166,1.3229166 0 0 1 -0.132292,-0.007 1.3229166,1.3229166 0 0 1 -0.13074,-0.0196 1.3229166,1.3229166 0 0 1 -0.128156,-0.0331 1.3229166,1.3229166 0 0 1 -0.124024,-0.045 1.3229166,1.3229166 0 0 1 -0.118857,-0.0579 1.3229166,1.3229166 0 0 1 -0.113172,-0.0687 1.3229166,1.3229166 0 0 1 -0.104902,-0.0801 1.3229166,1.3229166 0 0 1 -0.09715,-0.0904 1.3229166,1.3229166 0 0 1 -0.08682,-0.0992 1.3229166,1.3229166 0 0 1 -0.077,-0.10749 1.3229166,1.3229166 0 0 1 -0.06615,-0.11472 1.3229166,1.3229166 0 0 1 -0.05374,-0.12092 1.3229166,1.3229166 0 0 1 -0.04186,-0.12558 1.3229166,1.3229166 0 0 1 -0.02894,-0.12867 1.3229166,1.3229166 0 0 1 -0.01603,-0.13126 1.3229166,1.3229166 0 0 1 -0.0031,-0.0935 1.3229166,1.3229166 0 0 1 0.0067,-0.13229 1.3229166,1.3229166 0 0 1 0.01963,-0.13074 1.3229166,1.3229166 0 0 1 0.03256,-0.12816 1.3229166,1.3229166 0 0 1 0.04547,-0.12402 1.3229166,1.3229166 0 0 1 0.05736,-0.11937 1.3229166,1.3229166 0 0 1 0.06925,-0.11266 1.3229166,1.3229166 0 0 1 0.0801,-0.10542 1.3229166,1.3229166 0 0 1 0.08992,-0.0966 1.3229166,1.3229166 0 0 1 0.09973,-0.0873 1.3229166,1.3229166 0 0 1 0.107487,-0.077 1.3229166,1.3229166 0 0 1 0.11472,-0.0656 1.3229166,1.3229166 0 0 1 0.120407,-0.0537 1.3229166,1.3229166 0 0 1 0.125574,-0.0419 1.3229166,1.3229166 0 0 1 0.12919,-0.0289 1.3229166,1.3229166 0 0 1 0.13126,-0.016 1.3229166,1.3229166 0 0 1 0.09353,-0.003 z m 3.295407,0 a 1.3229166,1.3229166 0 0 1 0.132291,0.006 1.3229166,1.3229166 0 0 1 0.130742,0.0202 1.3229166,1.3229166 0 0 1 0.128159,0.0326 1.3229166,1.3229166 0 0 1 0.124023,0.0455 1.3229166,1.3229166 0 0 1 0.118853,0.0574 1.3229166,1.3229166 0 0 1 0.112657,0.0692 1.3229166,1.3229166 0 0 1 0.105418,0.0801 1.3229166,1.3229166 0 0 1 0.09664,0.0899 1.3229166,1.3229166 0 0 1 0.08733,0.0992 1.3229166,1.3229166 0 0 1 0.077,0.10749 1.3229166,1.3229166 0 0 1 0.06563,0.11472 1.3229166,1.3229166 0 0 1 0.05426,0.12092 1.3229166,1.3229166 0 0 1 0.04186,0.12557 1.3229166,1.3229166 0 0 1 0.02894,0.12919 1.3229166,1.3229166 0 0 1 0.01603,0.13126 1.3229166,1.3229166 0 0 1 0.0031,0.0935 1.3229166,1.3229166 0 0 1 -0.0067,0.13178 1.3229166,1.3229166 0 0 1 -0.01963,0.13074 1.3229166,1.3229166 0 0 1 -0.03256,0.12816 1.3229166,1.3229166 0 0 1 -0.04547,0.12454 1.3229166,1.3229166 0 0 1 -0.05736,0.11885 1.3229166,1.3229166 0 0 1 -0.06925,0.11266 1.3229166,1.3229166 0 0 1 -0.0801,0.10542 1.3229166,1.3229166 0 0 1 -0.08992,0.0966 1.3229166,1.3229166 0 0 1 -0.09974,0.0873 1.3229166,1.3229166 0 0 1 -0.107487,0.077 1.3229166,1.3229166 0 0 1 -0.114723,0.0656 1.3229166,1.3229166 0 0 1 -0.120404,0.0543 1.3229166,1.3229166 0 0 1 -0.125574,0.0413 1.3229166,1.3229166 0 0 1 -0.129193,0.0289 1.3229166,1.3229166 0 0 1 -0.131255,0.016 1.3229166,1.3229166 0 0 1 -0.09354,0.004 1.3229166,1.3229166 0 0 1 -0.132289,-0.007 1.3229166,1.3229166 0 0 1 -0.130742,-0.0196 1.3229166,1.3229166 0 0 1 -0.128159,-0.0331 1.3229166,1.3229166 0 0 1 -0.124023,-0.045 1.3229166,1.3229166 0 0 1 -0.118853,-0.0579 1.3229166,1.3229166 0 0 1 -0.112657,-0.0687 1.3229166,1.3229166 0 0 1 -0.105418,-0.0801 1.3229166,1.3229166 0 0 1 -0.09664,-0.0904 1.3229166,1.3229166 0 0 1 -0.08733,-0.0992 1.3229166,1.3229166 0 0 1 -0.077,-0.10749 1.3229166,1.3229166 0 0 1 -0.06563,-0.11472 1.3229166,1.3229166 0 0 1 -0.05426,-0.12092 1.3229166,1.3229166 0 0 1 -0.04186,-0.12558 1.3229166,1.3229166 0 0 1 -0.02894,-0.12867 1.3229166,1.3229166 0 0 1 -0.01601,-0.13126 1.3229166,1.3229166 0 0 1 -0.0031,-0.0935 1.3229166,1.3229166 0 0 1 0.0067,-0.13229 1.3229166,1.3229166 0 0 1 0.01963,-0.13074 1.3229166,1.3229166 0 0 1 0.03256,-0.12816 1.3229166,1.3229166 0 0 1 0.04547,-0.12402 1.3229166,1.3229166 0 0 1 0.05736,-0.11937 1.3229166,1.3229166 0 0 1 0.06925,-0.11266 1.3229166,1.3229166 0 0 1 0.0801,-0.10542 1.3229166,1.3229166 0 0 1 0.08992,-0.0966 1.3229166,1.3229166 0 0 1 0.09974,-0.0873 1.3229166,1.3229166 0 0 1 0.107487,-0.077 1.3229166,1.3229166 0 0 1 0.11472,-0.0656 1.3229166,1.3229166 0 0 1 0.120407,-0.0537 1.3229166,1.3229166 0 0 1 0.125574,-0.0419 1.3229166,1.3229166 0 0 1 0.129191,-0.0289 1.3229166,1.3229166 0 0 1 0.131257,-0.016 1.3229166,1.3229166 0 0 1 0.09353,-0.003 z"
       style="opacity:1;fill:#7f5f2a;fill-opacity:1;stroke:none;stroke-width:0.2173074;stroke-miterlimit:4;stroke-dasharray:none;stroke-opacity:1" />
    <path
       id="rect19-6-7"
       d="m 84.933851,127.65951 h 5.222345 c 1.484994,0 2.680495,2.37062 2.680495,5.31529 0,2.94467 -1.195501,5.31529 -2.680495,5.31529 h -5.222345 c -1.484994,0 -2.680494,-2.37062 -2.680494,-5.31529 0,-2.94467 1.1955,-5.31529 2.680494,-5.31529 z"
       style="opacity:1;fill:#7f5f2a;fill-opacity:1;stroke:none;stroke-width:0.37006992;stroke-miterlimit:4;stroke-dasharray:none;stroke-opacity:1" />
    <path
       id="path24-3-1-4"
       d="m 84.00637,129.25548 a 1.4882812,3.0238094 33.263205 0 0 -2.902958,1.71209 1.4882812,3.0238094 33.263205 0 0 -0.414076,3.34469 1.4882812,3.0238094 33.263205 0 0 2.902958,-1.71209 1.4882812,3.0238094 33.263205 0 0 0.414076,-3.34469 z"
       style="opacity:1;fill:#7f5f2a;fill-opacity:1;stroke:none;stroke-width:0.28285146;stroke-miterlimit:4;stroke-dasharray:none;stroke-opacity:1" />
    <path
       id="path24-3-7-8-4"
       d="m 94.400712,134.31226 a 3.0238094,1.4882812 56.736795 0 1 -2.902958,-1.71209 3.0238094,1.4882812 56.736795 0 1 -0.414076,-3.34469 3.0238094,1.4882812 56.736795 0 1 2.902958,1.71209 3.0238094,1.4882812 56.736795 0 1 0.414076,3.34469 z"
       style="opacity:1;fill:#7f5f2a;fill-opacity:1;stroke:none;stroke-width:0.28285146;stroke-miterlimit:4;stroke-dasharray:none;stroke-opacity:1" />
  </g>
</svg>
