<?xml version="1.0" encoding="UTF-8" standalone="no"?>
<!-- Created with Inkscape (http://www.inkscape.org/) -->

<svg
   xmlns:dc="http://purl.org/dc/elements/1.1/"
   xmlns:cc="http://creativecommons.org/ns#"
   xmlns:rdf="http://www.w3.org/1999/02/22-rdf-syntax-ns#"
   xmlns:svg="http://www.w3.org/2000/svg"
   xmlns="http://www.w3.org/2000/svg"
   xmlns:sodipodi="http://sodipodi.sourceforge.net/DTD/sodipodi-0.dtd"
   xmlns:inkscape="http://www.inkscape.org/namespaces/inkscape"
   width="14.541307mm"
   height="16.323799mm"
   viewBox="0 0 14.541307 16.323799"
   version="1.1"
   id="svg1828"
   inkscape:version="0.92.5 (2060ec1f9f, 2020-04-08)"
   sodipodi:docname="figure7.svg">
  <defs
     id="defs1822" />
  <sodipodi:namedview
     id="base"
     pagecolor="#ffffff"
     bordercolor="#666666"
     borderopacity="1.0"
     inkscape:pageopacity="0.0"
     inkscape:pageshadow="2"
     inkscape:zoom="3.959798"
     inkscape:cx="32.674161"
     inkscape:cy="-11.058068"
     inkscape:document-units="mm"
     inkscape:current-layer="layer1"
     showgrid="false"
     inkscape:window-width="1270"
     inkscape:window-height="1404"
     inkscape:window-x="3842"
     inkscape:window-y="4"
     inkscape:window-maximized="0" />
  <metadata
     id="metadata1825">
    <rdf:RDF>
      <cc:Work
         rdf:about="">
        <dc:format>image/svg+xml</dc:format>
        <dc:type
           rdf:resource="http://purl.org/dc/dcmitype/StillImage" />
        <dc:title></dc:title>
      </cc:Work>
    </rdf:RDF>
  </metadata>
  <g
     inkscape:label="Layer 1"
     inkscape:groupmode="layer"
     id="layer1"
     transform="translate(-82.687679,-139.91548)">
    <path
       style="opacity:1;fill:#7f5f2a;fill-opacity:1;stroke:none;stroke-width:0.05432624;stroke-miterlimit:4;stroke-dasharray:none;stroke-opacity:1"
       d="m 88.316579,143.60512 a 0.33072541,0.33072541 0 0 0 -0.0234,7.6e-4 0.33072541,0.33072541 0 0 0 -0.0328,0.004 0.33072541,0.33072541 0 0 0 -0.0323,0.007 0.33072541,0.33072541 0 0 0 -0.0314,0.0105 0.33072541,0.33072541 0 0 0 -0.0301,0.0134 0.33072541,0.33072541 0 0 0 -0.0287,0.0164 0.33072541,0.33072541 0 0 0 -0.0269,0.0192 0.33072541,0.33072541 0 0 0 -0.0249,0.0218 0.33072541,0.33072541 0 0 0 -0.0225,0.0242 0.33072541,0.33072541 0 0 0 -0.02,0.0263 0.33072541,0.33072541 0 0 0 -0.0173,0.0282 0.33072541,0.33072541 0 0 0 -0.0143,0.0298 0.33072541,0.33072541 0 0 0 -0.0114,0.031 0.33072541,0.33072541 0 0 0 -0.008,0.032 0.33072541,0.33072541 0 0 0 -0.005,0.0327 0.33072541,0.33072541 0 0 0 -0.002,0.0331 0.33072541,0.33072541 0 0 0 7.94e-4,0.0234 0.33072541,0.33072541 0 0 0 0.004,0.0328 0.33072541,0.33072541 0 0 0 0.007,0.0322 0.33072541,0.33072541 0 0 0 0.0105,0.0314 0.33072541,0.33072541 0 0 0 0.0134,0.0302 0.33072541,0.33072541 0 0 0 0.0165,0.0287 0.33072541,0.33072541 0 0 0 0.0192,0.0269 0.33072541,0.33072541 0 0 0 0.0217,0.0248 0.33072541,0.33072541 0 0 0 0.0243,0.0226 0.33072541,0.33072541 0 0 0 0.0262,0.02 0.33072541,0.33072541 0 0 0 0.0283,0.0172 0.33072541,0.33072541 0 0 0 0.0297,0.0145 0.33072541,0.33072541 0 0 0 0.031,0.0112 0.33072541,0.33072541 0 0 0 0.032,0.008 0.33072541,0.33072541 0 0 0 0.0327,0.005 0.33072541,0.33072541 0 0 0 0.0331,0.002 0.33072541,0.33072541 0 0 0 0.0234,-9e-4 0.33072541,0.33072541 0 0 0 0.0328,-0.004 0.33072541,0.33072541 0 0 0 0.0323,-0.007 0.33072541,0.33072541 0 0 0 0.0313,-0.0103 0.33072541,0.33072541 0 0 0 0.0302,-0.0136 0.33072541,0.33072541 0 0 0 0.0287,-0.0164 0.33072541,0.33072541 0 0 0 0.0269,-0.0192 0.33072541,0.33072541 0 0 0 0.0248,-0.0218 0.33072541,0.33072541 0 0 0 0.0226,-0.0242 0.33072541,0.33072541 0 0 0 0.02,-0.0264 0.33072541,0.33072541 0 0 0 0.0172,-0.0282 0.33072541,0.33072541 0 0 0 0.0145,-0.0297 0.33072541,0.33072541 0 0 0 0.0114,-0.0311 0.33072541,0.33072541 0 0 0 0.008,-0.032 0.33072541,0.33072541 0 0 0 0.005,-0.0327 0.33072541,0.33072541 0 0 0 0.002,-0.0329 0.33072541,0.33072541 0 0 0 -7.94e-4,-0.0234 0.33072541,0.33072541 0 0 0 -0.004,-0.0328 0.33072541,0.33072541 0 0 0 -0.007,-0.0323 0.33072541,0.33072541 0 0 0 -0.0105,-0.0314 0.33072541,0.33072541 0 0 0 -0.0136,-0.0302 0.33072541,0.33072541 0 0 0 -0.0164,-0.0287 0.33072541,0.33072541 0 0 0 -0.0193,-0.0269 0.33072541,0.33072541 0 0 0 -0.0218,-0.0248 0.33072541,0.33072541 0 0 0 -0.0242,-0.0225 0.33072541,0.33072541 0 0 0 -0.0264,-0.02 0.33072541,0.33072541 0 0 0 -0.0282,-0.0173 0.33072541,0.33072541 0 0 0 -0.0297,-0.0143 0.33072541,0.33072541 0 0 0 -0.0311,-0.0114 0.33072541,0.33072541 0 0 0 -0.032,-0.008 0.33072541,0.33072541 0 0 0 -0.0327,-0.005 0.33072541,0.33072541 0 0 0 -0.0329,-0.002 z"
       id="path905-0-6-6"
       inkscape:connector-curvature="0" />
    <path
       style="opacity:1;fill:#7f5f2a;fill-opacity:1;stroke:none;stroke-width:0.0543265;stroke-miterlimit:4;stroke-dasharray:none;stroke-opacity:1"
       d="m 91.611989,143.60511 a 0.33072697,0.33072697 0 0 0 -0.0234,7.7e-4 0.33072697,0.33072697 0 0 0 -0.0328,0.004 0.33072697,0.33072697 0 0 0 -0.0323,0.007 0.33072697,0.33072697 0 0 0 -0.0314,0.0105 0.33072697,0.33072697 0 0 0 -0.0301,0.0134 0.33072697,0.33072697 0 0 0 -0.0287,0.0164 0.33072697,0.33072697 0 0 0 -0.0269,0.0192 0.33072697,0.33072697 0 0 0 -0.0249,0.0218 0.33072697,0.33072697 0 0 0 -0.0225,0.0242 0.33072697,0.33072697 0 0 0 -0.02,0.0263 0.33072697,0.33072697 0 0 0 -0.0173,0.0282 0.33072697,0.33072697 0 0 0 -0.0143,0.0298 0.33072697,0.33072697 0 0 0 -0.0114,0.031 0.33072697,0.33072697 0 0 0 -0.008,0.032 0.33072697,0.33072697 0 0 0 -0.005,0.0327 0.33072697,0.33072697 0 0 0 -0.002,0.0331 0.33072697,0.33072697 0 0 0 7.94e-4,0.0234 0.33072697,0.33072697 0 0 0 0.004,0.0328 0.33072697,0.33072697 0 0 0 0.007,0.0322 0.33072697,0.33072697 0 0 0 0.0105,0.0314 0.33072697,0.33072697 0 0 0 0.0136,0.0302 0.33072697,0.33072697 0 0 0 0.0164,0.0287 0.33072697,0.33072697 0 0 0 0.0192,0.0269 0.33072697,0.33072697 0 0 0 0.0218,0.0248 0.33072697,0.33072697 0 0 0 0.0242,0.0226 0.33072697,0.33072697 0 0 0 0.0263,0.02 0.33072697,0.33072697 0 0 0 0.0282,0.0172 0.33072697,0.33072697 0 0 0 0.0297,0.0145 0.33072697,0.33072697 0 0 0 0.031,0.0112 0.33072697,0.33072697 0 0 0 0.032,0.008 0.33072697,0.33072697 0 0 0 0.0327,0.005 0.33072697,0.33072697 0 0 0 0.0331,0.002 0.33072697,0.33072697 0 0 0 0.0234,-9e-4 0.33072697,0.33072697 0 0 0 0.0328,-0.004 0.33072697,0.33072697 0 0 0 0.0323,-0.007 0.33072697,0.33072697 0 0 0 0.0314,-0.0103 0.33072697,0.33072697 0 0 0 0.0301,-0.0136 0.33072697,0.33072697 0 0 0 0.0287,-0.0164 0.33072697,0.33072697 0 0 0 0.0269,-0.0192 0.33072697,0.33072697 0 0 0 0.0249,-0.0218 0.33072697,0.33072697 0 0 0 0.0225,-0.0242 0.33072697,0.33072697 0 0 0 0.02,-0.0264 0.33072697,0.33072697 0 0 0 0.0173,-0.0282 0.33072697,0.33072697 0 0 0 0.0143,-0.0297 0.33072697,0.33072697 0 0 0 0.0114,-0.0311 0.33072697,0.33072697 0 0 0 0.008,-0.032 0.33072697,0.33072697 0 0 0 0.005,-0.0327 0.33072697,0.33072697 0 0 0 0.002,-0.0329 0.33072697,0.33072697 0 0 0 -7.94e-4,-0.0234 0.33072697,0.33072697 0 0 0 -0.004,-0.0328 0.33072697,0.33072697 0 0 0 -0.007,-0.0323 0.33072697,0.33072697 0 0 0 -0.0105,-0.0314 0.33072697,0.33072697 0 0 0 -0.0136,-0.0302 0.33072697,0.33072697 0 0 0 -0.0164,-0.0287 0.33072697,0.33072697 0 0 0 -0.0192,-0.0269 0.33072697,0.33072697 0 0 0 -0.0218,-0.0248 0.33072697,0.33072697 0 0 0 -0.0242,-0.0225 0.33072697,0.33072697 0 0 0 -0.0263,-0.02 0.33072697,0.33072697 0 0 0 -0.0282,-0.0173 0.33072697,0.33072697 0 0 0 -0.0297,-0.0143 0.33072697,0.33072697 0 0 0 -0.031,-0.0114 0.33072697,0.33072697 0 0 0 -0.032,-0.008 0.33072697,0.33072697 0 0 0 -0.0327,-0.005 0.33072697,0.33072697 0 0 0 -0.0331,-0.002 z"
       id="path908-6-3-6"
       inkscape:connector-curvature="0" />
    <path
       style="opacity:1;fill:#7f5f2a;fill-opacity:1;stroke:none;stroke-width:0.2173074;stroke-miterlimit:4;stroke-dasharray:none;stroke-opacity:1"
       d="m 89.911309,139.91548 a 4.4175963,4.2758556 0 0 0 -4.41782,4.27571 4.4175963,4.2758556 0 0 0 4.41782,4.27571 4.4175963,4.2758556 0 0 0 4.4173,-4.27571 4.4175963,4.2758556 0 0 0 -4.4173,-4.27571 z m -1.59474,1.82883 a 1.3229166,1.3229166 0 0 1 0.13178,0.006 1.3229166,1.3229166 0 0 1 0.13074,0.0202 1.3229166,1.3229166 0 0 1 0.12815,0.0326 1.3229166,1.3229166 0 0 1 0.12454,0.0455 1.3229166,1.3229166 0 0 1 0.11886,0.0574 1.3229166,1.3229166 0 0 1 0.11266,0.0693 1.3229166,1.3229166 0 0 1 0.10541,0.0801 1.3229166,1.3229166 0 0 1 0.0966,0.0899 1.3229166,1.3229166 0 0 1 0.0873,0.0992 1.3229166,1.3229166 0 0 1 0.077,0.10748 1.3229166,1.3229166 0 0 1 0.0656,0.11472 1.3229166,1.3229166 0 0 1 0.0543,0.12093 1.3229166,1.3229166 0 0 1 0.0419,0.12557 1.3229166,1.3229166 0 0 1 0.0289,0.12919 1.3229166,1.3229166 0 0 1 0.0155,0.13126 1.3229166,1.3229166 0 0 1 0.004,0.0935 1.3229166,1.3229166 0 0 1 -0.007,0.13178 1.3229166,1.3229166 0 0 1 -0.0196,0.13074 1.3229166,1.3229166 0 0 1 -0.0326,0.12815 1.3229166,1.3229166 0 0 1 -0.0455,0.12455 1.3229166,1.3229166 0 0 1 -0.0579,0.11885 1.3229166,1.3229166 0 0 1 -0.0687,0.11266 1.3229166,1.3229166 0 0 1 -0.0801,0.10542 1.3229166,1.3229166 0 0 1 -0.0904,0.0966 1.3229166,1.3229166 0 0 1 -0.0992,0.0873 1.3229166,1.3229166 0 0 1 -0.10748,0.077 1.3229166,1.3229166 0 0 1 -0.11472,0.0656 1.3229166,1.3229166 0 0 1 -0.12093,0.0543 1.3229166,1.3229166 0 0 1 -0.12506,0.0413 1.3229166,1.3229166 0 0 1 -0.12919,0.0289 1.3229166,1.3229166 0 0 1 -0.13125,0.016 1.3229166,1.3229166 0 0 1 -0.0935,0.004 1.3229166,1.3229166 0 0 1 -0.13229,-0.007 1.3229166,1.3229166 0 0 1 -0.13074,-0.0196 1.3229166,1.3229166 0 0 1 -0.12816,-0.0331 1.3229166,1.3229166 0 0 1 -0.12402,-0.045 1.3229166,1.3229166 0 0 1 -0.11886,-0.0579 1.3229166,1.3229166 0 0 1 -0.11317,-0.0687 1.3229166,1.3229166 0 0 1 -0.10491,-0.0801 1.3229166,1.3229166 0 0 1 -0.0971,-0.0904 1.3229166,1.3229166 0 0 1 -0.0868,-0.0992 1.3229166,1.3229166 0 0 1 -0.077,-0.10749 1.3229166,1.3229166 0 0 1 -0.0661,-0.11472 1.3229166,1.3229166 0 0 1 -0.0537,-0.12092 1.3229166,1.3229166 0 0 1 -0.0419,-0.12558 1.3229166,1.3229166 0 0 1 -0.0289,-0.12867 1.3229166,1.3229166 0 0 1 -0.016,-0.13126 1.3229166,1.3229166 0 0 1 -0.003,-0.0935 1.3229166,1.3229166 0 0 1 0.007,-0.13229 1.3229166,1.3229166 0 0 1 0.0196,-0.13074 1.3229166,1.3229166 0 0 1 0.0326,-0.12816 1.3229166,1.3229166 0 0 1 0.0455,-0.12403 1.3229166,1.3229166 0 0 1 0.0574,-0.11937 1.3229166,1.3229166 0 0 1 0.0692,-0.11265 1.3229166,1.3229166 0 0 1 0.0801,-0.10542 1.3229166,1.3229166 0 0 1 0.0899,-0.0966 1.3229166,1.3229166 0 0 1 0.0997,-0.0873 1.3229166,1.3229166 0 0 1 0.10749,-0.077 1.3229166,1.3229166 0 0 1 0.11472,-0.0656 1.3229166,1.3229166 0 0 1 0.12041,-0.0537 1.3229166,1.3229166 0 0 1 0.12557,-0.0419 1.3229166,1.3229166 0 0 1 0.12919,-0.0289 1.3229166,1.3229166 0 0 1 0.13126,-0.016 1.3229166,1.3229166 0 0 1 0.0935,-0.003 z m 3.29541,0 a 1.3229166,1.3229166 0 0 1 0.13229,0.006 1.3229166,1.3229166 0 0 1 0.13074,0.0202 1.3229166,1.3229166 0 0 1 0.12816,0.0326 1.3229166,1.3229166 0 0 1 0.12402,0.0455 1.3229166,1.3229166 0 0 1 0.11885,0.0574 1.3229166,1.3229166 0 0 1 0.11266,0.0693 1.3229166,1.3229166 0 0 1 0.10542,0.0801 1.3229166,1.3229166 0 0 1 0.0966,0.0899 1.3229166,1.3229166 0 0 1 0.0873,0.0992 1.3229166,1.3229166 0 0 1 0.077,0.10748 1.3229166,1.3229166 0 0 1 0.0656,0.11472 1.3229166,1.3229166 0 0 1 0.0543,0.12093 1.3229166,1.3229166 0 0 1 0.0419,0.12557 1.3229166,1.3229166 0 0 1 0.0289,0.12919 1.3229166,1.3229166 0 0 1 0.016,0.13126 1.3229166,1.3229166 0 0 1 0.003,0.0935 1.3229166,1.3229166 0 0 1 -0.007,0.13178 1.3229166,1.3229166 0 0 1 -0.0196,0.13074 1.3229166,1.3229166 0 0 1 -0.0326,0.12815 1.3229166,1.3229166 0 0 1 -0.0455,0.12455 1.3229166,1.3229166 0 0 1 -0.0574,0.11885 1.3229166,1.3229166 0 0 1 -0.0692,0.11266 1.3229166,1.3229166 0 0 1 -0.0801,0.10542 1.3229166,1.3229166 0 0 1 -0.0899,0.0966 1.3229166,1.3229166 0 0 1 -0.0997,0.0873 1.3229166,1.3229166 0 0 1 -0.10749,0.077 1.3229166,1.3229166 0 0 1 -0.11472,0.0656 1.3229166,1.3229166 0 0 1 -0.1204,0.0543 1.3229166,1.3229166 0 0 1 -0.12558,0.0413 1.3229166,1.3229166 0 0 1 -0.12919,0.0289 1.3229166,1.3229166 0 0 1 -0.13126,0.016 1.3229166,1.3229166 0 0 1 -0.0935,0.004 1.3229166,1.3229166 0 0 1 -0.13229,-0.007 1.3229166,1.3229166 0 0 1 -0.130739,-0.0196 1.3229166,1.3229166 0 0 1 -0.12816,-0.0331 1.3229166,1.3229166 0 0 1 -0.12402,-0.045 1.3229166,1.3229166 0 0 1 -0.11885,-0.0579 1.3229166,1.3229166 0 0 1 -0.112661,-0.0687 1.3229166,1.3229166 0 0 1 -0.10542,-0.0801 1.3229166,1.3229166 0 0 1 -0.0966,-0.0904 1.3229166,1.3229166 0 0 1 -0.0873,-0.0992 1.3229166,1.3229166 0 0 1 -0.077,-0.10749 1.3229166,1.3229166 0 0 1 -0.0656,-0.11472 1.3229166,1.3229166 0 0 1 -0.0543,-0.12092 1.3229166,1.3229166 0 0 1 -0.0419,-0.12558 1.3229166,1.3229166 0 0 1 -0.0289,-0.12867 1.3229166,1.3229166 0 0 1 -0.016,-0.13126 1.3229166,1.3229166 0 0 1 -0.003,-0.0935 1.3229166,1.3229166 0 0 1 0.007,-0.13229 1.3229166,1.3229166 0 0 1 0.0196,-0.13074 1.3229166,1.3229166 0 0 1 0.0326,-0.12816 1.3229166,1.3229166 0 0 1 0.0455,-0.12402 1.3229166,1.3229166 0 0 1 0.0574,-0.11938 1.3229166,1.3229166 0 0 1 0.0692,-0.11265 1.3229166,1.3229166 0 0 1 0.0801,-0.10542 1.3229166,1.3229166 0 0 1 0.0899,-0.0966 1.3229166,1.3229166 0 0 1 0.0997,-0.0873 1.3229166,1.3229166 0 0 1 0.10749,-0.077 1.3229166,1.3229166 0 0 1 0.11472,-0.0656 1.3229166,1.3229166 0 0 1 0.12041,-0.0537 1.3229166,1.3229166 0 0 1 0.12557,-0.0419 1.3229166,1.3229166 0 0 1 0.12919,-0.0289 1.3229166,1.3229166 0 0 1 0.13126,-0.016 1.3229166,1.3229166 0 0 1 0.0935,-0.003 z"
       id="path17-2-20-4"
       inkscape:connector-curvature="0" />
    <path
       inkscape:connector-curvature="0"
       style="opacity:1;fill:#7f5f2a;fill-opacity:1;stroke:none;stroke-width:0.37006992;stroke-miterlimit:4;stroke-dasharray:none;stroke-opacity:1"
       d="m 87.347149,145.60871 h 5.22235 c 1.48499,0 2.68049,2.37061 2.68049,5.31528 0,2.94467 -1.1955,5.31529 -2.68049,5.31529 h -5.22235 c -1.48499,0 -2.68049,-2.37062 -2.68049,-5.31529 0,-2.94467 1.1955,-5.31528 2.68049,-5.31528 z"
       id="rect19-6-6-9" />
    <path
       inkscape:connector-curvature="0"
       style="opacity:1;fill:#7f5f2a;fill-opacity:1;stroke:none;stroke-width:0.28285146;stroke-miterlimit:4;stroke-dasharray:none;stroke-opacity:1"
       d="m 86.419674,147.20468 a 1.4882812,3.0238094 33.263205 0 0 -2.902957,1.71208 1.4882812,3.0238094 33.263205 0 0 -0.414077,3.34469 1.4882812,3.0238094 33.263205 0 0 2.902957,-1.71209 1.4882812,3.0238094 33.263205 0 0 0.414077,-3.34468 z"
       id="path24-3-1-1-5" />
    <path
       inkscape:connector-curvature="0"
       style="opacity:1;fill:#7f5f2a;fill-opacity:1;stroke:none;stroke-width:0.28285146;stroke-miterlimit:4;stroke-dasharray:none;stroke-opacity:1"
       d="m 96.814025,152.26145 a 3.0238094,1.4882812 56.736795 0 1 -2.902958,-1.71209 3.0238094,1.4882812 56.736795 0 1 -0.414076,-3.34469 3.0238094,1.4882812 56.736795 0 1 2.902958,1.71209 3.0238094,1.4882812 56.736795 0 1 0.414076,3.34469 z"
       id="path24-3-7-8-5-0" />
  </g>
</svg>
