<?xml version="1.0" encoding="UTF-8" standalone="no"?>
<svg
   xmlns:dc="http://purl.org/dc/elements/1.1/"
   xmlns:cc="http://creativecommons.org/ns#"
   xmlns:rdf="http://www.w3.org/1999/02/22-rdf-syntax-ns#"
   xmlns:svg="http://www.w3.org/2000/svg"
   xmlns="http://www.w3.org/2000/svg"
   id="svg1389"
   version="1.1"
   viewBox="0 0 14.541291 16.323811"
   height="16.323811mm"
   width="14.541291mm">
  <defs
     id="defs1383" />
  <metadata
     id="metadata1386">
    <rdf:RDF>
      <cc:Work
         rdf:about="">
        <dc:format>image/svg+xml</dc:format>
        <dc:type
           rdf:resource="http://purl.org/dc/dcmitype/StillImage" />
        <dc:title></dc:title>
      </cc:Work>
    </rdf:RDF>
  </metadata>
  <g
     transform="translate(-82.020148,-123.4493)"
     id="layer1">
    <path
       id="path905-0-3-2"
       d="m 87.649027,125.73578 a 0.86527476,0.86527476 0 0 0 -0.06117,0.002 0.86527476,0.86527476 0 0 0 -0.08584,0.0105 0.86527476,0.86527476 0 0 0 -0.08451,0.0188 0.86527476,0.86527476 0 0 0 -0.08213,0.0274 0.86527476,0.86527476 0 0 0 -0.07875,0.0352 0.86527476,0.86527476 0 0 0 -0.07503,0.0429 0.86527476,0.86527476 0 0 0 -0.0703,0.0504 0.86527476,0.86527476 0 0 0 -0.06522,0.0571 0.86527476,0.86527476 0 0 0 -0.05881,0.0632 0.86527476,0.86527476 0 0 0 -0.05238,0.069 0.86527476,0.86527476 0 0 0 -0.04529,0.0737 0.86527476,0.86527476 0 0 0 -0.03752,0.0781 0.86527476,0.86527476 0 0 0 -0.02975,0.0811 0.86527476,0.86527476 0 0 0 -0.02119,0.0838 0.86527476,0.86527476 0 0 0 -0.01282,0.0855 0.86527476,0.86527476 0 0 0 -0.0044,0.0865 0.86527476,0.86527476 0 0 0 0.002,0.0612 0.86527476,0.86527476 0 0 0 0.01046,0.0858 0.86527476,0.86527476 0 0 0 0.01884,0.0842 0.86527476,0.86527476 0 0 0 0.02737,0.0821 0.86527476,0.86527476 0 0 0 0.03516,0.0791 0.86527476,0.86527476 0 0 0 0.04327,0.075 0.86527476,0.86527476 0 0 0 0.05036,0.0703 0.86527476,0.86527476 0 0 0 0.05677,0.0649 0.86527476,0.86527476 0 0 0 0.06355,0.0591 0.86527476,0.86527476 0 0 0 0.06863,0.0524 0.86527476,0.86527476 0 0 0 0.07401,0.045 0.86527476,0.86527476 0 0 0 0.07773,0.0379 0.86527476,0.86527476 0 0 0 0.08113,0.0294 0.86527476,0.86527476 0 0 0 0.08383,0.0217 0.86527476,0.86527476 0 0 0 0.08553,0.0128 0.86527476,0.86527476 0 0 0 0.08652,0.005 0.86527476,0.86527476 0 0 0 0.06117,-0.002 0.86527476,0.86527476 0 0 0 0.08584,-0.0105 0.86527476,0.86527476 0 0 0 0.08451,-0.0188 0.86527476,0.86527476 0 0 0 0.08179,-0.027 0.86527476,0.86527476 0 0 0 0.07909,-0.0355 0.86527476,0.86527476 0 0 0 0.07503,-0.0429 0.86527476,0.86527476 0 0 0 0.0703,-0.0504 0.86527476,0.86527476 0 0 0 0.06491,-0.0571 0.86527476,0.86527476 0 0 0 0.05915,-0.0632 0.86527476,0.86527476 0 0 0 0.05238,-0.0689 0.86527476,0.86527476 0 0 0 0.04495,-0.0737 0.86527476,0.86527476 0 0 0 0.03786,-0.0777 0.86527476,0.86527476 0 0 0 0.02975,-0.0815 0.86527476,0.86527476 0 0 0 0.02119,-0.0838 0.86527476,0.86527476 0 0 0 0.01282,-0.0855 0.86527476,0.86527476 0 0 0 0.0044,-0.0862 0.86527476,0.86527476 0 0 0 -0.0024,-0.0612 0.86527476,0.86527476 0 0 0 -0.0102,-0.0858 0.86527476,0.86527476 0 0 0 -0.01884,-0.0845 0.86527476,0.86527476 0 0 0 -0.02737,-0.0821 0.86527476,0.86527476 0 0 0 -0.0355,-0.0791 0.86527476,0.86527476 0 0 0 -0.04293,-0.075 0.86527476,0.86527476 0 0 0 -0.05036,-0.0703 0.86527476,0.86527476 0 0 0 -0.05711,-0.0649 0.86527476,0.86527476 0 0 0 -0.06321,-0.0588 0.86527476,0.86527476 0 0 0 -0.06894,-0.0524 0.86527476,0.86527476 0 0 0 -0.07367,-0.0453 0.86527476,0.86527476 0 0 0 -0.07773,-0.0375 0.86527476,0.86527476 0 0 0 -0.08147,-0.0297 0.86527476,0.86527476 0 0 0 -0.08383,-0.0212 0.86527476,0.86527476 0 0 0 -0.08553,-0.0131 0.86527476,0.86527476 0 0 0 -0.08618,-0.004 z"
       style="opacity:1;fill:#7f5f2a;fill-opacity:1;stroke:none;stroke-width:0.14213338;stroke-miterlimit:4;stroke-dasharray:none;stroke-opacity:1" />
    <path
       id="path908-6-1-0"
       d="m 90.944446,125.73577 a 0.86527616,0.86527616 0 0 0 -0.06116,0.002 0.86527616,0.86527616 0 0 0 -0.08584,0.0105 0.86527616,0.86527616 0 0 0 -0.08451,0.0188 0.86527616,0.86527616 0 0 0 -0.08212,0.0274 0.86527616,0.86527616 0 0 0 -0.07875,0.0352 0.86527616,0.86527616 0 0 0 -0.07503,0.0429 0.86527616,0.86527616 0 0 0 -0.0703,0.0504 0.86527616,0.86527616 0 0 0 -0.06523,0.0571 0.86527616,0.86527616 0 0 0 -0.05881,0.0632 0.86527616,0.86527616 0 0 0 -0.05238,0.069 0.86527616,0.86527616 0 0 0 -0.04529,0.0737 0.86527616,0.86527616 0 0 0 -0.03752,0.0781 0.86527616,0.86527616 0 0 0 -0.02975,0.0811 0.86527616,0.86527616 0 0 0 -0.0212,0.0838 0.86527616,0.86527616 0 0 0 -0.01282,0.0855 0.86527616,0.86527616 0 0 0 -0.0044,0.0865 0.86527616,0.86527616 0 0 0 0.0021,0.0612 0.86527616,0.86527616 0 0 0 0.01051,0.0858 0.86527616,0.86527616 0 0 0 0.01883,0.0842 0.86527616,0.86527616 0 0 0 0.02736,0.0821 0.86527616,0.86527616 0 0 0 0.03548,0.0791 0.86527616,0.86527616 0 0 0 0.04294,0.075 0.86527616,0.86527616 0 0 0 0.05036,0.0703 0.86527616,0.86527616 0 0 0 0.05711,0.0649 0.86527616,0.86527616 0 0 0 0.06321,0.0592 0.86527616,0.86527616 0 0 0 0.06894,0.0524 0.86527616,0.86527616 0 0 0 0.07368,0.045 0.86527616,0.86527616 0 0 0 0.07773,0.0379 0.86527616,0.86527616 0 0 0 0.08113,0.0294 0.86527616,0.86527616 0 0 0 0.08382,0.0217 0.86527616,0.86527616 0 0 0 0.08553,0.0128 0.86527616,0.86527616 0 0 0 0.08652,0.004 0.86527616,0.86527616 0 0 0 0.0612,-0.002 0.86527616,0.86527616 0 0 0 0.08584,-0.0105 0.86527616,0.86527616 0 0 0 0.08451,-0.0188 0.86527616,0.86527616 0 0 0 0.08212,-0.0271 0.86527616,0.86527616 0 0 0 0.07875,-0.0355 0.86527616,0.86527616 0 0 0 0.07504,-0.0429 0.86527616,0.86527616 0 0 0 0.0703,-0.0504 0.86527616,0.86527616 0 0 0 0.06523,-0.0571 0.86527616,0.86527616 0 0 0 0.05881,-0.0632 0.86527616,0.86527616 0 0 0 0.05238,-0.069 0.86527616,0.86527616 0 0 0 0.04529,-0.0737 0.86527616,0.86527616 0 0 0 0.03752,-0.0777 0.86527616,0.86527616 0 0 0 0.02975,-0.0815 0.86527616,0.86527616 0 0 0 0.0212,-0.0838 0.86527616,0.86527616 0 0 0 0.01282,-0.0855 0.86527616,0.86527616 0 0 0 0.0044,-0.0862 0.86527616,0.86527616 0 0 0 -0.0021,-0.0612 0.86527616,0.86527616 0 0 0 -0.01051,-0.0858 0.86527616,0.86527616 0 0 0 -0.01883,-0.0845 0.86527616,0.86527616 0 0 0 -0.0274,-0.0821 0.86527616,0.86527616 0 0 0 -0.03548,-0.0791 0.86527616,0.86527616 0 0 0 -0.04294,-0.075 0.86527616,0.86527616 0 0 0 -0.05036,-0.0703 0.86527616,0.86527616 0 0 0 -0.05711,-0.0649 0.86527616,0.86527616 0 0 0 -0.06321,-0.0588 0.86527616,0.86527616 0 0 0 -0.06893,-0.0524 0.86527616,0.86527616 0 0 0 -0.07368,-0.0453 0.86527616,0.86527616 0 0 0 -0.07773,-0.0375 0.86527616,0.86527616 0 0 0 -0.08114,-0.0298 0.86527616,0.86527616 0 0 0 -0.08382,-0.0212 0.86527616,0.86527616 0 0 0 -0.0855,-0.0131 0.86527616,0.86527616 0 0 0 -0.08652,-0.004 z"
       style="opacity:1;fill:#7f5f2a;fill-opacity:1;stroke:none;stroke-width:0.14213364;stroke-miterlimit:4;stroke-dasharray:none;stroke-opacity:1" />
    <path
       id="path17-2-9-6"
       d="m 89.243769,123.4493 a 4.4175963,4.2758556 0 0 0 -4.41782,4.27571 4.4175963,4.2758556 0 0 0 4.41782,4.27571 4.4175963,4.2758556 0 0 0 4.417294,-4.27571 4.4175963,4.2758556 0 0 0 -4.417294,-4.27571 z m -1.594735,1.82883 a 1.3229166,1.3229166 0 0 1 0.131776,0.006 1.3229166,1.3229166 0 0 1 0.13074,0.0202 1.3229166,1.3229166 0 0 1 0.128156,0.0326 1.3229166,1.3229166 0 0 1 0.124542,0.0455 1.3229166,1.3229166 0 0 1 0.118856,0.0574 1.3229166,1.3229166 0 0 1 0.112655,0.0693 1.3229166,1.3229166 0 0 1 0.105418,0.0801 1.3229166,1.3229166 0 0 1 0.09664,0.0899 1.3229166,1.3229166 0 0 1 0.08733,0.0992 1.3229166,1.3229166 0 0 1 0.077,0.10749 1.3229166,1.3229166 0 0 1 0.06563,0.11472 1.3229166,1.3229166 0 0 1 0.05426,0.12092 1.3229166,1.3229166 0 0 1 0.04186,0.12557 1.3229166,1.3229166 0 0 1 0.02894,0.12919 1.3229166,1.3229166 0 0 1 0.0155,0.13126 1.3229166,1.3229166 0 0 1 0.0036,0.0935 1.3229166,1.3229166 0 0 1 -0.0067,0.13178 1.3229166,1.3229166 0 0 1 -0.01964,0.13074 1.3229166,1.3229166 0 0 1 -0.03255,0.12816 1.3229166,1.3229166 0 0 1 -0.04548,0.12454 1.3229166,1.3229166 0 0 1 -0.05788,0.11885 1.3229166,1.3229166 0 0 1 -0.06873,0.11266 1.3229166,1.3229166 0 0 1 -0.0801,0.10542 1.3229166,1.3229166 0 0 1 -0.09043,0.0966 1.3229166,1.3229166 0 0 1 -0.09922,0.0873 1.3229166,1.3229166 0 0 1 -0.107487,0.077 1.3229166,1.3229166 0 0 1 -0.11472,0.0656 1.3229166,1.3229166 0 0 1 -0.120923,0.0543 1.3229166,1.3229166 0 0 1 -0.125058,0.0413 1.3229166,1.3229166 0 0 1 -0.129191,0.0289 1.3229166,1.3229166 0 0 1 -0.131258,0.016 1.3229166,1.3229166 0 0 1 -0.09353,0.004 1.3229166,1.3229166 0 0 1 -0.13229,-0.007 1.3229166,1.3229166 0 0 1 -0.130741,-0.0196 1.3229166,1.3229166 0 0 1 -0.128156,-0.0331 1.3229166,1.3229166 0 0 1 -0.124024,-0.045 1.3229166,1.3229166 0 0 1 -0.118856,-0.0579 1.3229166,1.3229166 0 0 1 -0.113173,-0.0687 1.3229166,1.3229166 0 0 1 -0.104902,-0.0801 1.3229166,1.3229166 0 0 1 -0.09715,-0.0904 1.3229166,1.3229166 0 0 1 -0.08682,-0.0992 1.3229166,1.3229166 0 0 1 -0.077,-0.10749 1.3229166,1.3229166 0 0 1 -0.06615,-0.11472 1.3229166,1.3229166 0 0 1 -0.05374,-0.12092 1.3229166,1.3229166 0 0 1 -0.04186,-0.12558 1.3229166,1.3229166 0 0 1 -0.02894,-0.12867 1.3229166,1.3229166 0 0 1 -0.01602,-0.13126 1.3229166,1.3229166 0 0 1 -0.0031,-0.0935 1.3229166,1.3229166 0 0 1 0.0067,-0.13229 1.3229166,1.3229166 0 0 1 0.01964,-0.13074 1.3229166,1.3229166 0 0 1 0.03256,-0.12816 1.3229166,1.3229166 0 0 1 0.04547,-0.12402 1.3229166,1.3229166 0 0 1 0.05736,-0.11937 1.3229166,1.3229166 0 0 1 0.06925,-0.11266 1.3229166,1.3229166 0 0 1 0.0801,-0.10542 1.3229166,1.3229166 0 0 1 0.08992,-0.0966 1.3229166,1.3229166 0 0 1 0.09973,-0.0873 1.3229166,1.3229166 0 0 1 0.107487,-0.077 1.3229166,1.3229166 0 0 1 0.114721,-0.0656 1.3229166,1.3229166 0 0 1 0.120406,-0.0537 1.3229166,1.3229166 0 0 1 0.125575,-0.0419 1.3229166,1.3229166 0 0 1 0.12919,-0.0289 1.3229166,1.3229166 0 0 1 0.13126,-0.016 1.3229166,1.3229166 0 0 1 0.09353,-0.003 z m 3.295406,0 a 1.3229166,1.3229166 0 0 1 0.132291,0.006 1.3229166,1.3229166 0 0 1 0.130741,0.0202 1.3229166,1.3229166 0 0 1 0.128159,0.0326 1.3229166,1.3229166 0 0 1 0.124025,0.0455 1.3229166,1.3229166 0 0 1 0.118852,0.0574 1.3229166,1.3229166 0 0 1 0.112657,0.0693 1.3229166,1.3229166 0 0 1 0.105418,0.0801 1.3229166,1.3229166 0 0 1 0.09664,0.0899 1.3229166,1.3229166 0 0 1 0.08733,0.0992 1.3229166,1.3229166 0 0 1 0.077,0.10749 1.3229166,1.3229166 0 0 1 0.06563,0.11472 1.3229166,1.3229166 0 0 1 0.05426,0.12092 1.3229166,1.3229166 0 0 1 0.04186,0.12557 1.3229166,1.3229166 0 0 1 0.0289,0.12919 1.3229166,1.3229166 0 0 1 0.016,0.13126 1.3229166,1.3229166 0 0 1 0.003,0.0935 1.3229166,1.3229166 0 0 1 -0.007,0.13178 1.3229166,1.3229166 0 0 1 -0.0196,0.13074 1.3229166,1.3229166 0 0 1 -0.03256,0.12816 1.3229166,1.3229166 0 0 1 -0.04547,0.12454 1.3229166,1.3229166 0 0 1 -0.05736,0.11885 1.3229166,1.3229166 0 0 1 -0.06925,0.11266 1.3229166,1.3229166 0 0 1 -0.0801,0.10542 1.3229166,1.3229166 0 0 1 -0.08992,0.0966 1.3229166,1.3229166 0 0 1 -0.09974,0.0873 1.3229166,1.3229166 0 0 1 -0.107487,0.077 1.3229166,1.3229166 0 0 1 -0.114721,0.0656 1.3229166,1.3229166 0 0 1 -0.120406,0.0543 1.3229166,1.3229166 0 0 1 -0.125573,0.0413 1.3229166,1.3229166 0 0 1 -0.129191,0.0289 1.3229166,1.3229166 0 0 1 -0.131258,0.016 1.3229166,1.3229166 0 0 1 -0.09354,0.004 1.3229166,1.3229166 0 0 1 -0.132289,-0.007 1.3229166,1.3229166 0 0 1 -0.130741,-0.0196 1.3229166,1.3229166 0 0 1 -0.128158,-0.0331 1.3229166,1.3229166 0 0 1 -0.124025,-0.045 1.3229166,1.3229166 0 0 1 -0.118853,-0.0579 1.3229166,1.3229166 0 0 1 -0.112657,-0.0687 1.3229166,1.3229166 0 0 1 -0.105418,-0.0801 1.3229166,1.3229166 0 0 1 -0.09664,-0.0904 1.3229166,1.3229166 0 0 1 -0.08733,-0.0992 1.3229166,1.3229166 0 0 1 -0.077,-0.10749 1.3229166,1.3229166 0 0 1 -0.06563,-0.11472 1.3229166,1.3229166 0 0 1 -0.05426,-0.12092 1.3229166,1.3229166 0 0 1 -0.04186,-0.12558 1.3229166,1.3229166 0 0 1 -0.02894,-0.12867 1.3229166,1.3229166 0 0 1 -0.01602,-0.13126 1.3229166,1.3229166 0 0 1 -0.0031,-0.0935 1.3229166,1.3229166 0 0 1 0.0067,-0.13229 1.3229166,1.3229166 0 0 1 0.01964,-0.13074 1.3229166,1.3229166 0 0 1 0.03256,-0.12816 1.3229166,1.3229166 0 0 1 0.04547,-0.12402 1.3229166,1.3229166 0 0 1 0.05736,-0.11937 1.3229166,1.3229166 0 0 1 0.06925,-0.11266 1.3229166,1.3229166 0 0 1 0.0801,-0.10542 1.3229166,1.3229166 0 0 1 0.08992,-0.0966 1.3229166,1.3229166 0 0 1 0.09974,-0.0873 1.3229166,1.3229166 0 0 1 0.107487,-0.077 1.3229166,1.3229166 0 0 1 0.114722,-0.0656 1.3229166,1.3229166 0 0 1 0.120405,-0.0537 1.3229166,1.3229166 0 0 1 0.125575,-0.0419 1.3229166,1.3229166 0 0 1 0.129191,-0.0289 1.3229166,1.3229166 0 0 1 0.131256,-0.016 1.3229166,1.3229166 0 0 1 0.09353,-0.003 z"
       style="opacity:1;fill:#7f5f2a;fill-opacity:1;stroke:none;stroke-width:0.2173074;stroke-miterlimit:4;stroke-dasharray:none;stroke-opacity:1" />
    <path
       id="rect19-6-4-8"
       d="m 86.679618,129.14253 h 5.222347 c 1.484988,0 2.680488,2.37062 2.680488,5.31529 0,2.94467 -1.1955,5.31529 -2.680488,5.31529 h -5.222347 c -1.484993,0 -2.680493,-2.37062 -2.680493,-5.31529 0,-2.94467 1.1955,-5.31529 2.680493,-5.31529 z"
       style="opacity:1;fill:#7f5f2a;fill-opacity:1;stroke:none;stroke-width:0.37006992;stroke-miterlimit:4;stroke-dasharray:none;stroke-opacity:1" />
    <path
       id="path24-3-1-7-9"
       d="m 85.752143,130.7385 a 1.4882812,3.0238094 33.263205 0 0 -2.902957,1.71209 1.4882812,3.0238094 33.263205 0 0 -0.414077,3.34469 1.4882812,3.0238094 33.263205 0 0 2.902959,-1.71209 1.4882812,3.0238094 33.263205 0 0 0.414075,-3.34469 z"
       style="opacity:1;fill:#7f5f2a;fill-opacity:1;stroke:none;stroke-width:0.28285146;stroke-miterlimit:4;stroke-dasharray:none;stroke-opacity:1" />
    <path
       id="path24-3-7-8-8-2"
       d="m 96.146473,135.79527 a 3.0238094,1.4882812 56.736795 0 1 -2.90295,-1.71208 3.0238094,1.4882812 56.736795 0 1 -0.41408,-3.34469 3.0238094,1.4882812 56.736795 0 1 2.90296,1.71208 3.0238094,1.4882812 56.736795 0 1 0.41407,3.34469 z"
       style="opacity:1;fill:#7f5f2a;fill-opacity:1;stroke:none;stroke-width:0.28285146;stroke-miterlimit:4;stroke-dasharray:none;stroke-opacity:1" />
  </g>
</svg>
