<?xml version="1.0" encoding="UTF-8" standalone="no"?>
<svg
   xmlns:dc="http://purl.org/dc/elements/1.1/"
   xmlns:cc="http://creativecommons.org/ns#"
   xmlns:rdf="http://www.w3.org/1999/02/22-rdf-syntax-ns#"
   xmlns:svg="http://www.w3.org/2000/svg"
   xmlns="http://www.w3.org/2000/svg"
   id="svg8"
   version="1.1"
   viewBox="0 0 14.541262 16.323553"
   height="16.323553mm"
   width="14.541262mm">
  <defs
     id="defs2" />
  <metadata
     id="metadata5">
    <rdf:RDF>
      <cc:Work
         rdf:about="">
        <dc:format>image/svg+xml</dc:format>
        <dc:type
           rdf:resource="http://purl.org/dc/dcmitype/StillImage" />
        <dc:title></dc:title>
      </cc:Work>
    </rdf:RDF>
  </metadata>
  <g
     transform="translate(-176.42579,67.9713)"
     id="layer1">
    <path
       id="path905-0-6-3"
       d="m 183.64914,-67.9713 a 4.4175963,4.2758556 0 0 0 -4.41781,4.275709 4.4175963,4.2758556 0 0 0 0.5581,2.076876 c -0.22514,0.246052 -0.4309,0.553484 -0.6103,0.912606 a 1.4882812,3.0238094 33.263205 0 0 -1.92443,1.736328 1.4882812,3.0238094 33.263205 0 0 -0.41393,3.344498 1.4882812,3.0238094 33.263205 0 0 1.61334,-0.326078 c 0.23709,2.457249 1.32052,4.303614 2.63085,4.303614 h 5.22242 c 1.31034,0 2.39376,-1.846368 2.63085,-4.303614 a 3.0238094,1.4882812 56.736795 0 0 1.61385,0.326078 3.0238094,1.4882812 56.736795 0 0 -0.41393,-3.344498 3.0238094,1.4882812 56.736795 0 0 -1.92494,-1.736328 c -0.19551,-0.391388 -0.42205,-0.719802 -0.67128,-0.975651 a 4.4175963,4.2758556 0 0 0 0.52452,-2.013831 4.4175963,4.2758556 0 0 0 -4.41731,-4.275709 z"
       style="opacity:1;fill:#7f5f2a;fill-opacity:1;stroke:none;stroke-width:0.25417531;stroke-miterlimit:4;stroke-dasharray:none;stroke-opacity:1" />
  </g>
</svg>
