<?xml version="1.0" encoding="UTF-8" standalone="no"?>
<svg
   xmlns:dc="http://purl.org/dc/elements/1.1/"
   xmlns:cc="http://creativecommons.org/ns#"
   xmlns:rdf="http://www.w3.org/1999/02/22-rdf-syntax-ns#"
   xmlns:svg="http://www.w3.org/2000/svg"
   xmlns="http://www.w3.org/2000/svg"
   id="svg8"
   version="1.1"
   viewBox="0 0 26.458333 26.458334"
   height="100"
   width="100">
  <defs
     id="defs2" />
  <metadata
     id="metadata5">
    <rdf:RDF>
      <cc:Work
         rdf:about="">
        <dc:format>image/svg+xml</dc:format>
        <dc:type
           rdf:resource="http://purl.org/dc/dcmitype/StillImage" />
        <dc:title></dc:title>
      </cc:Work>
    </rdf:RDF>
  </metadata>
  <g
     transform="translate(0,-270.54165)"
     id="layer1" />
  <g
     class="tile6"
     id="g1258"
     transform="translate(-29.104167,52.250025)">
    <path
       class="grass4"
       style="opacity:1;fill:#94d35e;fill-opacity:1;stroke:none;stroke-width:11.33858299;stroke-miterlimit:4;stroke-dasharray:none;stroke-opacity:1"
       d="m -65,540 v -45 h -45 v 45 z"
       id="path1227"
       transform="matrix(0.26458333,0,0,0.26458333,58.208333,-168.66669)" />
    <path
       class="grass3"
       style="opacity:1;fill:#94d35e;fill-opacity:1;stroke:none;stroke-width:11.33858299;stroke-miterlimit:4;stroke-dasharray:none;stroke-opacity:1"
       d="m -10,495 h -45 v 45 h 45 z"
       id="path1225"
       transform="matrix(0.26458333,0,0,0.26458333,58.208333,-168.66669)" />
    <path
       class="grass2"
       style="opacity:1;fill:#94d35e;fill-opacity:1;stroke:none;stroke-width:11.33858299;stroke-miterlimit:4;stroke-dasharray:none;stroke-opacity:1"
       d="m -55,440 v 45 h 45 v -45 z"
       id="path1223"
       transform="matrix(0.26458333,0,0,0.26458333,58.208333,-168.66669)" />
    <path
       class="street4"
       style="opacity:1;fill:#f7f7f7;fill-opacity:1;stroke:none;stroke-width:11.33858299;stroke-miterlimit:4;stroke-dasharray:none;stroke-opacity:1"
       d="m -65,495 v -10 h -45 v 10 z"
       id="path1232"
       transform="matrix(0.26458333,0,0,0.26458333,58.208333,-168.66669)" />
    <path
       class="street3"
       style="opacity:1;fill:#f7f7f7;fill-opacity:1;stroke:none;stroke-width:11.33858299;stroke-miterlimit:4;stroke-dasharray:none;stroke-opacity:1"
       d="m -55,495 h -10 v 45 h 10 z"
       id="path1247"
       transform="matrix(0.26458333,0,0,0.26458333,58.208333,-168.66669)" />
    <path
       style="opacity:1;fill:#f7f7f7;fill-opacity:1;stroke:none;stroke-width:11.33858299;stroke-miterlimit:4;stroke-dasharray:none;stroke-opacity:1"
       d="m -65,485 v 10 h 10 v -10 z"
       id="path1244"
       transform="matrix(0.26458333,0,0,0.26458333,58.208333,-168.66669)" />
    <path
       class="street2"
       style="opacity:1;fill:#f7f7f7;fill-opacity:1;stroke:none;stroke-width:11.33858299;stroke-miterlimit:4;stroke-dasharray:none;stroke-opacity:1"
       d="m -55,485 v 10 h 45 v -10 z"
       id="path1241"
       transform="matrix(0.26458333,0,0,0.26458333,58.208333,-168.66669)" />
    <path
       class="street1"
       style="opacity:1;fill:#f7f7f7;fill-opacity:1;stroke:none;stroke-width:11.33858299;stroke-miterlimit:4;stroke-dasharray:none;stroke-opacity:1"
       d="m -65,440 v 45 h 10 v -45 z"
       id="path1221"
       transform="matrix(0.26458333,0,0,0.26458333,58.208333,-168.66669)" />
    <path
       class="grass1"
       style="opacity:1;fill:#94d35e;fill-opacity:1;stroke:none;stroke-width:11.33858299;stroke-miterlimit:4;stroke-dasharray:none;stroke-opacity:1"
       d="m -110,440 v 45 h 45 v -45 z"
       id="rect1196"
       transform="matrix(0.26458333,0,0,0.26458333,58.208333,-168.66669)" />
  </g>
</svg>
