<?xml version="1.0" encoding="UTF-8" standalone="no"?>
<svg
   xmlns:dc="http://purl.org/dc/elements/1.1/"
   xmlns:cc="http://creativecommons.org/ns#"
   xmlns:rdf="http://www.w3.org/1999/02/22-rdf-syntax-ns#"
   xmlns:svg="http://www.w3.org/2000/svg"
   xmlns="http://www.w3.org/2000/svg"
   id="svg8"
   version="1.1"
   viewBox="0 0 26.458333 26.458334"
   height="100"
   width="100">
  <defs
     id="defs2" />
  <metadata
     id="metadata5">
    <rdf:RDF>
      <cc:Work
         rdf:about="">
        <dc:format>image/svg+xml</dc:format>
        <dc:type
           rdf:resource="http://purl.org/dc/dcmitype/StillImage" />
        <dc:title></dc:title>
      </cc:Work>
    </rdf:RDF>
  </metadata>
  <g
     transform="translate(0,-270.54165)"
     id="layer1" />
  <g
     class="tile16"
     id="g2160"
     transform="translate(-29.104167,-238.79163)">
    <path
       class="castle1"
       style="opacity:1;fill:#7f5f2a;fill-opacity:1;stroke:none;stroke-width:0.99999994;stroke-miterlimit:4;stroke-dasharray:none;stroke-opacity:1"
       d="m -110,1540 v 100 l 30,-30 v -40 z"
       id="path2149"
       transform="matrix(0.26458333,0,0,0.26458333,58.208333,-168.66669)" />
    <path
       class="grass2"
       style="opacity:1;fill:#94d35e;fill-opacity:1;stroke:none;stroke-width:0.99999994;stroke-miterlimit:4;stroke-dasharray:none;stroke-opacity:1"
       d="m -55,1540 c 1.36e-4,3.1133 0.314302,6.1512 0.912109,9.084 0.597937,2.9334 1.478988,5.7618 2.615235,8.4551 1.13625,2.6932 2.527639,5.2511 4.142578,7.6445 1.614935,2.3934 3.454283,4.6223 5.488281,6.6562 2.034002,2.034 4.262815,3.8734 6.65625,5.4883 2.393439,1.6149 4.951282,3.0044 7.644531,4.1407 2.69325,1.1362 5.52164,2.0192 8.455078,2.6171 2.933443,0.5981 5.971936,0.9121 9.085938,0.9121 V 1540 Z"
       id="path2154"
       transform="matrix(0.26458333,0,0,0.26458333,58.208333,-168.66669)" />
    <path
       class="street1"
       style="opacity:1;fill:#f7f7f7;fill-opacity:1;stroke:none;stroke-width:0.99999994;stroke-miterlimit:4;stroke-dasharray:none;stroke-opacity:1"
       d="m -65.001953,1540 c 6.8e-5,1.8941 0.09506,3.7659 0.283203,5.6113 0.18822,1.8462 0.468828,3.6649 0.835938,5.4532 0.367105,1.7882 0.820713,3.5466 1.357421,5.2675 0.536708,1.721 1.156514,3.4045 1.853516,5.0489 0.697005,1.6444 1.472319,3.248 2.320313,4.8066 0.847989,1.5585 1.768135,3.0718 2.757812,4.5352 0.989673,1.4634 2.047867,2.8774 3.169922,4.2363 1.122058,1.3589 2.309556,2.6631 3.554687,3.9082 1.245135,1.2451 2.549297,2.4307 3.908203,3.5527 1.358903,1.1221 2.771003,2.1803 4.234376,3.1699 1.463368,0.9897 2.976622,1.9118 4.535156,2.7598 1.55853,0.848 3.162251,1.6233 4.80664,2.3203 1.644393,0.697 3.329838,1.3149 5.050782,1.8516 1.720943,0.5367 3.477432,0.9923 5.265625,1.3594 1.788192,0.367 3.608941,0.6458 5.455078,0.8339 1.84614,0.1883 3.718506,0.2852 5.613281,0.2852 v -10.002 c -3.114002,0 -6.152495,-0.314 -9.085938,-0.9121 -2.933438,-0.5979 -5.761828,-1.4809 -8.455078,-2.6171 -2.693249,-1.1363 -5.251092,-2.5258 -7.644531,-4.1407 -2.393435,-1.6149 -4.622248,-3.4543 -6.65625,-5.4883 -2.033998,-2.0339 -3.873346,-4.2628 -5.488281,-6.6562 -1.614939,-2.3934 -3.006328,-4.9513 -4.142578,-7.6445 -1.136247,-2.6933 -2.017298,-5.5217 -2.615235,-8.4551 -0.597807,-2.9328 -0.911973,-5.9707 -0.912109,-9.084 z"
       id="path2152"
       transform="matrix(0.26458333,0,0,0.26458333,58.208333,-168.66669)" />
    <path
       class="grass1"
       style="opacity:1;fill:#94d35e;fill-opacity:1;stroke:none;stroke-width:0.99999994;stroke-miterlimit:4;stroke-dasharray:none;stroke-opacity:1"
       d="m -110,1540 30,30 v 40 l -30,30 h 100 v -45 c -1.894775,0 -3.767141,-0.097 -5.613281,-0.2852 -1.846137,-0.1881 -3.666886,-0.4669 -5.455078,-0.8339 -1.788193,-0.3671 -3.544682,-0.8227 -5.265625,-1.3594 -1.720944,-0.5367 -3.406389,-1.1546 -5.050782,-1.8516 -1.644389,-0.697 -3.24811,-1.4723 -4.80664,-2.3203 -1.558534,-0.848 -3.071788,-1.7701 -4.535156,-2.7598 -1.463373,-0.9896 -2.875473,-2.0478 -4.234376,-3.1699 -1.358906,-1.122 -2.663068,-2.3076 -3.908203,-3.5527 -1.245131,-1.2451 -2.432629,-2.5493 -3.554687,-3.9082 -1.122055,-1.3589 -2.180249,-2.7729 -3.169922,-4.2363 -0.989677,-1.4634 -1.909823,-2.9767 -2.757812,-4.5352 -0.847994,-1.5586 -1.623308,-3.1622 -2.320313,-4.8066 -0.697002,-1.6444 -1.316808,-3.3279 -1.853516,-5.0489 -0.536708,-1.7209 -0.990316,-3.4793 -1.357421,-5.2675 -0.36711,-1.7883 -0.647718,-3.607 -0.835938,-5.4532 -0.188145,-1.8454 -0.283135,-3.7172 -0.283203,-5.6113 z"
       id="rect2105"
       transform="matrix(0.26458333,0,0,0.26458333,58.208333,-168.66669)" />
  </g>
</svg>
