<?xml version="1.0" encoding="UTF-8" standalone="no"?>
<svg
   xmlns:dc="http://purl.org/dc/elements/1.1/"
   xmlns:cc="http://creativecommons.org/ns#"
   xmlns:rdf="http://www.w3.org/1999/02/22-rdf-syntax-ns#"
   xmlns:svg="http://www.w3.org/2000/svg"
   xmlns="http://www.w3.org/2000/svg"
   id="svg8"
   version="1.1"
   viewBox="0 0 26.458333 26.458334"
   height="100"
   width="100">
  <defs
     id="defs2" />
  <metadata
     id="metadata5">
    <rdf:RDF>
      <cc:Work
         rdf:about="">
        <dc:format>image/svg+xml</dc:format>
        <dc:type
           rdf:resource="http://purl.org/dc/dcmitype/StillImage" />
        <dc:title></dc:title>
      </cc:Work>
    </rdf:RDF>
  </metadata>
  <g
     transform="translate(0,-270.54165)"
     id="layer1" />
  <g
     class="tile19"
     id="g2389"
     transform="translate(-29.104167,-326.10413)">
    <path
       class="castle1"
       transform="matrix(0.26458333,0,0,0.26458333,58.208333,-168.66669)"
       style="opacity:1;fill:#7f5f2a;fill-opacity:1;stroke:none;stroke-width:0.99999994;stroke-miterlimit:4;stroke-dasharray:none;stroke-opacity:1"
       d="m -110,1870 v 100 h 100 z"
       id="path2378" />
    <path
       class="grass2"
       style="opacity:1;fill:#94d35e;fill-opacity:1;stroke:none;stroke-width:0.99999994;stroke-miterlimit:4;stroke-dasharray:none;stroke-opacity:1"
       d="m -55,1870 c 2.27e-4,3.1134 0.314302,6.1511 0.912109,9.084 0.597884,2.9335 1.479033,5.7617 2.615235,8.4551 1.136277,2.6933 2.527661,5.251 4.142578,7.6445 1.614992,2.3935 3.454291,4.6242 5.488281,6.6582 2.034028,2.0341 4.262751,3.8733 6.65625,5.4883 2.393386,1.6149 4.951202,3.0043 7.644531,4.1406 2.693178,1.1362 5.521598,2.0193 8.455078,2.6172 2.933405,0.598 5.971947,0.9121 9.085938,0.9121 v -45 z"
       id="path2383"
       transform="matrix(0.26458333,0,0,0.26458333,58.208333,-168.66669)" />
    <path
       class="street1"
       style="opacity:1;fill:#f7f7f7;fill-opacity:1;stroke:none;stroke-width:0.99999994;stroke-miterlimit:4;stroke-dasharray:none;stroke-opacity:1"
       d="m -65.001953,1870 c 1.13e-4,1.8942 0.09498,3.7658 0.283203,5.6113 0.18822,1.8463 0.468756,3.6648 0.835938,5.4532 0.366992,1.7882 0.820728,3.5466 1.357421,5.2675 0.536693,1.7211 1.156533,3.4044 1.853516,5.0489 0.69702,1.6444 1.472413,3.2479 2.320313,4.8066 0.848012,1.5585 1.768218,3.0736 2.757812,4.5371 0.989707,1.4635 2.047818,2.8774 3.169922,4.2363 1.12199,1.359 2.309484,2.6631 3.554687,3.9082 1.24509,1.2452 2.549199,2.4307 3.908203,3.5528 1.358892,1.1221 2.771056,2.1803 4.234376,3.1699 1.463395,0.9897 2.976668,1.9117 4.535156,2.7598 1.558526,0.848 3.162244,1.6233 4.80664,2.3203 1.644397,0.697 3.329887,1.3148 5.050782,1.8515 1.720894,0.5368 3.477417,0.9923 5.265625,1.3594 1.788207,0.367 3.608968,0.6459 5.455078,0.834 1.846186,0.1882 3.71849,0.2852 5.613281,0.2852 V 1915 c -3.113991,0 -6.152533,-0.3141 -9.085938,-0.9121 -2.93348,-0.5979 -5.7619,-1.481 -8.455078,-2.6172 -2.693329,-1.1363 -5.251145,-2.5257 -7.644531,-4.1406 -2.393499,-1.615 -4.622222,-3.4542 -6.65625,-5.4883 -2.03399,-2.034 -3.873289,-4.2647 -5.488281,-6.6582 -1.614917,-2.3935 -3.006301,-4.9512 -4.142578,-7.6445 -1.136202,-2.6934 -2.017351,-5.5216 -2.615235,-8.4551 -0.597807,-2.9329 -0.911882,-5.9706 -0.912109,-9.084 z"
       id="path2381"
       transform="matrix(0.26458333,0,0,0.26458333,58.208333,-168.66669)" />
    <path
       style="opacity:1;fill:#94d35e;fill-opacity:1;stroke:none;stroke-width:0.99999994;stroke-miterlimit:4;stroke-dasharray:none;stroke-opacity:1"
       d="m -110,1870 100,100 v -44.998 c -1.894791,0 -3.767095,-0.097 -5.613281,-0.2852 -1.84611,-0.1881 -3.666871,-0.467 -5.455078,-0.834 -1.788208,-0.3671 -3.544731,-0.8226 -5.265625,-1.3594 -1.720895,-0.5367 -3.406385,-1.1545 -5.050782,-1.8515 -1.644396,-0.697 -3.248114,-1.4723 -4.80664,-2.3203 -1.558488,-0.8481 -3.071761,-1.7701 -4.535156,-2.7598 -1.46332,-0.9896 -2.875484,-2.0478 -4.234376,-3.1699 -1.359004,-1.1221 -2.663113,-2.3076 -3.908203,-3.5528 -1.245203,-1.2451 -2.432697,-2.5492 -3.554687,-3.9082 -1.122104,-1.3589 -2.180215,-2.7728 -3.169922,-4.2363 -0.989594,-1.4635 -1.9098,-2.9786 -2.757812,-4.5371 -0.8479,-1.5587 -1.623293,-3.1622 -2.320313,-4.8066 -0.696983,-1.6445 -1.316823,-3.3278 -1.853516,-5.0489 -0.536693,-1.7209 -0.990429,-3.4793 -1.357421,-5.2675 -0.367182,-1.7884 -0.647718,-3.6069 -0.835938,-5.4532 -0.18822,-1.8455 -0.28309,-3.7171 -0.283203,-5.6113 z"
       id="rect2337"
       transform="matrix(0.26458333,0,0,0.26458333,58.208333,-168.66669)" />
  </g>
</svg>
