<?xml version="1.0" encoding="UTF-8" standalone="no"?>
<svg
   xmlns:dc="http://purl.org/dc/elements/1.1/"
   xmlns:cc="http://creativecommons.org/ns#"
   xmlns:rdf="http://www.w3.org/1999/02/22-rdf-syntax-ns#"
   xmlns:svg="http://www.w3.org/2000/svg"
   xmlns="http://www.w3.org/2000/svg"
   id="svg8"
   version="1.1"
   viewBox="0 0 26.458333 26.458334"
   height="100"
   width="100">
  <defs
     id="defs2" />
  <metadata
     id="metadata5">
    <rdf:RDF>
      <cc:Work
         rdf:about="">
        <dc:format>image/svg+xml</dc:format>
        <dc:type
           rdf:resource="http://purl.org/dc/dcmitype/StillImage" />
        <dc:title></dc:title>
      </cc:Work>
    </rdf:RDF>
  </metadata>
  <g
     transform="translate(0,-270.54165)"
     id="layer1" />
  <g
     class="tile17"
     id="g2291"
     transform="translate(-29.104167,-267.8958)">
    <path
       class="grass2"
       style="opacity:1;fill:#94d35e;fill-opacity:1;stroke:none;stroke-width:0.99999994;stroke-miterlimit:4;stroke-dasharray:none;stroke-opacity:1"
       d="m -10,1705 c -3.113424,2e-4 -6.151116,0.3143 -9.083984,0.9121 -2.933511,0.5979 -5.761689,1.479 -8.455078,2.6152 -2.693315,1.1363 -5.251059,2.5277 -7.644532,4.1426 -2.393476,1.615 -4.624212,3.4543 -6.658203,5.4883 -2.034062,2.034 -3.873342,4.2628 -5.488281,6.6563 -1.614973,2.3934 -3.004306,4.9512 -4.140625,7.6445 -1.136239,2.6932 -2.019281,5.5216 -2.617188,8.4551 C -54.685959,1743.8475 -55,1746.886 -55,1750 h 45 z"
       id="path2285"
       transform="matrix(0.26458333,0,0,0.26458333,58.208333,-168.66669)" />
    <path
       class="street1"
       style="opacity:1;fill:#f7f7f7;fill-opacity:1;stroke:none;stroke-width:0.99999994;stroke-miterlimit:4;stroke-dasharray:none;stroke-opacity:1"
       d="m -10,1694.998 c -1.894178,10e-5 -3.76583,0.095 -5.611328,0.2832 -1.846254,0.1883 -3.664777,0.4688 -5.453125,0.836 -1.788276,0.367 -3.546585,0.8207 -5.267578,1.3574 -1.721035,0.5367 -3.404371,1.1565 -5.048828,1.8535 -1.644458,0.697 -3.247983,1.4724 -4.806641,2.3203 -1.558545,0.848 -3.073661,1.7682 -4.537109,2.7578 -1.463486,0.9897 -2.877388,2.0479 -4.236329,3.17 -1.35894,1.122 -2.663068,2.3095 -3.908203,3.5547 -1.245173,1.2451 -2.430702,2.5492 -3.552734,3.9082 -1.122146,1.3589 -2.180294,2.771 -3.169922,4.2343 -0.989745,1.4634 -1.911723,2.9767 -2.759765,4.5352 -0.848006,1.5585 -1.623308,3.1622 -2.320313,4.8066 -0.697047,1.6444 -1.314851,3.3299 -1.851563,5.0508 -0.536749,1.7209 -0.992258,3.4774 -1.359374,5.2656 -0.366993,1.7882 -0.645908,3.609 -0.833985,5.4551 -0.18822,1.8462 -0.285156,3.7185 -0.285156,5.6133 H -55 c 0,-3.114 0.314041,-6.1525 0.912109,-9.0859 0.597907,-2.9335 1.480949,-5.7619 2.617188,-8.4551 1.136319,-2.6933 2.525652,-5.2511 4.140625,-7.6445 1.614939,-2.3935 3.454219,-4.6223 5.488281,-6.6563 2.033991,-2.034 4.264727,-3.8733 6.658203,-5.4883 2.393473,-1.6149 4.951217,-3.0063 7.644532,-4.1426 2.693389,-1.1362 5.521567,-2.0173 8.455078,-2.6152 2.932868,-0.5978 5.97056,-0.9119 9.083984,-0.9121 z"
       id="path2283"
       transform="matrix(0.26458333,0,0,0.26458333,58.208333,-168.66669)" />
    <path
       class="grass1"
       style="opacity:1;fill:#94d35e;fill-opacity:1;stroke:none;stroke-width:0.99999994;stroke-miterlimit:4;stroke-dasharray:none;stroke-opacity:1"
       d="m -110,1650 v 100 h 44.998047 c 0,-1.8948 0.09694,-3.7671 0.285156,-5.6133 0.188077,-1.8461 0.466992,-3.6669 0.833985,-5.4551 0.367116,-1.7882 0.822625,-3.5447 1.359374,-5.2656 0.536712,-1.7209 1.154516,-3.4064 1.851563,-5.0508 0.697005,-1.6444 1.472307,-3.2481 2.320313,-4.8066 0.848042,-1.5585 1.77002,-3.0718 2.759765,-4.5352 0.989628,-1.4633 2.047776,-2.8754 3.169922,-4.2343 1.122032,-1.359 2.307561,-2.6631 3.552734,-3.9082 1.245135,-1.2452 2.549263,-2.4327 3.908203,-3.5547 1.358941,-1.1221 2.772843,-2.1803 4.236329,-3.17 1.463448,-0.9896 2.978564,-1.9098 4.537109,-2.7578 1.558658,-0.8479 3.162183,-1.6233 4.806641,-2.3203 1.644457,-0.697 3.327793,-1.3168 5.048828,-1.8535 1.720993,-0.5367 3.479302,-0.9904 5.267578,-1.3574 1.788348,-0.3672 3.606871,-0.6477 5.453125,-0.836 1.845498,-0.1882 3.71715,-0.2831 5.611328,-0.2832 V 1650 Z"
       id="rect2193"
       transform="matrix(0.26458333,0,0,0.26458333,58.208333,-168.66669)" />
    <path
       class="castle1"
       style="fill:#7f5f2a;fill-opacity:1;stroke:none;stroke-width:0.26458332px;stroke-linecap:butt;stroke-linejoin:miter;stroke-opacity:1"
       d="m 29.104169,267.89586 7.937501,7.9375 v 10.58333 l -7.937501,7.9375 z"
       id="path2195" />
  </g>
</svg>
