<?xml version="1.0" encoding="UTF-8" standalone="no"?>
<svg
   xmlns:dc="http://purl.org/dc/elements/1.1/"
   xmlns:cc="http://creativecommons.org/ns#"
   xmlns:rdf="http://www.w3.org/1999/02/22-rdf-syntax-ns#"
   xmlns:svg="http://www.w3.org/2000/svg"
   xmlns="http://www.w3.org/2000/svg"
   id="svg8"
   version="1.1"
   viewBox="0 0 26.458333 26.458334"
   height="100"
   width="100">
  <defs
     id="defs2" />
  <metadata
     id="metadata5">
    <rdf:RDF>
      <cc:Work
         rdf:about="">
        <dc:format>image/svg+xml</dc:format>
        <dc:type
           rdf:resource="http://purl.org/dc/dcmitype/StillImage" />
        <dc:title></dc:title>
      </cc:Work>
    </rdf:RDF>
  </metadata>
  <g
     transform="translate(0,-270.54165)"
     id="layer1" />
  <g
     class="tile4"
     id="g4992"
     transform="translate(-29.104167,110.45836)">
    <path
       class="church1"
       style="opacity:1;fill:#bf89d3;fill-opacity:1;stroke:none;stroke-width:11.33858299;stroke-miterlimit:4;stroke-dasharray:none;stroke-opacity:1"
       d="m -69.375,245 a 5.6249998,4.6875084 0 0 0 -0.398438,0.0117 5.6249998,4.6875084 0 0 0 -0.55664,0.0566 5.6249998,4.6875084 0 0 0 -0.548828,0.10156 5.6249998,4.6875084 0 0 0 -0.535156,0.14844 5.6249998,4.6875084 0 0 0 -0.511719,0.19141 5.6249998,4.6875084 0 0 0 -0.488281,0.23242 5.6249998,4.6875084 0 0 0 -0.457032,0.27343 5.6249998,4.6875084 0 0 0 -0.421875,0.3086 5.6249998,4.6875084 0 0 0 -0.384765,0.34375 5.6249998,4.6875084 0 0 0 -0.339844,0.37305 5.6249998,4.6875084 0 0 0 -0.292969,0.39843 5.6249998,4.6875084 0 0 0 -0.246094,0.42188 5.6249998,4.6875084 0 0 0 -0.191406,0.4414 5.6249998,4.6875084 0 0 0 -0.140625,0.45313 5.6249998,4.6875084 0 0 0 -0.08398,0.46289 A 5.6249998,4.6875084 0 0 0 -75,249.6875 V 282.5 a 15,12.500024 0 0 0 0.01367,0.51953 15,12.500024 0 0 0 0.136719,1.24414 15,12.500024 0 0 0 0.285156,1.22656 15,12.500024 0 0 0 0.431641,1.19727 15,12.500024 0 0 0 0.572265,1.1543 15,12.500024 0 0 0 0.707031,1.10156 15,12.500024 0 0 0 0.835938,1.03711 15,12.500024 0 0 0 0.957031,0.96289 15,12.500024 0 0 0 1.066406,0.87891 15,12.500024 0 0 0 1.166016,0.7832 15,12.500024 0 0 0 1.255859,0.68555 15,12.500024 0 0 0 1.330078,0.57617 15,12.500024 0 0 0 1.392579,0.46093 15,12.500024 0 0 0 1.441406,0.34571 15,12.500024 0 0 0 1.474609,0.22265 15,12.500024 0 0 0 1.496094,0.0977 15,12.500024 0 0 0 1.498047,-0.0254 15,12.500024 0 0 0 1.488281,-0.15039 15,12.500024 0 0 0 1.462891,-0.27344 15,12.500024 0 0 0 1.423828,-0.39453 15,12.500024 0 0 0 1.369141,-0.50977 15,12.500024 0 0 0 1.300781,-0.62304 15,12.500024 0 0 0 1.21875,-0.72656 15,12.500024 0 0 0 1.126953,-0.82422 15,12.500024 0 0 0 1.021484,-0.91407 15,12.500024 0 0 0 0.908203,-0.99414 15,12.500024 0 0 0 0.783203,-1.0664 15,12.500024 0 0 0 0.652344,-1.125 15,12.500024 0 0 0 0.513672,-1.17383 15,12.500024 0 0 0 0.371094,-1.21094 15,12.500024 0 0 0 0.224609,-1.23437 A 15,12.500024 0 0 0 -45,282.5 v -32.8125 a 5.6249998,4.6875084 0 0 0 -0.01367,-0.33203 5.6249998,4.6875084 0 0 0 -0.06836,-0.46485 5.6249998,4.6875084 0 0 0 -0.123047,-0.45703 5.6249998,4.6875084 0 0 0 -0.177734,-0.44531 5.6249998,4.6875084 0 0 0 -0.228516,-0.42773 5.6249998,4.6875084 0 0 0 -0.28125,-0.40625 5.6249998,4.6875084 0 0 0 -0.326172,-0.38086 5.6249998,4.6875084 0 0 0 -0.371094,-0.35156 5.6249998,4.6875084 0 0 0 -0.412109,-0.32032 5.6249998,4.6875084 0 0 0 -0.447266,-0.2832 5.6249998,4.6875084 0 0 0 -0.478515,-0.24414 5.6249998,4.6875084 0 0 0 -0.50586,-0.20508 5.6249998,4.6875084 0 0 0 -0.529297,-0.16016 5.6249998,4.6875084 0 0 0 -0.544921,-0.11523 5.6249998,4.6875084 0 0 0 -0.554688,-0.0703 A 5.6249998,4.6875084 0 0 0 -50.625,245 Z"
       id="path4988"
       transform="matrix(0.26458333,0,0,0.26458333,58.208333,-168.66669)" />
    <path
       class="grass1"
       style="opacity:1;fill:#94d35e;fill-opacity:1;stroke:none;stroke-width:11.33858299;stroke-miterlimit:4;stroke-dasharray:none;stroke-opacity:1"
       d="M -110,220 V 320 H -10 V 220 Z m 40.625,25 h 18.75 a 5.6249998,4.6875084 0 0 1 0.5625,0.0234 5.6249998,4.6875084 0 0 1 0.554688,0.0703 5.6249998,4.6875084 0 0 1 0.544921,0.11523 5.6249998,4.6875084 0 0 1 0.529297,0.16016 5.6249998,4.6875084 0 0 1 0.50586,0.20508 5.6249998,4.6875084 0 0 1 0.478515,0.24414 5.6249998,4.6875084 0 0 1 0.447266,0.2832 5.6249998,4.6875084 0 0 1 0.412109,0.32032 5.6249998,4.6875084 0 0 1 0.371094,0.35156 5.6249998,4.6875084 0 0 1 0.326172,0.38086 5.6249998,4.6875084 0 0 1 0.28125,0.40625 5.6249998,4.6875084 0 0 1 0.228516,0.42773 5.6249998,4.6875084 0 0 1 0.177734,0.44531 5.6249998,4.6875084 0 0 1 0.123047,0.45703 5.6249998,4.6875084 0 0 1 0.06836,0.46485 A 5.6249998,4.6875084 0 0 1 -45,249.6875 V 282.5 a 15,12.500024 0 0 1 -0.07422,1.24805 15,12.500024 0 0 1 -0.224609,1.23437 15,12.500024 0 0 1 -0.371094,1.21094 15,12.500024 0 0 1 -0.513672,1.17383 15,12.500024 0 0 1 -0.652344,1.125 15,12.500024 0 0 1 -0.783203,1.0664 15,12.500024 0 0 1 -0.908203,0.99414 15,12.500024 0 0 1 -1.021484,0.91407 15,12.500024 0 0 1 -1.126953,0.82422 15,12.500024 0 0 1 -1.21875,0.72656 15,12.500024 0 0 1 -1.300781,0.62304 15,12.500024 0 0 1 -1.369141,0.50977 15,12.500024 0 0 1 -1.423828,0.39453 15,12.500024 0 0 1 -1.462891,0.27344 15,12.500024 0 0 1 -1.488281,0.15039 15,12.500024 0 0 1 -1.498047,0.0254 15,12.500024 0 0 1 -1.496094,-0.0977 15,12.500024 0 0 1 -1.474609,-0.22265 15,12.500024 0 0 1 -1.441406,-0.34571 15,12.500024 0 0 1 -1.392579,-0.46093 15,12.500024 0 0 1 -1.330078,-0.57617 15,12.500024 0 0 1 -1.255859,-0.68555 15,12.500024 0 0 1 -1.166016,-0.7832 15,12.500024 0 0 1 -1.066406,-0.87891 15,12.500024 0 0 1 -0.957031,-0.96289 15,12.500024 0 0 1 -0.835938,-1.03711 15,12.500024 0 0 1 -0.707031,-1.10156 15,12.500024 0 0 1 -0.572265,-1.1543 15,12.500024 0 0 1 -0.431641,-1.19727 15,12.500024 0 0 1 -0.285156,-1.22656 15,12.500024 0 0 1 -0.136719,-1.24414 A 15,12.500024 0 0 1 -75,282.5 v -32.8125 a 5.6249998,4.6875084 0 0 1 0.02734,-0.46875 5.6249998,4.6875084 0 0 1 0.08398,-0.46289 5.6249998,4.6875084 0 0 1 0.140625,-0.45313 5.6249998,4.6875084 0 0 1 0.191406,-0.4414 5.6249998,4.6875084 0 0 1 0.246094,-0.42188 5.6249998,4.6875084 0 0 1 0.292969,-0.39843 5.6249998,4.6875084 0 0 1 0.339844,-0.37305 5.6249998,4.6875084 0 0 1 0.384765,-0.34375 5.6249998,4.6875084 0 0 1 0.421875,-0.3086 5.6249998,4.6875084 0 0 1 0.457032,-0.27343 5.6249998,4.6875084 0 0 1 0.488281,-0.23242 5.6249998,4.6875084 0 0 1 0.511719,-0.19141 5.6249998,4.6875084 0 0 1 0.535156,-0.14844 5.6249998,4.6875084 0 0 1 0.548828,-0.10156 5.6249998,4.6875084 0 0 1 0.55664,-0.0566 A 5.6249998,4.6875084 0 0 1 -69.375,245 Z"
       id="rect4970"
       transform="matrix(0.26458333,0,0,0.26458333,58.208333,-168.66669)" />
  </g>
</svg>
