<?xml version="1.0" encoding="UTF-8" standalone="no"?>
<svg
   xmlns:dc="http://purl.org/dc/elements/1.1/"
   xmlns:cc="http://creativecommons.org/ns#"
   xmlns:rdf="http://www.w3.org/1999/02/22-rdf-syntax-ns#"
   xmlns:svg="http://www.w3.org/2000/svg"
   xmlns="http://www.w3.org/2000/svg"
   id="svg8"
   version="1.1"
   viewBox="0 0 26.458333 26.458334"
   height="100"
   width="100">
  <defs
     id="defs2" />
  <metadata
     id="metadata5">
    <rdf:RDF>
      <cc:Work
         rdf:about="">
        <dc:format>image/svg+xml</dc:format>
        <dc:type
           rdf:resource="http://purl.org/dc/dcmitype/StillImage" />
        <dc:title></dc:title>
      </cc:Work>
    </rdf:RDF>
  </metadata>
  <g
     transform="translate(0,-270.54165)"
     id="layer1" />
  <g
     class="tile7"
     id="g1351"
     transform="translate(-29.104167,23.145859)">
    <path
       class="grass2"
       style="opacity:1;fill:#94d35e;fill-opacity:1;stroke:none;stroke-width:11.33858299;stroke-miterlimit:4;stroke-dasharray:none;stroke-opacity:1"
       d="m -55,550 c 1.34e-4,3.11331 0.3143,6.15117 0.912109,9.08398 0.597937,2.93344 1.478986,5.76183 2.615235,8.45508 1.136248,2.69325 2.527642,5.2511 4.142578,7.64453 1.614936,2.39344 3.454282,4.62225 5.488281,6.65625 2.033999,2.034 4.262813,3.87335 6.65625,5.48828 2.393437,1.61494 4.951281,3.00438 7.644531,4.14063 2.693251,1.13625 5.521639,2.01925 8.455078,2.61719 2.93344,0.59793 5.971934,0.91211 9.085938,0.91211 V 550 Z"
       id="path1342"
       transform="matrix(0.26458333,0,0,0.26458333,58.208333,-168.66669)" />
    <path
       class="grass1"
       style="opacity:1;fill:#94d35e;fill-opacity:1;stroke:none;stroke-width:11.33858299;stroke-miterlimit:4;stroke-dasharray:none;stroke-opacity:1"
       d="M -65.001953,550 H -110 v 100 h 100 v -45 c -1.894777,0 -3.767144,-0.0969 -5.613281,-0.28516 -1.846138,-0.1882 -3.666885,-0.46687 -5.455078,-0.83398 -1.788193,-0.36711 -3.544681,-0.82267 -5.265625,-1.35938 -1.720945,-0.5367 -3.406391,-1.15456 -5.050782,-1.85156 -1.644391,-0.697 -3.248107,-1.47232 -4.80664,-2.32031 -1.558533,-0.84799 -3.071786,-1.77009 -4.535156,-2.75977 -1.463371,-0.98967 -2.875472,-2.04786 -4.234376,-3.16992 -1.358903,-1.12205 -2.66307,-2.3076 -3.908203,-3.55273 -1.245132,-1.24514 -2.43263,-2.5493 -3.554687,-3.90821 -1.122057,-1.3589 -2.180246,-2.77295 -3.169922,-4.23632 -0.989676,-1.46337 -1.909821,-2.97663 -2.757812,-4.53516 -0.847992,-1.55853 -1.623311,-3.16225 -2.320313,-4.80664 -0.697002,-1.64439 -1.316807,-3.32788 -1.853516,-5.04883 -0.536708,-1.72094 -0.990311,-3.47938 -1.357421,-5.26758 -0.367111,-1.78819 -0.647731,-3.60698 -0.835938,-5.45312 -0.188142,-1.8455 -0.283136,-3.71723 -0.283203,-5.61133 z"
       id="path1340"
       transform="matrix(0.26458333,0,0,0.26458333,58.208333,-168.66669)" />
    <path
       class="street1"
       style="opacity:1;fill:#f7f7f7;fill-opacity:1;stroke:none;stroke-width:11.33858299;stroke-miterlimit:4;stroke-dasharray:none;stroke-opacity:1"
       d="m -65.001953,550 c 6.7e-5,1.8941 0.09506,3.76583 0.283203,5.61133 0.188207,1.84614 0.468827,3.66493 0.835938,5.45312 0.36711,1.7882 0.820713,3.54664 1.357421,5.26758 0.536709,1.72095 1.156514,3.40444 1.853516,5.04883 0.697002,1.64439 1.472321,3.24811 2.320313,4.80664 0.847991,1.55853 1.768136,3.07179 2.757812,4.53516 0.989676,1.46337 2.047865,2.87742 3.169922,4.23632 1.122057,1.35891 2.309555,2.66307 3.554687,3.90821 1.245133,1.24513 2.5493,2.43068 3.908203,3.55273 1.358904,1.12206 2.771005,2.18025 4.234376,3.16992 1.46337,0.98968 2.976623,1.91178 4.535156,2.75977 1.558533,0.84799 3.162249,1.62331 4.80664,2.32031 1.644391,0.697 3.329837,1.31486 5.050782,1.85156 1.720944,0.53671 3.477432,0.99227 5.265625,1.35938 1.788193,0.36711 3.60894,0.64578 5.455078,0.83398 C -13.767144,604.90305 -11.894777,605 -10,605 v -10.00195 c -3.114004,0 -6.152498,-0.31418 -9.085938,-0.91211 -2.933439,-0.59794 -5.761827,-1.48094 -8.455078,-2.61719 -2.69325,-1.13625 -5.251094,-2.52569 -7.644531,-4.14063 -2.393437,-1.61493 -4.622251,-3.45428 -6.65625,-5.48828 -2.033999,-2.034 -3.873345,-4.26281 -5.488281,-6.65625 -1.614936,-2.39343 -3.00633,-4.95128 -4.142578,-7.64453 -1.136249,-2.69325 -2.017298,-5.52164 -2.615235,-8.45508 C -54.6857,556.15117 -54.999866,553.11331 -55,550 Z"
       id="rect1314"
       transform="matrix(0.26458333,0,0,0.26458333,58.208333,-168.66669)" />
  </g>
</svg>
