<?xml version="1.0" encoding="UTF-8" standalone="no"?>
<svg
   xmlns:dc="http://purl.org/dc/elements/1.1/"
   xmlns:cc="http://creativecommons.org/ns#"
   xmlns:rdf="http://www.w3.org/1999/02/22-rdf-syntax-ns#"
   xmlns:svg="http://www.w3.org/2000/svg"
   xmlns="http://www.w3.org/2000/svg"
   id="svg8"
   version="1.1"
   viewBox="0 0 26.458333 26.458334"
   height="100"
   width="100">
  <defs
     id="defs2" />
  <metadata
     id="metadata5">
    <rdf:RDF>
      <cc:Work
         rdf:about="">
        <dc:format>image/svg+xml</dc:format>
        <dc:type
           rdf:resource="http://purl.org/dc/dcmitype/StillImage" />
        <dc:title></dc:title>
      </cc:Work>
    </rdf:RDF>
  </metadata>
  <g
     transform="translate(0,-270.54165)"
     id="layer1" />
  <g
     class="tile18"
     transform="translate(-29.104163,-296.99991)"
     id="g2321">
    <path
       class="grass2"
       style="opacity:1;fill:#94d35e;fill-opacity:1;stroke:none;stroke-width:0.99999994;stroke-miterlimit:4;stroke-dasharray:none;stroke-opacity:1"
       d="m -10,1760 c -1.249997,1.25 -2.555273,2.2255 -3.898438,2.9922 -1.343164,0.7667 -2.724147,1.3256 -4.128906,1.7422 -1.404758,0.4166 -2.832797,0.691 -4.267578,0.8906 -1.434781,0.1996 -2.877315,0.3237 -4.310547,0.4395 -1.433231,0.1157 -2.857703,0.2217 -4.257812,0.3867 -1.40011,0.1649 -2.77396,0.3889 -4.109375,0.7363 -1.335416,0.3474 -2.631944,0.8195 -3.871094,1.4824 -1.23915,0.6629 -2.421892,1.5154 -3.533203,2.627 -1.1102,1.1105 -2.79164,2.1169 -4.705078,3.0722 -1.913438,0.9554 -4.058381,1.861 -6.095703,2.7715 -2.037323,0.9105 -3.967366,1.8249 -5.449219,2.8008 -0.740927,0.488 -1.369069,0.9926 -1.84375,1.5176 -0.474681,0.5249 -0.796407,1.0707 -0.919922,1.6465 -0.70448,3.2839 -1.379637,7.3617 -1.953125,11.8398 -0.573488,4.4782 -1.044034,9.3565 -1.335938,14.2442 -0.291903,4.8876 -0.405899,9.7843 -0.265624,14.2968 0.07014,2.2563 0.203738,4.4163 0.410156,6.4317 0.206417,2.0153 0.486134,3.8862 0.847656,5.5625 0.137892,0.3329 0.356204,0.5895 0.648438,0.7812 0.292233,0.1918 0.657407,0.3193 1.08789,0.3887 0.860966,0.1388 1.983372,0.05 3.300781,-0.1875 2.63482,-0.4752 6.054029,-1.5511 9.742188,-2.6289 1.844079,-0.5389 3.753663,-1.0792 5.667969,-1.543 1.914306,-0.4638 3.831707,-0.8517 5.6875,-1.0898 1.855793,-0.2382 3.651771,-0.3256 5.320312,-0.1875 1.668541,0.138 3.20995,0.5013 4.5625,1.166 1.232428,0.6057 2.27646,1.3377 3.179688,2.1758 0.903228,0.838 1.665272,1.7815 2.333984,2.8086 0.668712,1.027 1.244556,2.1379 1.773438,3.3105 0.528881,1.1726 1.012358,2.4068 1.496093,3.6816 0.967471,2.5497 1.937975,5.2607 3.292969,7.959 0.677497,1.3492 1.450783,2.6963 2.367188,4.0176 0.916404,1.3213 1.976565,2.6172 3.226562,3.8672 z"
       id="path2316"
       transform="matrix(0.26458333,0,0,0.26458333,58.208333,-168.66669)" />
    <path
       class="grass1"
       style="opacity:1;fill:#94d35e;fill-opacity:1;stroke:none;stroke-width:0.99999994;stroke-miterlimit:4;stroke-dasharray:none;stroke-opacity:1"
       d="m -110,1760 v 100 c 5.00001,-5 7.16469,-7.3671 8.97266,-9.5703 1.807964,-2.2033 3.25838,-4.2429 6.832028,-8.5899 0.542318,-0.6596 1.028602,-1.403 1.46289,-2.2226 0.434288,-0.8196 0.81727,-1.7149 1.152344,-2.6758 0.670148,-1.9219 1.150374,-4.1085 1.476562,-6.4844 0.326189,-2.3759 0.498025,-4.9415 0.550782,-7.623 0.05276,-2.6815 -0.01392,-5.4778 -0.164063,-8.3164 -0.300291,-5.6773 -0.934317,-11.5206 -1.623047,-16.9356 -0.68873,-5.415 -1.43042,-10.4021 -1.943359,-14.3672 -0.214481,-2.2768 -0.48032,-4.1904 -0.800781,-5.8164 -0.320462,-1.626 -0.695761,-2.9653 -1.128907,-4.0898 -0.433145,-1.1245 -0.925984,-2.0344 -1.478515,-2.8066 -0.552532,-0.7722 -1.16513,-1.4054 -1.84375,-1.9747 -1.357241,-1.1384 -2.973194,-2.02 -4.875004,-3.2421 -0.9509,-0.6111 -1.97321,-1.3082 -3.07031,-2.1641 C -107.57757,1762.2652 -108.75,1761.25 -110,1760 Z"
       id="path2314"
       transform="matrix(0.26458333,0,0,0.26458333,58.208333,-168.66669)" />
    <path
       class="castle1"
       style="opacity:1;fill:#7f5f2a;fill-opacity:1;stroke:none;stroke-width:0.99999994;stroke-miterlimit:4;stroke-dasharray:none;stroke-opacity:1"
       d="m -110,1760 c 1.25,1.25 2.42243,2.2652 3.51953,3.1211 1.0971,0.8559 2.11941,1.553 3.07031,2.1641 1.90181,1.2221 3.517763,2.1037 4.875004,3.2421 0.67862,0.5693 1.291218,1.2025 1.84375,1.9747 0.552531,0.7722 1.04537,1.6821 1.478515,2.8066 0.433146,1.1245 0.808445,2.4638 1.128907,4.0898 0.320461,1.626 0.5863,3.5396 0.800781,5.8164 0.512939,3.9651 1.254629,8.9522 1.943359,14.3672 0.68873,5.415 1.322756,11.2583 1.623047,16.9356 0.150146,2.8386 0.21682,5.6349 0.164063,8.3164 -0.05276,2.6815 -0.224593,5.2471 -0.550782,7.623 -0.326188,2.3759 -0.806414,4.5625 -1.476562,6.4844 -0.335074,0.9609 -0.718056,1.8562 -1.152344,2.6758 -0.434288,0.8196 -0.920572,1.563 -1.46289,2.2226 -3.573648,4.347 -5.024064,6.3866 -6.832028,8.5899 -1.80797,2.2032 -3.97265,4.5703 -8.97266,9.5703 h 100 c -1.249997,-1.25 -2.310158,-2.5459 -3.226562,-3.8672 -0.916405,-1.3213 -1.689691,-2.6684 -2.367188,-4.0176 -1.354994,-2.6983 -2.325498,-5.4093 -3.292969,-7.959 -0.483735,-1.2748 -0.967212,-2.509 -1.496093,-3.6816 -0.528882,-1.1726 -1.104726,-2.2835 -1.773438,-3.3105 -0.668712,-1.0271 -1.430756,-1.9706 -2.333984,-2.8086 -0.903228,-0.8381 -1.94726,-1.5701 -3.179688,-2.1758 -1.35255,-0.6647 -2.893959,-1.028 -4.5625,-1.166 -1.668541,-0.1381 -3.464519,-0.051 -5.320312,0.1875 -1.855793,0.2381 -3.773194,0.626 -5.6875,1.0898 -1.914306,0.4638 -3.82389,1.0041 -5.667969,1.543 -3.688159,1.0778 -7.107368,2.1537 -9.742188,2.6289 -1.317409,0.2376 -2.439815,0.3263 -3.300781,0.1875 -0.430483,-0.069 -0.795657,-0.1969 -1.08789,-0.3887 -0.292234,-0.1917 -0.510546,-0.4483 -0.648438,-0.7812 -0.361522,-1.6763 -0.641239,-3.5472 -0.847656,-5.5625 -0.206418,-2.0154 -0.340019,-4.1754 -0.410156,-6.4317 -0.140275,-4.5125 -0.02628,-9.4092 0.265624,-14.2968 0.291904,-4.8877 0.76245,-9.766 1.335938,-14.2442 0.573488,-4.4781 1.248645,-8.5559 1.953125,-11.8398 0.123515,-0.5758 0.445241,-1.1216 0.919922,-1.6465 0.474681,-0.525 1.102823,-1.0296 1.84375,-1.5176 1.481853,-0.9759 3.411896,-1.8903 5.449219,-2.8008 2.037322,-0.9105 4.182265,-1.8161 6.095703,-2.7715 1.913438,-0.9553 3.594878,-1.9617 4.705078,-3.0722 1.111311,-1.1116 2.294053,-1.9641 3.533203,-2.627 1.23915,-0.6629 2.535678,-1.135 3.871094,-1.4824 1.335415,-0.3474 2.709265,-0.5714 4.109375,-0.7363 1.400109,-0.165 2.824581,-0.271 4.257812,-0.3867 1.433232,-0.1158 2.875766,-0.2399 4.310547,-0.4395 1.434781,-0.1996 2.86282,-0.474 4.267578,-0.8906 1.404759,-0.4166 2.785742,-0.9755 4.128906,-1.7422 1.343165,-0.7667 2.648441,-1.7422 3.898438,-2.9922 z"
       id="rect2309"
       transform="matrix(0.26458333,0,0,0.26458333,58.208333,-168.66669)" />
  </g>
</svg>
