<?xml version="1.0" encoding="UTF-8" standalone="no"?>
<svg
   xmlns:dc="http://purl.org/dc/elements/1.1/"
   xmlns:cc="http://creativecommons.org/ns#"
   xmlns:rdf="http://www.w3.org/1999/02/22-rdf-syntax-ns#"
   xmlns:svg="http://www.w3.org/2000/svg"
   xmlns="http://www.w3.org/2000/svg"
   id="svg8"
   version="1.1"
   viewBox="0 0 26.458333 26.458334"
   height="100"
   width="100">
  <defs
     id="defs2" />
  <metadata
     id="metadata5">
    <rdf:RDF>
      <cc:Work
         rdf:about="">
        <dc:format>image/svg+xml</dc:format>
        <dc:type
           rdf:resource="http://purl.org/dc/dcmitype/StillImage" />
        <dc:title></dc:title>
      </cc:Work>
    </rdf:RDF>
  </metadata>
  <g
     transform="translate(0,-270.54165)"
     id="layer1" />
  <g
     class="tile16"
     id="g2191"
     transform="translate(-58.208333,-238.79163)">
    <path
       class="castle1"
       style="opacity:1;fill:#7f5f2a;fill-opacity:1;stroke:none;stroke-width:0.26458332;stroke-miterlimit:4;stroke-dasharray:none;stroke-opacity:1"
       d="m 58.208337,238.79169 v 26.45834 c 0.330665,-0.33073 0.628838,-0.59034 0.90227,-0.79531 0.273433,-0.20495 0.522177,-0.35537 0.752926,-0.46818 0.461497,-0.22567 0.852369,-0.3007 1.230416,-0.35968 0.378047,-0.059 0.743472,-0.10162 1.154451,-0.26302 0.20549,-0.0807 0.422297,-0.19103 0.657841,-0.3478 0.235545,-0.15676 0.489832,-0.36036 0.769979,-0.62682 0.687501,-0.65392 1.234769,-1.01555 1.678451,-1.37821 0.22184,-0.18132 0.417756,-0.36299 0.592211,-0.58137 0.174456,-0.21836 0.327422,-0.4734 0.463538,-0.80201 0.349714,-0.84428 0.840192,-1.97413 1.240234,-3.13005 0.200022,-0.57795 0.377542,-1.16228 0.503329,-1.72082 0.125787,-0.55853 0.200111,-1.09103 0.193787,-1.56527 -0.0059,-0.44114 0.01894,-0.98444 0.02635,-1.59113 0.0074,-0.60669 -0.0027,-1.27717 -0.07803,-1.973 -0.03767,-0.34792 -0.09157,-0.70194 -0.167948,-1.05783 -0.07638,-0.35586 -0.175224,-0.71331 -0.302308,-1.06762 -0.127083,-0.3543 -0.282524,-0.70535 -0.472322,-1.04851 -0.189798,-0.34317 -0.413993,-0.6785 -0.678512,-1.00098 -0.147667,-0.18002 -0.305647,-0.32096 -0.472322,-0.43304 -0.166675,-0.1121 -0.342024,-0.19537 -0.525033,-0.25942 -0.366017,-0.12812 -0.761875,-0.17979 -1.177189,-0.23514 -0.415313,-0.0553 -0.850236,-0.11406 -1.293461,-0.2558 -0.221612,-0.0709 -0.445146,-0.16293 -0.669727,-0.28525 -0.22458,-0.12231 -0.450019,-0.27506 -0.674894,-0.4687 -0.453713,-0.39072 -0.743832,-0.71711 -0.964799,-1.02836 -0.220967,-0.31123 -0.372883,-0.60754 -0.55087,-0.93742 -0.177988,-0.32986 -0.381642,-0.69334 -0.706417,-1.13996 -0.324775,-0.44664 -0.770625,-0.97615 -1.431954,-1.63764 z"
       id="path2165" />
    <path
       class="grass2"
       style="opacity:1;fill:#94d35e;fill-opacity:1;stroke:none;stroke-width:0.99999994;stroke-miterlimit:4;stroke-dasharray:none;stroke-opacity:1"
       d="m 55,1540 c 0,1.25 0.103443,2.4506 0.287109,3.6133 0.183667,1.1627 0.447305,2.2879 0.769532,3.3867 0.644453,2.1977 1.521156,4.2899 2.449218,6.373 0.928063,2.0832 1.906985,4.1561 2.757813,6.3125 0.850827,2.1565 1.57358,4.397 1.986328,6.8145 0.437501,2.5625 0.448721,5.0562 0.322266,7.4316 -0.126456,2.3755 -0.390191,4.6335 -0.503907,6.7207 -0.05686,1.0437 -0.07594,2.0435 -0.02148,2.9961 0.05446,0.9526 0.182062,1.8582 0.419922,2.7071 0.23786,0.8489 0.584776,1.6424 1.078125,2.375 0.493349,0.7325 1.132199,1.4042 1.953125,2.0078 1.141009,0.8389 2.364264,1.3778 3.650391,1.6797 1.286126,0.3019 2.635622,0.3655 4.029296,0.2539 1.393675,-0.1117 2.831269,-0.3991 4.294922,-0.8008 1.463653,-0.4017 2.953157,-0.918 4.449219,-1.4863 2.992124,-1.1366 6.011862,-2.4828 8.908203,-3.545 1.448171,-0.531 2.866505,-0.991 4.234375,-1.3183 1.367203,-0.3271 2.684137,-0.5213 3.933594,-0.5215 v -45 z"
       id="path2185"
       transform="matrix(0.26458333,0,0,0.26458333,58.208333,-168.66669)" />
    <path
       class="street1"
       style="opacity:1;fill:#f6f6f5;fill-opacity:0.98897059;stroke:none;stroke-width:0.99999994;stroke-miterlimit:4;stroke-dasharray:none;stroke-opacity:1"
       d="m 45,1540 c 0,1.25 0.106866,2.4714 0.296875,3.6719 0.190009,1.2004 0.463688,2.38 0.796875,3.5429 0.666374,2.3259 1.571198,4.5897 2.529297,6.8379 0.958099,2.2482 1.968574,4.4811 2.84375,6.7481 0.875175,2.267 1.6156,4.567 2.033203,6.9492 0.429814,2.4519 0.51071,5.2821 0.529297,8.2461 0.01859,2.964 -0.02465,6.0619 0.154297,9.0527 0.08947,1.4954 0.233967,2.9639 0.470703,4.375 0.236736,1.4112 0.566037,2.765 1.021484,4.0313 0.455447,1.2662 1.037597,2.4452 1.783203,3.5058 0.745607,1.0607 1.654505,2.0024 2.761719,2.7969 1.356285,0.9732 2.838518,1.6292 4.414063,2.0313 1.575544,0.4021 3.244293,0.5503 4.972656,0.5097 1.728363,-0.041 3.515338,-0.2701 5.330078,-0.625 1.81474,-0.3548 3.657512,-0.8343 5.492188,-1.375 3.669351,-1.0814 7.311666,-2.4066 10.662109,-3.4609 1.675221,-0.5272 3.277606,-0.9867 4.773437,-1.3145 1.495137,-0.3276 2.883264,-0.5232 4.132813,-0.5234 v -10 c -1.249457,2e-4 -2.566391,0.1944 -3.933594,0.5215 -1.36787,0.3273 -2.786204,0.7873 -4.234375,1.3183 -2.896341,1.0622 -5.916079,2.4084 -8.908203,3.545 -1.496062,0.5683 -2.985566,1.0846 -4.449219,1.4863 -1.463653,0.4017 -2.901247,0.6891 -4.294922,0.8008 -1.393674,0.1116 -2.74317,0.048 -4.029296,-0.2539 -1.286127,-0.3019 -2.509382,-0.8408 -3.650391,-1.6797 -0.820926,-0.6036 -1.459776,-1.2753 -1.953125,-2.0078 -0.493349,-0.7326 -0.840265,-1.5261 -1.078125,-2.375 -0.23786,-0.8489 -0.365464,-1.7545 -0.419922,-2.7071 -0.05446,-0.9526 -0.03537,-1.9524 0.02148,-2.9961 0.113716,-2.0872 0.377451,-4.3452 0.503907,-6.7207 0.126455,-2.3754 0.115235,-4.8691 -0.322266,-7.4316 -0.412748,-2.4175 -1.135501,-4.658 -1.986328,-6.8145 -0.850828,-2.1564 -1.82975,-4.2293 -2.757813,-6.3125 -0.928062,-2.0831 -1.804765,-4.1753 -2.449218,-6.373 -0.322227,-1.0988 -0.585865,-2.224 -0.769532,-3.3867 C 55.103443,1542.4506 55,1541.25 55,1540 Z"
       id="path2183"
       transform="matrix(0.26458333,0,0,0.26458333,58.208333,-168.66669)" />
    <path
       class="grass1"
       style="opacity:1;fill:#94d35e;fill-opacity:1;stroke:none;stroke-width:0.99999994;stroke-miterlimit:4;stroke-dasharray:none;stroke-opacity:1"
       d="m -0.00195313,1540 c 2.49951123,2.5001 4.18461333,4.5014 5.41210933,6.1895 1.2274961,1.688 1.9972114,3.0618 2.6699219,4.3085 0.6727068,1.2468 1.2468804,2.3667 2.0820309,3.543 0.835151,1.1764 1.931664,2.41 3.646485,3.8867 0.849921,0.7319 1.701975,1.3092 2.550781,1.7715 0.84881,0.4623 1.693661,0.8104 2.53125,1.0781 1.675181,0.5358 3.318985,0.7578 4.888672,0.9668 1.569691,0.2094 3.065847,0.4045 4.449219,0.8887 0.691687,0.2423 1.354422,0.5568 1.984375,0.9805 0.629952,0.4236 1.227044,0.9563 1.785156,1.6367 0.999757,1.2188 1.847106,2.4862 2.564453,3.7832 0.717347,1.297 1.304843,2.6238 1.785156,3.9629 0.480318,1.3391 0.853913,2.6902 1.142578,4.0351 0.288681,1.3451 0.492372,2.6831 0.634766,3.9981 0.284787,2.6299 0.322928,5.164 0.294922,7.457 -0.02797,2.293 -0.121871,4.3464 -0.09961,6.0137 0.02381,1.7924 -0.257006,3.805 -0.732421,5.916 -0.475416,2.111 -1.146355,4.3195 -1.902344,6.5039 -1.51197,4.3689 -3.365746,8.6391 -4.6875,11.8301 -0.514454,1.242 -1.092592,2.206 -1.751953,3.0312 -0.659358,0.8254 -1.399831,1.512 -2.238282,2.1973 -1.676908,1.3707 -3.745321,2.7375 -6.34375,5.209 -1.058823,1.0071 -2.019907,1.7767 -2.910156,2.3691 -0.890245,0.5926 -1.709673,1.0095 -2.486328,1.3145 -1.553306,0.61 -2.934442,0.7713 -4.363281,0.9941 -1.4288392,0.223 -2.9061501,0.5065 -4.6503908,1.3594 -0.8721222,0.4264 -1.8122555,0.9949 -2.8457031,1.7695 -1.0334438,0.7747 -2.1603987,1.7559 -3.41015623,3.0059 H 99.998047 v -45 c -1.249549,2e-4 -2.637676,0.1958 -4.132813,0.5234 -1.495831,0.3278 -3.098216,0.7873 -4.773437,1.3145 -3.350443,1.0543 -6.992758,2.3795 -10.662109,3.4609 -1.834676,0.5407 -3.677448,1.0202 -5.492188,1.375 -1.81474,0.3549 -3.601715,0.5845 -5.330078,0.625 -1.728363,0.041 -3.397112,-0.1076 -4.972656,-0.5097 -1.575545,-0.4021 -3.057778,-1.0581 -4.414063,-2.0313 -1.107214,-0.7945 -2.016112,-1.7362 -2.761719,-2.7969 -0.745606,-1.0606 -1.327756,-2.2396 -1.783203,-3.5058 -0.455447,-1.2663 -0.784748,-2.6201 -1.021484,-4.0313 -0.236736,-1.4111 -0.38123,-2.8796 -0.470703,-4.375 -0.178947,-2.9908 -0.135711,-6.0887 -0.154297,-9.0527 -0.01859,-2.964 -0.09948,-5.7942 -0.529297,-8.2461 -0.417603,-2.3822 -1.158028,-4.6822 -2.033203,-6.9492 -0.875176,-2.267 -1.885651,-4.4999 -2.84375,-6.7481 -0.958099,-2.2482 -1.862923,-4.512 -2.529297,-6.8379 -0.333187,-1.1629 -0.606866,-2.3425 -0.796875,-3.5429 C 45.106866,1542.4714 45,1541.25 45,1540 Z"
       id="rect2105-0"
       transform="matrix(0.26458333,0,0,0.26458333,58.208333,-168.66669)" />
  </g>
</svg>
