<?xml version="1.0" encoding="UTF-8" standalone="no"?>
<svg
   xmlns:dc="http://purl.org/dc/elements/1.1/"
   xmlns:cc="http://creativecommons.org/ns#"
   xmlns:rdf="http://www.w3.org/1999/02/22-rdf-syntax-ns#"
   xmlns:svg="http://www.w3.org/2000/svg"
   xmlns="http://www.w3.org/2000/svg"
   id="svg8"
   version="1.1"
   viewBox="0 0 26.458333 26.458334"
   height="100"
   width="100">
  <defs
     id="defs2" />
  <metadata
     id="metadata5">
    <rdf:RDF>
      <cc:Work
         rdf:about="">
        <dc:format>image/svg+xml</dc:format>
        <dc:type
           rdf:resource="http://purl.org/dc/dcmitype/StillImage" />
        <dc:title></dc:title>
      </cc:Work>
    </rdf:RDF>
  </metadata>
  <g
     transform="translate(0,-270.54165)"
     id="layer1" />
  <g
     class="tile14"
     id="g2047"
     transform="translate(-58.208333,-180.5833)">
    <path
       class="castle1"
       style="opacity:1;fill:#7f5f2a;fill-opacity:1;stroke:none;stroke-width:0.99999994;stroke-miterlimit:4;stroke-dasharray:none;stroke-opacity:1"
       d="m 0,1320 v 100 c 1.2499998,-1.25 2.2814767,-2.417 3.1464844,-3.5215 0.8650077,-1.1044 1.5630912,-2.1463 2.1484375,-3.1426 1.1706925,-1.9925 1.8882347,-3.8058 2.5722656,-5.5898 0.6840309,-1.784 1.3349851,-3.5396 2.3750005,-5.4141 0.520007,-0.9372 1.137297,-1.904 1.904296,-2.9199 0.767,-1.0159 1.683413,-2.081 2.802735,-3.2129 2.143324,-2.1674 4.218782,-4.2217 5.976562,-6.2637 0.87889,-1.0209 1.677725,-2.0376 2.367188,-3.0644 0.689463,-1.0268 1.269022,-2.0636 1.707031,-3.1211 1.27561,-3.0796 2.530163,-5.4435 3.613281,-7.4492 1.083118,-2.0057 1.994141,-3.6531 2.587891,-5.3008 0.296875,-0.8238 0.513943,-1.647 0.632812,-2.5156 0.118869,-0.8686 0.141169,-1.7823 0.04492,-2.7852 -0.09625,-1.0028 -0.309732,-2.0957 -0.658203,-3.3222 -0.348471,-1.2266 -0.832897,-2.5872 -1.470703,-4.127 -0.433941,-1.0476 -0.646737,-2.7454 -0.789062,-4.7695 -0.142326,-2.0242 -0.213942,-4.3743 -0.363282,-6.7285 -0.14934,-2.3543 -0.377047,-4.7122 -0.832031,-6.75 -0.227492,-1.019 -0.511198,-1.9588 -0.871094,-2.7774 -0.359896,-0.8186 -0.796543,-1.5152 -1.326172,-2.0527 -1.121709,-1.1384 -2.204994,-2.074 -3.263671,-2.8574 -1.058678,-0.7835 -2.093092,-1.4153 -3.111329,-1.9493 -2.036473,-1.0679 -4.013181,-1.7431 -6.023437,-2.4453 -2.010256,-0.7021 -4.0539856,-1.4318 -6.2187501,-2.6113 -1.0823823,-0.5898 -2.1947138,-1.291 -3.3496094,-2.1582 C 2.4466669,1322.2832 1.2499998,1321.25 0,1320 Z"
       id="path2043"
       transform="matrix(0.26458333,0,0,0.26458333,58.208333,-168.66669)" />
    <path
       class="grass1"
       style="opacity:1;fill:#94d35e;fill-opacity:1;stroke:none;stroke-width:0.99999994;stroke-miterlimit:4;stroke-dasharray:none;stroke-opacity:1"
       d="m 0,1320 c 1.2499998,1.25 2.4466669,2.2832 3.6015625,3.1504 1.1548956,0.8672 2.2672271,1.5684 3.3496094,2.1582 2.1647645,1.1795 4.2084941,1.9092 6.2187501,2.6113 2.010256,0.7022 3.986964,1.3774 6.023437,2.4453 1.018237,0.534 2.052651,1.1658 3.111329,1.9493 1.058677,0.7834 2.141962,1.719 3.263671,2.8574 0.529629,0.5375 0.966276,1.2341 1.326172,2.0527 0.359896,0.8186 0.643602,1.7584 0.871094,2.7774 0.454984,2.0378 0.682691,4.3957 0.832031,6.75 0.14934,2.3542 0.220956,4.7043 0.363282,6.7285 0.142325,2.0241 0.355121,3.7219 0.789062,4.7695 0.637806,1.5398 1.122232,2.9004 1.470703,4.127 0.348471,1.2265 0.561957,2.3194 0.658203,3.3222 0.09625,1.0029 0.07395,1.9166 -0.04492,2.7852 -0.118869,0.8686 -0.335937,1.6918 -0.632812,2.5156 -0.59375,1.6477 -1.504773,3.2951 -2.587891,5.3008 -1.083118,2.0057 -2.337671,4.3696 -3.613281,7.4492 -0.438009,1.0575 -1.017568,2.0943 -1.707031,3.1211 -0.689463,1.0268 -1.488298,2.0435 -2.367188,3.0644 -1.75778,2.042 -3.833238,4.0963 -5.976562,6.2637 -1.119322,1.1319 -2.035735,2.197 -2.802735,3.2129 -0.766999,1.0159 -1.384289,1.9827 -1.904296,2.9199 -1.0400154,1.8745 -1.6909696,3.6301 -2.3750005,5.4141 -0.6840309,1.784 -1.4015731,3.5973 -2.5722656,5.5898 -0.5853463,0.9963 -1.2834298,2.0382 -2.1484375,3.1426 C 2.2814767,1417.583 1.2499998,1418.75 0,1420 h 100 v -100 z"
       id="rect2038"
       transform="matrix(0.26458333,0,0,0.26458333,58.208333,-168.66669)" />
  </g>
</svg>
