<?xml version="1.0" encoding="UTF-8" standalone="no"?>
<svg
   xmlns:dc="http://purl.org/dc/elements/1.1/"
   xmlns:cc="http://creativecommons.org/ns#"
   xmlns:rdf="http://www.w3.org/1999/02/22-rdf-syntax-ns#"
   xmlns:svg="http://www.w3.org/2000/svg"
   xmlns="http://www.w3.org/2000/svg"
   id="svg8"
   version="1.1"
   viewBox="0 0 26.458333 26.458334"
   height="100"
   width="100">
  <defs
     id="defs2" />
  <metadata
     id="metadata5">
    <rdf:RDF>
      <cc:Work
         rdf:about="">
        <dc:format>image/svg+xml</dc:format>
        <dc:type
           rdf:resource="http://purl.org/dc/dcmitype/StillImage" />
        <dc:title></dc:title>
      </cc:Work>
    </rdf:RDF>
  </metadata>
  <g
     transform="translate(0,-270.54165)"
     id="layer1" />
  <g
     class="tile3"
     id="g3026"
     transform="translate(-58.208333,139.56252)">
    <path
       class="castle1"
       style="opacity:1;fill:#7f5f2a;fill-opacity:1;stroke:none;stroke-width:11.33858299;stroke-miterlimit:4;stroke-dasharray:none;stroke-opacity:1"
       d="m 220,320.56641 v 100 c 1.25,-1.25001 2.632,-2.16324 4.0957,-2.86524 1.4637,-0.70199 3.00913,-1.1927 4.58789,-1.59961 1.57877,-0.40691 3.18995,-0.72899 4.78516,-1.09375 1.59521,-0.36475 3.17449,-0.77213 4.6875,-1.34765 1.51301,-0.57553 2.96078,-1.32015 4.29297,-2.35938 0.66609,-0.51961 1.3019,-1.11196 1.9043,-1.79492 0.60239,-0.68296 1.17089,-1.45606 1.69726,-2.33398 0.52637,-0.87793 1.01121,-1.86034 1.44922,-2.96485 0.43801,-1.10451 0.82869,-2.33066 1.16602,-3.69336 0.67465,-2.7254 1.13604,-5.99938 1.33398,-9.94726 0.1895,-3.77949 0.11009,-6.99008 -0.1543,-9.78907 -0.26439,-2.79898 -0.71462,-5.18713 -1.26758,-7.32226 -0.55295,-2.13514 -1.20857,-4.01675 -1.88476,-5.80469 -0.67619,-1.78793 -1.37177,-3.48089 -2.00586,-5.23828 -1.19929,-3.32382 -1.97825,-5.96678 -2.47266,-8.15039 -0.4944,-2.18361 -0.70504,-3.90844 -0.76953,-5.39453 -0.12897,-2.97218 0.32672,-4.99188 0.26758,-7.83008 -0.0258,-1.23905 -0.22809,-2.33101 -0.58203,-3.31445 -0.35395,-0.98344 -0.85819,-1.8589 -1.49024,-2.66016 -0.63204,-0.80126 -1.39184,-1.52821 -2.25195,-2.2207 -0.86011,-0.6925 -1.82123,-1.35066 -2.85937,-2.00782 -2.07629,-1.3143 -4.45901,-2.63067 -6.94727,-4.24414 -1.24413,-0.80673 -2.51503,-1.68803 -3.78711,-2.67968 C 222.52284,322.9185 221.25,321.81641 220,320.56641 Z"
       id="path3013"
       transform="matrix(0.26458333,0,0,0.26458333,0,-224.37905)" />
    <path
       class="castle2"
       style="opacity:1;fill:#7f5f2a;fill-opacity:1;stroke:none;stroke-width:11.33858299;stroke-miterlimit:4;stroke-dasharray:none;stroke-opacity:1"
       d="m 320,320.56641 c -1.25,1.25 -2.54184,2.33019 -3.85547,3.28711 -1.31362,0.95691 -2.64969,1.79148 -3.98828,2.55273 -2.67718,1.52249 -5.36509,2.74983 -7.91016,4.07422 -1.27253,0.66219 -2.50989,1.34861 -3.6914,2.10742 -1.18152,0.75881 -2.30754,1.59012 -3.35938,2.54297 -1.05183,0.95285 -2.02861,2.02717 -2.91211,3.27148 -0.88349,1.24432 -1.67311,2.65977 -2.34961,4.29297 -0.72485,1.74995 -1.11387,3.42208 -1.2832,5.07031 -0.16933,1.64824 -0.11993,3.27218 0.0332,4.92188 0.30628,3.2994 1.02488,6.70451 1.22266,10.62891 0.0752,1.49091 -0.11808,3.34005 -0.41602,5.35742 -0.29794,2.01736 -0.69992,4.20316 -1.04296,6.36914 -0.34305,2.16597 -0.62736,4.31131 -0.6875,6.24805 -0.0301,0.96836 -0.005,1.88439 0.0976,2.7246 0.10215,0.84022 0.28126,1.60471 0.55664,2.26954 0.6765,1.6332 1.48903,3.23782 2.41406,4.81445 0.92504,1.57663 1.9629,3.1259 3.08594,4.64844 2.2461,3.04507 4.83731,5.98456 7.57227,8.82812 C 308.95625,410.26329 315,415.56639 320,420.56641 Z"
       id="path3016"
       transform="matrix(0.26458333,0,0,0.26458333,0,-224.37905)" />
    <path
       class="grass1"
       style="opacity:1;fill:#94d35e;fill-opacity:1;stroke:none;stroke-width:11.33858299;stroke-miterlimit:4;stroke-dasharray:none;stroke-opacity:1"
       d="m 220,320.56641 c 1.25,1.25 2.52284,2.35209 3.79492,3.34375 1.27208,0.99165 2.54298,1.87295 3.78711,2.67968 2.48826,1.61347 4.87098,2.92984 6.94727,4.24414 1.03814,0.65716 1.99926,1.31532 2.85937,2.00782 0.86011,0.69249 1.61992,1.41944 2.25195,2.2207 0.63205,0.80126 1.13629,1.67672 1.49024,2.66016 0.35394,0.98344 0.55621,2.0754 0.58203,3.31445 0.0591,2.8382 -0.39655,4.8579 -0.26758,7.83008 0.0645,1.48609 0.27513,3.21092 0.76953,5.39453 0.49441,2.18361 1.27337,4.82657 2.47266,8.15039 0.63409,1.75739 1.32967,3.45035 2.00586,5.23828 0.67619,1.78794 1.33182,3.66955 1.88476,5.80469 0.55296,2.13513 1.00319,4.52328 1.26758,7.32226 0.26439,2.79899 0.3438,6.00958 0.1543,9.78907 -0.19794,3.94788 -0.65933,7.22186 -1.33398,9.94726 -0.33733,1.3627 -0.72801,2.58885 -1.16602,3.69336 -0.43801,1.10451 -0.92285,2.08692 -1.44922,2.96485 -0.52637,0.87791 -1.09487,1.65102 -1.69726,2.33398 -0.6024,0.68296 -1.23821,1.27531 -1.9043,1.79492 -1.33219,1.03923 -2.77996,1.78385 -4.29297,2.35938 -1.51301,0.57552 -3.09229,0.9829 -4.6875,1.34765 -1.59521,0.36476 -3.20639,0.68684 -4.78516,1.09375 -1.57876,0.40691 -3.12419,0.89762 -4.58789,1.59961 -1.4637,0.702 -2.8457,1.61523 -4.0957,2.86524 h 100 c -5,-5.00002 -11.04375,-10.30312 -16.51367,-15.99024 -2.73496,-2.84356 -5.32617,-5.78305 -7.57227,-8.82812 -1.12304,-1.52254 -2.1609,-3.07181 -3.08594,-4.64844 -0.92503,-1.57663 -1.73756,-3.18125 -2.41406,-4.81445 -0.27538,-0.66483 -0.45449,-1.42932 -0.55664,-2.26954 -0.10215,-0.84021 -0.12773,-1.75624 -0.0976,-2.7246 0.0601,-1.93674 0.34445,-4.08208 0.6875,-6.24805 0.34304,-2.16598 0.74502,-4.35178 1.04296,-6.36914 0.29794,-2.01737 0.49119,-3.86651 0.41602,-5.35742 -0.19778,-3.9244 -0.91638,-7.32951 -1.22266,-10.62891 -0.15313,-1.6497 -0.20253,-3.27364 -0.0332,-4.92188 0.16933,-1.64823 0.55835,-3.32036 1.2832,-5.07031 0.6765,-1.6332 1.46612,-3.04865 2.34961,-4.29297 0.8835,-1.24431 1.86028,-2.31863 2.91211,-3.27148 1.05184,-0.95285 2.17786,-1.78416 3.35938,-2.54297 1.18151,-0.75881 2.41887,-1.44523 3.6914,-2.10742 2.54507,-1.32439 5.23298,-2.55173 7.91016,-4.07422 1.33859,-0.76125 2.67466,-1.59582 3.98828,-2.55273 1.31363,-0.95692 2.60547,-2.03711 3.85547,-3.28711 z"
       id="rect2869"
       transform="matrix(0.26458333,0,0,0.26458333,0,-224.37905)" />
  </g>
</svg>
