<?xml version="1.0" encoding="UTF-8" standalone="no"?>
<svg
   xmlns:dc="http://purl.org/dc/elements/1.1/"
   xmlns:cc="http://creativecommons.org/ns#"
   xmlns:rdf="http://www.w3.org/1999/02/22-rdf-syntax-ns#"
   xmlns:svg="http://www.w3.org/2000/svg"
   xmlns="http://www.w3.org/2000/svg"
   id="svg8"
   version="1.1"
   viewBox="0 0 26.458333 26.458334"
   height="100"
   width="100">
  <defs
     id="defs2" />
  <metadata
     id="metadata5">
    <rdf:RDF>
      <cc:Work
         rdf:about="">
        <dc:format>image/svg+xml</dc:format>
        <dc:type
           rdf:resource="http://purl.org/dc/dcmitype/StillImage" />
        <dc:title></dc:title>
      </cc:Work>
    </rdf:RDF>
  </metadata>
  <g
     transform="translate(0,-270.54165)"
     id="layer1" />
  <g
     class="tile13"
     id="g2002"
     transform="translate(-58.208333,-151.47914)">
    <path
       class="castle2"
       style="opacity:1;fill:#7f5f2a;fill-opacity:1;stroke:none;stroke-width:0.99999994;stroke-miterlimit:4;stroke-dasharray:none;stroke-opacity:1"
       d="m 0,1210 v 100 c 1.2499998,-1.25 2.6016254,-2.2567 4.0253906,-3.084 1.4237653,-0.8272 2.920173,-1.4742 4.4589844,-2.0019 3.077623,-1.0555 6.326227,-1.6358 9.511719,-2.2325 1.592746,-0.2983 3.169537,-0.6002 4.701172,-0.9687 1.531634,-0.3685 3.017883,-0.8034 4.429687,-1.3652 1.411804,-0.5619 2.749168,-1.2505 3.982422,-2.1289 1.233254,-0.8785 2.363391,-1.9474 3.359375,-3.2657 0.44907,-0.5944 0.750362,-1.2773 0.941406,-2.0273 0.191044,-0.7501 0.270739,-1.5665 0.275391,-2.4278 0.0093,-1.7224 -0.281434,-3.6233 -0.587891,-5.5234 -0.306456,-1.9001 -0.628593,-3.7997 -0.677734,-5.5215 -0.02457,-0.8609 0.01881,-1.6781 0.166016,-2.4277 0.147209,-0.7496 0.398437,-1.4317 0.789062,-2.0254 0.466756,-0.7095 0.892895,-1.5818 1.267578,-2.5703 0.374683,-0.9885 0.697234,-2.0923 0.960938,-3.2676 0.527408,-2.3506 0.815102,-4.9831 0.785156,-7.5273 -0.01497,-1.2722 -0.110298,-2.523 -0.292969,-3.7051 -0.182671,-1.1822 -0.452991,-2.295 -0.822265,-3.2949 -0.369275,-1 -0.837325,-1.8859 -1.41211,-2.6114 -0.574785,-0.7254 -1.255486,-1.2917 -2.054687,-1.6504 -1.670164,-0.7496 -3.407852,-1.6488 -5.105469,-2.6738 -1.697617,-1.025 -3.355627,-2.1745 -4.867188,-3.4258 -1.51156,-1.2513 -2.876286,-2.6046 -3.988281,-4.0332 -1.111995,-1.4286 -1.971784,-2.9333 -2.470703,-4.4902 -1.093848,-3.4133 -2.101544,-6.1041 -3.154297,-8.377 -1.052753,-2.2728 -2.150415,-4.1267 -3.423828,-5.8671 -1.2734133,-1.7405 -2.7226868,-3.3675 -4.4785156,-5.1836 C 4.5625305,1214.5061 2.4999997,1212.5 0,1210 Z"
       id="path1994"
       transform="matrix(0.26458333,0,0,0.26458333,58.208333,-168.66669)" />
    <path
       class="grass1"
       style="opacity:1;fill:#94d35e;fill-opacity:1;stroke:none;stroke-width:0.99999994;stroke-miterlimit:4;stroke-dasharray:none;stroke-opacity:1"
       d="m 0,1210 c 2.4999997,2.5 4.5625305,4.5061 6.3183594,6.3223 1.7558288,1.8161 3.2051023,3.4431 4.4785156,5.1836 1.273413,1.7404 2.371075,3.5943 3.423828,5.8671 1.052753,2.2729 2.060449,4.9637 3.154297,8.377 0.498919,1.5569 1.358708,3.0616 2.470703,4.4902 1.111995,1.4286 2.476721,2.7819 3.988281,4.0332 1.511561,1.2513 3.169571,2.4008 4.867188,3.4258 1.697617,1.025 3.435305,1.9242 5.105469,2.6738 0.799201,0.3587 1.479902,0.925 2.054687,1.6504 0.574785,0.7255 1.042835,1.6114 1.41211,2.6114 0.369273,0.9999 0.639594,2.1127 0.822265,3.2949 0.182671,1.1821 0.277996,2.4329 0.292969,3.7051 0.02995,2.5442 -0.257748,5.1767 -0.785156,7.5273 -0.263704,1.1753 -0.586255,2.2791 -0.960938,3.2676 -0.374683,0.9885 -0.800822,1.8608 -1.267578,2.5703 -0.390625,0.5937 -0.641854,1.2758 -0.789062,2.0254 -0.14721,0.7496 -0.190587,1.5668 -0.166016,2.4277 0.04914,1.7218 0.371278,3.6214 0.677734,5.5215 0.306457,1.9001 0.597195,3.801 0.587891,5.5234 -0.0047,0.8613 -0.08435,1.6777 -0.275391,2.4278 -0.191044,0.75 -0.492336,1.4329 -0.941406,2.0273 -0.995984,1.3183 -2.126121,2.3872 -3.359375,3.2657 -1.233254,0.8783 -2.570618,1.567 -3.982422,2.1289 -1.411804,0.5618 -2.898053,0.9967 -4.429687,1.3652 -1.531635,0.3685 -3.108426,0.6704 -4.701172,0.9687 -3.185492,0.5967 -6.434096,1.177 -9.511719,2.2325 -1.5388114,0.5277 -3.0352191,1.1747 -4.4589844,2.0019 C 2.6016254,1307.7433 1.2499998,1308.75 0,1310 h 100 v -100 c -2.5,2.5 -4.194378,4.5066 -5.5,6.1816 -1.305622,1.675 -2.221518,3.0182 -3.166016,4.1895 -0.944497,1.1712 -1.917358,2.1714 -3.333984,3.1601 -1.416626,0.9888 -3.277993,1.9663 -6,3.0938 -2.103073,0.8711 -3.722379,1.7344 -5.101562,2.5996 -1.379184,0.8652 -2.518027,1.733 -3.66211,2.6133 -1.144083,0.8802 -2.293635,1.7731 -3.691406,2.6894 -1.397772,0.9164 -3.043346,1.8566 -5.183594,2.8301 -0.966962,0.4399 -1.910655,0.7085 -2.847656,0.8379 -0.937001,0.1295 -1.867606,0.1198 -2.806641,0 -1.878068,-0.2356 -3.792923,-0.9044 -5.871093,-1.75 -2.078171,-0.8457 -4.319288,-1.8698 -6.853516,-2.8203 -1.267114,-0.4753 -2.607989,-0.9312 -4.03711,-1.3379 -1.42912,-0.4068 -2.947191,-0.764 -4.570312,-1.0391 -1.84375,-0.3125 -4.476562,-1.1719 -7.544922,-2.4414 -3.068359,-1.2695 -6.572265,-2.9492 -10.158203,-4.9024 -3.585938,-1.9531 -7.253906,-4.1796 -10.6503906,-6.5429 -1.6982422,-1.1817 -3.3293458,-2.398 -4.8476563,-3.6309 C 2.6555177,1212.4995 1.2499998,1211.25 0,1210 Z"
       id="path1997"
       transform="matrix(0.26458333,0,0,0.26458333,58.208333,-168.66669)" />
    <path
       class="castle1"
       style="opacity:1;fill:#7f5f2a;fill-opacity:1;stroke:none;stroke-width:0.99999994;stroke-miterlimit:4;stroke-dasharray:none;stroke-opacity:1"
       d="m 0,1210 c 1.2499998,1.25 2.6555177,2.4995 4.1738281,3.7324 1.5183105,1.2329 3.1494141,2.4492 4.8476563,3.6309 3.3964846,2.3633 7.0644526,4.5898 10.6503906,6.5429 3.585938,1.9532 7.089844,3.6329 10.158203,4.9024 3.06836,1.2695 5.701172,2.1289 7.544922,2.4414 1.623121,0.2751 3.141192,0.6323 4.570312,1.0391 1.429121,0.4067 2.769996,0.8626 4.03711,1.3379 2.534228,0.9505 4.775345,1.9746 6.853516,2.8203 2.07817,0.8456 3.993025,1.5144 5.871093,1.75 0.939035,0.1178 1.86964,0.1275 2.806641,0 0.937001,-0.1294 1.880694,-0.398 2.847656,-0.8379 2.140248,-0.9735 3.785822,-1.9137 5.183594,-2.8301 1.397771,-0.9163 2.547323,-1.8092 3.691406,-2.6894 1.144083,-0.8803 2.282926,-1.7481 3.66211,-2.6133 1.379183,-0.8652 2.998489,-1.7285 5.101562,-2.5996 2.722007,-1.1275 4.583374,-2.105 6,-3.0938 1.416626,-0.9887 2.389487,-1.9889 3.333984,-3.1601 0.944498,-1.1713 1.860394,-2.5145 3.166016,-4.1895 1.305622,-1.675 3,-3.6816 5.5,-6.1816 z"
       id="rect1929-1"
       transform="matrix(0.26458333,0,0,0.26458333,58.208333,-168.66669)" />
  </g>
</svg>
