<?xml version="1.0" encoding="UTF-8" standalone="no"?>
<svg
   xmlns:dc="http://purl.org/dc/elements/1.1/"
   xmlns:cc="http://creativecommons.org/ns#"
   xmlns:rdf="http://www.w3.org/1999/02/22-rdf-syntax-ns#"
   xmlns:svg="http://www.w3.org/2000/svg"
   xmlns="http://www.w3.org/2000/svg"
   id="svg8"
   version="1.1"
   viewBox="0 0 26.458333 26.458334"
   height="100"
   width="100">
  <defs
     id="defs2" />
  <metadata
     id="metadata5">
    <rdf:RDF>
      <cc:Work
         rdf:about="">
        <dc:format>image/svg+xml</dc:format>
        <dc:type
           rdf:resource="http://purl.org/dc/dcmitype/StillImage" />
        <dc:title></dc:title>
      </cc:Work>
    </rdf:RDF>
  </metadata>
  <g
     transform="translate(0,-270.54165)"
     id="layer1" />
  <g
     class="tile15"
     id="g2103"
     transform="translate(-58.208333,-209.68747)">
    <path
       class="castle1"
       style="opacity:1;fill:#7f5f2a;fill-opacity:1;stroke:none;stroke-width:0.99999994;stroke-miterlimit:4;stroke-dasharray:none;stroke-opacity:1"
       d="m 0,1430 v 100 c 1.2500013,-1.25 2.2784038,-2.4038 3.1328125,-3.4746 0.8544087,-1.0708 1.5354635,-2.0588 2.0898437,-2.9727 1.1087606,-1.8277 1.7132811,-3.3633 2.1953126,-4.6972 0.4820314,-1.334 0.8411221,-2.4658 1.4609374,-3.4844 0.3099077,-0.5093 0.6841752,-0.9911 1.1718748,-1.4551 0.4877,-0.4639 1.088554,-0.9106 1.84961,-1.3515 0.743237,-0.4306 1.579828,-0.7037 2.478515,-0.8633 0.898688,-0.1597 1.860029,-0.206 2.855469,-0.1778 1.990881,0.056 4.116869,0.4059 6.142578,0.7149 2.025709,0.3089 3.950055,0.5782 5.541016,0.4746 0.79548,-0.052 1.508674,-0.197 2.107422,-0.4766 0.598747,-0.2796 1.084417,-0.6945 1.427734,-1.2851 0.450052,-0.7742 0.619708,-1.6737 0.578125,-2.6621 -0.04158,-0.9885 -0.294209,-2.0651 -0.691406,-3.1895 -0.794395,-2.2487 -2.165678,-4.6912 -3.566406,-7.0137 -1.400729,-2.3224 -2.831106,-4.5255 -3.75,-6.2949 -0.459448,-0.8847 -0.790824,-1.6601 -0.925782,-2.289 -0.134957,-0.629 -0.0736,-1.1114 0.251953,-1.4063 1.496362,-1.3554 2.802544,-2.1225 3.957032,-2.5996 1.154487,-0.4771 2.156074,-0.6631 3.044921,-0.8574 0.888848,-0.1943 1.663842,-0.3973 2.363282,-0.9043 0.69944,-0.5071 1.323891,-1.319 1.910156,-2.7344 0.637806,-1.5398 1.08854,-2.7934 1.378906,-3.832 0.290367,-1.0386 0.421331,-1.8624 0.417969,-2.543 -0.0034,-0.6806 -0.141385,-1.2178 -0.384766,-1.6836 -0.24338,-0.4658 -0.59375,-0.8597 -1.023437,-1.2539 -0.859375,-0.7883 -2.036022,-1.5764 -3.31836,-2.9375 -0.641168,-0.6806 -1.310219,-1.5044 -1.976562,-2.543 -0.666343,-1.0386 -1.330944,-2.2922 -1.96875,-3.832 -0.221115,-0.5338 -0.246659,-1.1856 -0.128906,-1.9258 0.117752,-0.7401 0.37823,-1.5691 0.726562,-2.457 0.696664,-1.7759 1.747548,-3.7885 2.716797,-5.8047 0.96925,-2.0162 1.856894,-4.0358 2.232422,-5.8242 0.187764,-0.8942 0.248099,-1.731 0.125,-2.4805 -0.123099,-0.7495 -0.428453,-1.4107 -0.970703,-1.957 -1.116754,-1.1252 -2.322269,-2 -3.59375,-2.6875 -1.271482,-0.6875 -2.609334,-1.1891 -3.996094,-1.5684 -2.77352,-0.7586 -5.738388,-1.029 -8.736328,-1.332 -1.49897,-0.1515 -3.006052,-0.3111 -4.501953,-0.543 -1.495902,-0.2318 -2.9802101,-0.5368 -4.4335939,-0.9785 -1.4533838,-0.4417 -2.8766298,-1.0216 -4.2480469,-1.8027 C 2.5699892,1432.2326 1.2500013,1431.25 0,1430 Z"
       id="path2091"
       transform="matrix(0.26458333,0,0,0.26458333,58.208333,-168.66669)" />
    <path
       class="grass2"
       style="opacity:1;fill:#94d35e;fill-opacity:1;stroke:none;stroke-width:0.99999994;stroke-miterlimit:4;stroke-dasharray:none;stroke-opacity:1"
       d="m 55,1430 c 10e-7,1.25 0.238311,2.3945 0.658203,3.459 0.419892,1.0645 1.02108,2.0499 1.75,2.9785 0.72892,0.9286 1.584635,1.8004 2.511719,2.6426 0.927084,0.8422 1.925068,1.6536 2.939453,2.459 2.028771,1.6107 4.121189,3.1983 5.833984,4.9589 0.856398,0.8804 1.61936,1.8048 2.230469,2.7969 0.611109,0.9921 1.071215,2.0516 1.326172,3.2051 0.322633,1.4596 0.514648,2.8451 0.599609,4.1699 0.08496,1.3248 0.06219,2.5891 -0.04297,3.8067 -0.210312,2.435 -0.752042,4.684 -1.4375,6.8554 -0.685459,2.1715 -1.514747,4.2661 -2.294922,6.3946 -0.780175,2.1284 -1.511399,4.2897 -2.00586,6.5957 -0.358062,1.6698 -0.357655,3.4722 -0.179687,5.3535 0.177968,1.8813 0.53319,3.8414 0.884766,5.8281 0.351575,1.9867 0.698567,4.0003 0.861328,5.9863 0.16276,1.9861 0.14043,3.9448 -0.248047,5.8243 -0.251807,1.2182 -0.648574,2.3931 -1.152344,3.5351 -0.50377,1.142 -1.114312,2.2512 -1.789063,3.3399 -1.349501,2.1773 -2.960283,4.2714 -4.507812,6.373 -1.547529,2.1016 -3.03121,4.2108 -4.128906,6.4199 -0.548848,1.1046 -1.00149,2.2346 -1.316406,3.4004 C 55.177271,1527.5486 55.000001,1528.75 55,1530 h 45 v -100 z"
       id="path2097"
       transform="matrix(0.26458333,0,0,0.26458333,58.208333,-168.66669)" />
    <path
       class="street1"
       style="opacity:1;fill:#f7f7f7;fill-opacity:1;stroke:none;stroke-width:0.99999994;stroke-miterlimit:4;stroke-dasharray:none;stroke-opacity:1"
       d="m 45,1430 c 10e-7,1.25 0.245305,2.4323 0.677734,3.5625 0.432429,1.1302 1.051973,2.2083 1.800782,3.25 0.748808,1.0417 1.627032,2.0469 2.576172,3.0313 0.949139,0.9843 1.968531,1.9478 3.001953,2.9062 2.066843,1.9167 4.18685,3.8125 5.894531,5.8125 0.85384,1 1.605336,2.0261 2.195312,3.0937 0.589977,1.0677 1.018451,2.1772 1.228516,3.3438 0.246193,1.3672 0.383482,2.6494 0.431641,3.8633 0.04816,1.2139 0.0063,2.3604 -0.103516,3.4531 -0.219635,2.1854 -0.714982,4.1595 -1.326172,6.0527 -0.61119,1.8933 -1.337251,3.7043 -2.019531,5.5625 -0.682281,1.8582 -1.321,3.7637 -1.753906,5.8438 -0.358048,1.7204 -0.335534,3.4298 -0.119141,5.1289 0.216393,1.6991 0.627172,3.3888 1.044922,5.0723 0.41775,1.6834 0.84382,3.3597 1.089844,5.0332 0.246023,1.6735 0.312458,3.3445 0.01367,5.0136 -0.244909,1.3682 -0.657356,2.7056 -1.191406,4.0196 -0.53405,1.314 -1.190043,2.6039 -1.921875,3.875 -1.463663,2.5422 -3.230858,5.0091 -4.9375,7.4472 -1.706642,2.4381 -3.351558,4.8475 -4.570312,7.2715 -0.609378,1.212 -1.112523,2.427 -1.462891,3.6524 C 45.19846,1527.5144 45.000001,1528.75 45,1530 h 10 c 10e-7,-1.25 0.177271,-2.4514 0.492188,-3.6172 0.314916,-1.1658 0.767558,-2.2958 1.316406,-3.4004 1.097696,-2.2091 2.581377,-4.3183 4.128906,-6.4199 1.547529,-2.1016 3.158311,-4.1957 4.507812,-6.373 0.674751,-1.0887 1.285293,-2.1979 1.789063,-3.3399 0.50377,-1.142 0.900537,-2.3169 1.152344,-3.5351 0.388477,-1.8795 0.410807,-3.8382 0.248047,-5.8243 -0.162761,-1.986 -0.509753,-3.9996 -0.861328,-5.9863 -0.351576,-1.9867 -0.706798,-3.9468 -0.884766,-5.8281 -0.177968,-1.8813 -0.178375,-3.6837 0.179687,-5.3535 0.494461,-2.306 1.225685,-4.4673 2.00586,-6.5957 0.780175,-2.1285 1.609463,-4.2231 2.294922,-6.3946 0.685458,-2.1714 1.227188,-4.4204 1.4375,-6.8554 0.105155,-1.2176 0.12793,-2.4819 0.04297,-3.8067 -0.08496,-1.3248 -0.276976,-2.7103 -0.599609,-4.1699 -0.254957,-1.1535 -0.715063,-2.213 -1.326172,-3.2051 -0.611109,-0.9921 -1.374071,-1.9165 -2.230469,-2.7969 -1.712795,-1.7606 -3.805213,-3.3482 -5.833984,-4.9589 -1.014385,-0.8054 -2.012369,-1.6168 -2.939453,-2.459 -0.927084,-0.8422 -1.782799,-1.714 -2.511719,-2.6426 -0.72892,-0.9286 -1.330108,-1.914 -1.75,-2.9785 C 55.238311,1432.3945 55.000001,1431.25 55,1430 Z"
       id="path2095"
       transform="matrix(0.26458333,0,0,0.26458333,58.208333,-168.66669)" />
    <path
       class="grass1"
       style="opacity:1;fill:#94d35e;fill-opacity:1;stroke:none;stroke-width:0.99999994;stroke-miterlimit:4;stroke-dasharray:none;stroke-opacity:1"
       d="m 0,1430 c 1.2500013,1.25 2.5699893,2.2326 3.9414062,3.0137 1.3714171,0.7811 2.7946631,1.361 4.2480469,1.8027 1.4533838,0.4417 2.9376919,0.7467 4.4335939,0.9785 1.495901,0.2319 3.002983,0.3915 4.501953,0.543 2.99794,0.303 5.962808,0.5734 8.736328,1.332 1.38676,0.3793 2.724612,0.8809 3.996094,1.5684 1.271481,0.6875 2.476996,1.5623 3.59375,2.6875 0.54225,0.5463 0.847604,1.2075 0.970703,1.957 0.123099,0.7495 0.06276,1.5863 -0.125,2.4805 -0.375528,1.7884 -1.263172,3.808 -2.232422,5.8242 -0.969249,2.0162 -2.020133,4.0288 -2.716797,5.8047 -0.348332,0.8879 -0.60881,1.7169 -0.726562,2.457 -0.117753,0.7402 -0.09221,1.392 0.128906,1.9258 0.637806,1.5398 1.302407,2.7934 1.96875,3.832 0.666343,1.0386 1.335395,1.8624 1.976562,2.543 1.282338,1.3611 2.458985,2.1492 3.31836,2.9375 0.429687,0.3942 0.780057,0.7881 1.023437,1.2539 0.243381,0.4658 0.381404,1.003 0.384766,1.6836 0.0034,0.6806 -0.127602,1.5044 -0.417969,2.543 -0.290366,1.0386 -0.7411,2.2922 -1.378906,3.832 -0.586265,1.4154 -1.210716,2.2273 -1.910156,2.7344 -0.69944,0.507 -1.474434,0.71 -2.363282,0.9043 -0.888846,0.1943 -1.890434,0.3803 -3.044921,0.8574 -1.154488,0.4771 -2.46067,1.2442 -3.957032,2.5996 -0.325553,0.2949 -0.38691,0.7773 -0.251953,1.4063 0.134958,0.6289 0.466334,1.4043 0.925782,2.289 0.918893,1.7694 2.349271,3.9725 3.75,6.2949 1.400727,2.3225 2.772011,4.765 3.566406,7.0137 0.397197,1.1244 0.649823,2.201 0.691406,3.1895 0.04158,0.9884 -0.128073,1.8879 -0.578125,2.6621 -0.343317,0.5906 -0.828987,1.0055 -1.427734,1.2851 -0.598748,0.2796 -1.311942,0.4248 -2.107422,0.4766 -1.590961,0.1036 -3.515307,-0.1657 -5.541016,-0.4746 -2.025709,-0.309 -4.151697,-0.6584 -6.142578,-0.7149 -0.99544,-0.028 -1.956781,0.018 -2.855469,0.1778 -0.898687,0.1596 -1.735278,0.4327 -2.478515,0.8633 -0.761056,0.4409 -1.36191,0.8876 -1.84961,1.3515 -0.4876993,0.464 -0.8619671,0.9458 -1.1718748,1.4551 -0.6198152,1.0186 -0.9789061,2.1504 -1.4609374,3.4844 -0.4820315,1.3339 -1.086552,2.8695 -2.1953126,4.6972 -0.5543801,0.9139 -1.235435,1.9019 -2.0898437,2.9727 C 2.2784038,1527.5962 1.2500013,1528.75 0,1530 h 45 c 10e-7,-1.25 0.19846,-2.4856 0.548828,-3.7109 0.350368,-1.2254 0.853513,-2.4404 1.462891,-3.6524 1.218754,-2.424 2.86367,-4.8334 4.570312,-7.2715 1.706642,-2.4381 3.473837,-4.905 4.9375,-7.4472 0.731832,-1.2711 1.387825,-2.561 1.921875,-3.875 0.53405,-1.314 0.946497,-2.6514 1.191406,-4.0196 0.298787,-1.6691 0.232352,-3.3401 -0.01367,-5.0136 -0.246024,-1.6735 -0.672094,-3.3498 -1.089844,-5.0332 -0.41775,-1.6835 -0.828529,-3.3732 -1.044922,-5.0723 -0.216393,-1.6991 -0.238907,-3.4085 0.119141,-5.1289 0.432906,-2.0801 1.071625,-3.9856 1.753906,-5.8438 0.68228,-1.8582 1.408341,-3.6692 2.019531,-5.5625 0.61119,-1.8932 1.106537,-3.8673 1.326172,-6.0527 0.109817,-1.0927 0.151674,-2.2392 0.103516,-3.4531 -0.04816,-1.2139 -0.185448,-2.4961 -0.431641,-3.8633 -0.210065,-1.1666 -0.638539,-2.2761 -1.228516,-3.3438 -0.589976,-1.0676 -1.341472,-2.0937 -2.195312,-3.0937 -1.707681,-2 -3.827688,-3.8958 -5.894531,-5.8125 -1.033422,-0.9584 -2.052814,-1.9219 -3.001953,-2.9062 -0.94914,-0.9844 -1.827364,-1.9896 -2.576172,-3.0313 -0.748809,-1.0417 -1.368353,-2.1198 -1.800782,-3.25 C 45.245305,1432.4323 45.000001,1431.25 45,1430 Z"
       id="rect2049-0"
       transform="matrix(0.26458333,0,0,0.26458333,58.208333,-168.66669)" />
  </g>
</svg>
