<?xml version="1.0" encoding="UTF-8" standalone="no"?>
<svg
   xmlns:dc="http://purl.org/dc/elements/1.1/"
   xmlns:cc="http://creativecommons.org/ns#"
   xmlns:rdf="http://www.w3.org/1999/02/22-rdf-syntax-ns#"
   xmlns:svg="http://www.w3.org/2000/svg"
   xmlns="http://www.w3.org/2000/svg"
   id="svg8"
   version="1.1"
   viewBox="0 0 26.458333 26.458334"
   height="100"
   width="100">
  <defs
     id="defs2" />
  <metadata
     id="metadata5">
    <rdf:RDF>
      <cc:Work
         rdf:about="">
        <dc:format>image/svg+xml</dc:format>
        <dc:type
           rdf:resource="http://purl.org/dc/dcmitype/StillImage" />
        <dc:title></dc:title>
      </cc:Work>
    </rdf:RDF>
  </metadata>
  <g
     transform="translate(0,-270.54165)"
     id="layer1" />
  <g
     class="tile5"
     id="g1183"
     transform="translate(-58.208333,81.354184)">
    <path
       class="church1"
       style="opacity:1;fill:#bf89d3;fill-opacity:1;stroke:none;stroke-width:11.33858299;stroke-miterlimit:4;stroke-dasharray:none;stroke-opacity:1"
       d="m 40.623047,355 a 5.6249998,4.6875084 0 0 0 -0.398438,0.0117 5.6249998,4.6875084 0 0 0 -0.55664,0.0566 5.6249998,4.6875084 0 0 0 -0.548828,0.10156 5.6249998,4.6875084 0 0 0 -0.533203,0.14844 5.6249998,4.6875084 0 0 0 -0.002,0 5.6249998,4.6875084 0 0 0 -0.511718,0.19141 5.6249998,4.6875084 0 0 0 -0.488282,0.23242 5.6249998,4.6875084 0 0 0 -0.457031,0.27343 5.6249998,4.6875084 0 0 0 -0.421875,0.3086 5.6249998,4.6875084 0 0 0 -0.382812,0.3418 5.6249998,4.6875084 0 0 0 -0.002,0.002 5.6249998,4.6875084 0 0 0 -0.339843,0.37305 5.6249998,4.6875084 0 0 0 -0.292969,0.39843 5.6249998,4.6875084 0 0 0 -0.244141,0.42188 5.6249998,4.6875084 0 0 0 -0.002,0 5.6249998,4.6875084 0 0 0 -0.189453,0.4414 5.6249998,4.6875084 0 0 0 -0.140625,0.45313 5.6249998,4.6875084 0 0 0 -0.08398,0.46289 A 5.6249998,4.6875084 0 0 0 35,359.6875 V 392.5 a 15,12.500024 0 0 0 0.01563,0.51953 15,12.500024 0 0 0 0.136719,1.24414 15,12.500024 0 0 0 0.285156,1.22656 15,12.500024 0 0 0 0.431641,1.19727 15,12.500024 0 0 0 0.572265,1.1543 15,12.500024 0 0 0 0.707032,1.10156 15,12.500024 0 0 0 0.835937,1.03711 15,12.500024 0 0 0 0.955078,0.96289 15,12.500024 0 0 0 0.002,0 15,12.500024 0 0 0 1.066406,0.87891 15,12.500024 0 0 0 1.166016,0.7832 15,12.500024 0 0 0 1.253906,0.68555 15,12.500024 0 0 0 0.002,0 15,12.500024 0 0 0 1.330078,0.57617 15,12.500024 0 0 0 1.392578,0.46093 15,12.500024 0 0 0 1.439453,0.34571 15,12.500024 0 0 0 0.002,0 15,12.500024 0 0 0 1.474609,0.22265 15,12.500024 0 0 0 1.494141,0.0977 15,12.500024 0 0 0 0.002,0 15,12.500024 0 0 0 1.498047,-0.0254 15,12.500024 0 0 0 1.488281,-0.15039 15,12.500024 0 0 0 1.462891,-0.27344 15,12.500024 0 0 0 1.421875,-0.39453 15,12.500024 0 0 0 0.002,0 15,12.500024 0 0 0 1.369141,-0.50977 15,12.500024 0 0 0 1.298828,-0.62304 15,12.500024 0 0 0 0.002,0 15,12.500024 0 0 0 1.21875,-0.72656 15,12.500024 0 0 0 1.126953,-0.82422 15,12.500024 0 0 0 1.021484,-0.91407 15,12.500024 0 0 0 0.908203,-0.99414 15,12.500024 0 0 0 0.78125,-1.0664 15,12.500024 0 0 0 0.002,0 15,12.500024 0 0 0 0.652343,-1.125 15,12.500024 0 0 0 0.513672,-1.17383 15,12.500024 0 0 0 0.371094,-1.21094 15,12.500024 0 0 0 0.224609,-1.23437 15,12.500024 0 0 0 0.07422,-1.24805 v -32.8125 a 5.6249998,4.6875084 0 0 0 -0.01563,-0.33203 5.6249998,4.6875084 0 0 0 -0.06836,-0.46485 5.6249998,4.6875084 0 0 0 -0.123047,-0.45703 5.6249998,4.6875084 0 0 0 -0.177734,-0.44531 5.6249998,4.6875084 0 0 0 -0.228516,-0.42773 5.6249998,4.6875084 0 0 0 -0.28125,-0.40625 5.6249998,4.6875084 0 0 0 -0.326172,-0.38086 5.6249998,4.6875084 0 0 0 -0.371094,-0.35156 5.6249998,4.6875084 0 0 0 -0.412109,-0.32032 5.6249998,4.6875084 0 0 0 -0.447266,-0.2832 5.6249998,4.6875084 0 0 0 -0.478515,-0.24414 5.6249998,4.6875084 0 0 0 -0.50586,-0.20508 5.6249998,4.6875084 0 0 0 -0.529297,-0.16016 5.6249998,4.6875084 0 0 0 -0.544921,-0.11523 A 5.6249998,4.6875084 0 0 0 59.9375,355.02344 5.6249998,4.6875084 0 0 0 59.375,355 Z"
       id="path5065"
       transform="matrix(0.26458333,0,0,0.26458333,58.208333,-168.66669)" />
    <path
       class="street1"
       style="opacity:1;fill:#f7f7f7;fill-opacity:1;stroke:none;stroke-width:11.33858299;stroke-miterlimit:4;stroke-dasharray:none;stroke-opacity:1"
       d="m 100,375 c -2.500001,0 -4.925726,0.052 -7.275391,0.23242 -2.349664,0.18046 -4.623002,0.48962 -6.818359,1.00586 -2.195357,0.51624 -4.312533,1.23874 -6.349609,2.2461 -2.037077,1.00735 -3.994316,2.29933 -5.869141,3.95312 -0.95464,0.84209 -1.740016,1.6541 -2.392578,2.44922 -0.652562,0.79511 -1.17208,1.57404 -1.591797,2.35156 -0.839435,1.55504 -1.282008,3.10464 -1.605469,4.76563 -0.323461,1.66098 -0.527313,3.43353 -0.888672,5.43554 -0.361358,2.00202 -0.880858,4.23242 -1.833984,6.81055 -0.578045,1.56356 -1.10946,3.56691 -1.878906,5.13867 -0.384723,0.78588 -0.829539,1.46468 -1.369141,1.92578 -0.539602,0.46111 -1.17362,0.70461 -1.939453,0.62305 -0.667294,-0.0711 -1.326054,-0.22789 -1.9375,-0.52148 -0.611446,-0.2936 -1.174636,-0.72285 -1.65625,-1.3418 -0.481614,-0.61895 -0.880404,-1.42748 -1.158203,-2.47461 -0.237583,-0.89554 -0.334735,-2.06723 -0.373047,-3.3457 a 15,12.500024 0 0 1 -1.048828,0.29101 15,12.500024 0 0 1 -1.462891,0.27344 15,12.500024 0 0 1 -1.488281,0.15039 15,12.500024 0 0 1 -1.498047,0.0254 15,12.500024 0 0 0 -0.002,0 15,12.500024 0 0 1 -1.494141,-0.0977 15,12.500024 0 0 1 -1.474609,-0.22265 15,12.500024 0 0 0 -0.002,0 15,12.500024 0 0 1 -1.439453,-0.34571 15,12.500024 0 0 1 -0.0098,-0.004 c 0.288671,1.4159 0.56344,2.73544 0.865234,3.85742 0.351606,1.30716 0.742154,2.45349 1.242188,3.52734 0.500034,1.07386 1.109401,2.07493 1.898438,3.09375 0.789036,1.01883 1.75795,2.05518 2.976562,3.19727 0.562518,0.52719 1.222936,0.99111 1.957031,1.38281 0.734096,0.3917 1.541308,0.71189 2.398438,0.94727 0.85713,0.23537 1.76369,0.38709 2.695312,0.44531 0.931622,0.0582 1.888132,0.0226 2.845703,-0.11719 0.957572,-0.13976 1.916584,-0.3836 2.851563,-0.74218 0.934979,-0.35859 1.847094,-0.83147 2.710937,-1.42969 0.863844,-0.59823 1.679663,-1.32294 2.423828,-2.18164 0.744166,-0.8587 1.416242,-1.85219 1.992188,-2.99219 0.577147,-1.14238 1.029135,-2.2549 1.392578,-3.34375 0.363443,-1.08885 0.637803,-2.1541 0.863281,-3.19922 0.450957,-2.09023 0.703108,-4.10217 1.056641,-6.07617 0.353533,-1.974 0.809854,-3.90964 1.671875,-5.8457 0.43101,-0.96803 0.963025,-1.93693 1.634766,-2.91016 0.671741,-0.97323 1.482492,-1.95124 2.470703,-2.93945 1.25,-1.25 2.432236,-2.12518 3.658203,-2.73438 1.225966,-0.6092 2.495586,-0.9514 3.921875,-1.13867 1.426288,-0.18727 3.008408,-0.21892 4.859375,-0.20312 C 95.380264,384.93767 97.499999,385 100,385 Z"
       id="path1178"
       transform="matrix(0.26458333,0,0,0.26458333,58.208333,-168.66669)" />
    <path
       class="grass1"
       style="opacity:1;fill:#94d35e;fill-opacity:1;stroke:none;stroke-width:11.33858299;stroke-miterlimit:4;stroke-dasharray:none;stroke-opacity:1"
       d="m 0,330 v 100 h 100 v -45 c -2.500001,0 -4.619736,-0.0623 -6.470703,-0.0781 -1.850967,-0.0158 -3.433087,0.0159 -4.859375,0.20312 -1.426289,0.18727 -2.695909,0.52947 -3.921875,1.13867 -1.225967,0.6092 -2.408203,1.48438 -3.658203,2.73438 -0.988211,0.98821 -1.798962,1.96622 -2.470703,2.93945 -0.671741,0.97323 -1.203756,1.94213 -1.634766,2.91016 -0.862021,1.93606 -1.318342,3.8717 -1.671875,5.8457 -0.353533,1.974 -0.605684,3.98594 -1.056641,6.07617 -0.225478,1.04512 -0.499838,2.11037 -0.863281,3.19922 -0.363443,1.08885 -0.815431,2.20137 -1.392578,3.34375 -0.575946,1.14 -1.248022,2.13349 -1.992188,2.99219 -0.744165,0.8587 -1.559984,1.58341 -2.423828,2.18164 -0.863843,0.59822 -1.775958,1.0711 -2.710937,1.42969 -0.934979,0.35858 -1.893991,0.60242 -2.851563,0.74218 -0.957571,0.13977 -1.914081,0.17541 -2.845703,0.11719 -0.931622,-0.0582 -1.838182,-0.20994 -2.695312,-0.44531 -0.85713,-0.23538 -1.664342,-0.55557 -2.398438,-0.94727 C 53.347936,418.99111 52.687518,418.52719 52.125,418 c -1.218612,-1.14209 -2.187526,-2.17844 -2.976562,-3.19727 -0.789037,-1.01882 -1.398404,-2.01989 -1.898438,-3.09375 -0.500034,-1.07385 -0.890582,-2.22018 -1.242188,-3.52734 -0.301794,-1.12198 -0.576563,-2.44152 -0.865234,-3.85742 a 15,12.500024 0 0 1 -1.382812,-0.45703 15,12.500024 0 0 1 -1.330078,-0.57617 15,12.500024 0 0 0 -0.002,0 15,12.500024 0 0 1 -1.253906,-0.68555 15,12.500024 0 0 1 -1.166016,-0.7832 15,12.500024 0 0 1 -1.066406,-0.87891 15,12.500024 0 0 0 -0.002,0 15,12.500024 0 0 1 -0.955078,-0.96289 15,12.500024 0 0 1 -0.835937,-1.03711 15,12.500024 0 0 1 -0.707032,-1.10156 15,12.500024 0 0 1 -0.572265,-1.1543 15,12.500024 0 0 1 -0.431641,-1.19727 15,12.500024 0 0 1 -0.285156,-1.22656 15,12.500024 0 0 1 -0.136719,-1.24414 A 15,12.500024 0 0 1 35,392.5 v -32.8125 a 5.6249997,4.6875083 0 0 1 0.02734,-0.46875 5.6249997,4.6875083 0 0 1 0.08398,-0.46289 5.6249997,4.6875083 0 0 1 0.140625,-0.45313 5.6249997,4.6875083 0 0 1 0.189453,-0.4414 5.6249997,4.6875083 0 0 0 0.002,0 5.6249997,4.6875083 0 0 1 0.244141,-0.42188 5.6249997,4.6875083 0 0 1 0.292969,-0.39843 5.6249997,4.6875083 0 0 1 0.339843,-0.37305 5.6249997,4.6875083 0 0 0 0.002,-0.002 5.6249997,4.6875083 0 0 1 0.382812,-0.3418 5.6249997,4.6875083 0 0 1 0.421875,-0.3086 5.6249997,4.6875083 0 0 1 0.457031,-0.27343 5.6249997,4.6875083 0 0 1 0.488282,-0.23242 5.6249997,4.6875083 0 0 1 0.511718,-0.19141 5.6249997,4.6875083 0 0 0 0.002,0 5.6249997,4.6875083 0 0 1 0.533203,-0.14844 5.6249997,4.6875083 0 0 1 0.548828,-0.10156 5.6249997,4.6875083 0 0 1 0.55664,-0.0566 A 5.6249997,4.6875083 0 0 1 40.623047,355 H 59.375 a 5.6249997,4.6875083 0 0 1 0.5625,0.0234 5.6249997,4.6875083 0 0 1 0.554688,0.0703 5.6249997,4.6875083 0 0 1 0.544921,0.11523 5.6249997,4.6875083 0 0 1 0.529297,0.16016 5.6249997,4.6875083 0 0 1 0.50586,0.20508 5.6249997,4.6875083 0 0 1 0.478515,0.24414 5.6249997,4.6875083 0 0 1 0.447266,0.2832 5.6249997,4.6875083 0 0 1 0.412109,0.32032 5.6249997,4.6875083 0 0 1 0.371094,0.35156 5.6249997,4.6875083 0 0 1 0.326172,0.38086 5.6249997,4.6875083 0 0 1 0.28125,0.40625 5.6249997,4.6875083 0 0 1 0.228516,0.42773 5.6249997,4.6875083 0 0 1 0.177734,0.44531 5.6249997,4.6875083 0 0 1 0.123047,0.45703 5.6249997,4.6875083 0 0 1 0.06836,0.46485 5.6249997,4.6875083 0 0 1 0.01563,0.33203 V 392.5 a 15,12.500024 0 0 1 -0.07422,1.24805 15,12.500024 0 0 1 -0.224609,1.23437 15,12.500024 0 0 1 -0.371094,1.21094 15,12.500024 0 0 1 -0.513672,1.17383 15,12.500024 0 0 1 -0.652343,1.125 15,12.500024 0 0 0 -0.002,0 15,12.500024 0 0 1 -0.78125,1.0664 15,12.500024 0 0 1 -0.908203,0.99414 15,12.500024 0 0 1 -1.021484,0.91407 15,12.500024 0 0 1 -1.126953,0.82422 15,12.500024 0 0 1 -1.21875,0.72656 15,12.500024 0 0 0 -0.002,0 15,12.500024 0 0 1 -1.298828,0.62304 15,12.500024 0 0 1 -1.369141,0.50977 15,12.500024 0 0 0 -0.002,0 15,12.500024 0 0 1 -0.373047,0.10352 c 0.03831,1.27847 0.135464,2.45016 0.373047,3.3457 0.277799,1.04713 0.676589,1.85566 1.158203,2.47461 0.481614,0.61895 1.044804,1.0482 1.65625,1.3418 0.611446,0.29359 1.270206,0.45042 1.9375,0.52148 0.765833,0.0816 1.399851,-0.16194 1.939453,-0.62305 0.539602,-0.4611 0.984418,-1.1399 1.369141,-1.92578 0.769446,-1.57176 1.300861,-3.57511 1.878906,-5.13867 0.953126,-2.57813 1.472626,-4.80853 1.833984,-6.81055 0.361359,-2.00201 0.565211,-3.77456 0.888672,-5.43554 0.323461,-1.66099 0.766034,-3.21059 1.605469,-4.76563 0.419717,-0.77752 0.939235,-1.55645 1.591797,-2.35156 0.652562,-0.79512 1.437938,-1.60713 2.392578,-2.44922 1.874825,-1.65379 3.832064,-2.94577 5.869141,-3.95312 2.037076,-1.00736 4.154252,-1.72986 6.349609,-2.2461 2.195357,-0.51624 4.468695,-0.8254 6.818359,-1.00586 C 95.074274,375.05197 97.499999,375 100,375 v -45 z"
       id="rect5047"
       transform="matrix(0.26458333,0,0,0.26458333,58.208333,-168.66669)" />
  </g>
</svg>
