<?xml version="1.0" encoding="UTF-8" standalone="no"?>
<svg
   xmlns:dc="http://purl.org/dc/elements/1.1/"
   xmlns:cc="http://creativecommons.org/ns#"
   xmlns:rdf="http://www.w3.org/1999/02/22-rdf-syntax-ns#"
   xmlns:svg="http://www.w3.org/2000/svg"
   xmlns="http://www.w3.org/2000/svg"
   id="svg8"
   version="1.1"
   viewBox="0 0 26.458333 26.458334"
   height="100"
   width="100">
  <defs
     id="defs2" />
  <metadata
     id="metadata5">
    <rdf:RDF>
      <cc:Work
         rdf:about="">
        <dc:format>image/svg+xml</dc:format>
        <dc:type
           rdf:resource="http://purl.org/dc/dcmitype/StillImage" />
        <dc:title></dc:title>
      </cc:Work>
    </rdf:RDF>
  </metadata>
  <g
     transform="translate(0,-270.54165)"
     id="layer1" />
  <g
     class="tile17"
     id="g2307"
     transform="translate(-58.208333,-267.8958)">
    <path
       class="castle1"
       style="opacity:1;fill:#7f5f2a;fill-opacity:1;stroke:none;stroke-width:0.99999994;stroke-miterlimit:4;stroke-dasharray:none;stroke-opacity:1"
       d="m 0,1650 v 100 c 1.2499998,-1.25 2.4196396,-2.2605 3.5195312,-3.0977 1.0998917,-0.8372 2.1293733,-1.5006 3.1015626,-2.0566 1.9443784,-1.1121 3.6566062,-1.7932 5.2246092,-2.5703 0.784002,-0.3886 1.532343,-0.8024 2.255859,-1.3047 0.723517,-0.5023 1.421985,-1.0942 2.107422,-1.8418 0.685437,-0.7476 1.357581,-1.6508 2.027344,-2.7754 0.669763,-1.1246 1.337177,-2.4703 2.013672,-4.1035 0.603128,-1.4561 1.010161,-3.2521 1.283203,-5.2285 0.273042,-1.9764 0.41251,-4.1327 0.480469,-6.3125 0.135917,-4.3596 -0.01286,-8.8091 0.05273,-12.0801 0.01828,-0.9118 0.173495,-1.8273 0.427735,-2.7422 0.254239,-0.9149 0.607458,-1.8286 1.017578,-2.7422 0.820239,-1.8271 1.870694,-3.6484 2.833984,-5.4433 0.96329,-1.795 1.838972,-3.564 2.304688,-5.291 0.232858,-0.8636 0.363215,-1.7168 0.351562,-2.5567 -0.01165,-0.8399 -0.165712,-1.6667 -0.501953,-2.4785 -0.202003,-0.4877 -0.232193,-1.1638 -0.136719,-1.9824 0.09547,-0.8187 0.317342,-1.7803 0.615235,-2.836 0.595786,-2.1113 1.500821,-4.6019 2.335937,-7.0976 0.835116,-2.4957 1.60008,-4.9966 1.914063,-7.125 0.156991,-1.0642 0.199862,-2.0358 0.08398,-2.8672 -0.115878,-0.8314 -0.391194,-1.5227 -0.875,-2.0273 -1.136426,-1.1855 -2.339205,-2.1288 -3.59375,-2.8907 -1.254545,-0.7619 -2.561325,-1.3411 -3.904297,-1.8027 -2.685943,-0.9233 -5.517407,-1.3698 -8.378906,-1.832 -1.430749,-0.2312 -2.868728,-0.4668 -4.298828,-0.7676 -1.4301,-0.3009 -2.8541478,-0.6682 -4.2539065,-1.1621 -1.3997587,-0.4939 -2.7755091,-1.1136 -4.1152344,-1.9239 C 2.5528528,1652.2503 1.2499998,1651.25 0,1650 Z"
       id="path2296"
       transform="matrix(0.26458333,0,0,0.26458333,58.208333,-168.66669)" />
    <path
       class="grass2"
       style="opacity:1;fill:#94d35e;fill-opacity:1;stroke:none;stroke-width:0.99999994;stroke-miterlimit:4;stroke-dasharray:none;stroke-opacity:1"
       d="m 100,1705 c -1.25,0 -2.526093,-0.2659 -3.828125,-0.7285 -1.302032,-0.4626 -2.629394,-1.1221 -3.980469,-1.9121 -2.70215,-1.5801 -5.500463,-3.6794 -8.380859,-5.7578 -1.440198,-1.0392 -2.900582,-2.0723 -4.380859,-3.0332 -1.480278,-0.961 -2.980678,-1.8502 -4.498047,-2.5977 -1.517369,-0.7475 -3.052043,-1.3551 -4.603516,-1.7539 -1.551473,-0.3989 -3.118584,-0.5889 -4.701172,-0.5039 -1.598326,0.086 -3.417253,0.3587 -5.246094,0.8183 -1.82884,0.4597 -3.667981,1.1062 -5.310547,1.9415 -0.821282,0.4176 -1.592496,0.8826 -2.289062,1.3945 -0.696566,0.5118 -1.318139,1.0714 -1.837891,1.6777 -0.519751,0.6063 -0.937678,1.26 -1.228515,1.961 -0.290838,0.7009 -0.455019,1.4482 -0.464844,2.2441 -0.01562,1.2656 0.176833,2.4758 0.529297,3.6406 0.352464,1.1648 0.865044,2.2849 1.486328,3.3731 1.242568,2.1763 2.924238,4.223 4.646484,6.2383 1.722247,2.0152 3.484791,3.9989 4.892579,6.0468 0.703893,1.024 1.318543,2.0644 1.794921,3.1328 0.476378,1.0685 0.815249,2.1656 0.964844,3.3028 0.148268,1.1271 0.12574,2.2132 -0.02734,3.2734 -0.153083,1.0602 -0.436916,2.0926 -0.810547,3.1094 -0.74726,2.0336 -1.855384,4.0048 -3,6.0058 -1.144615,2.0011 -2.325173,4.033 -3.220703,6.1895 -0.447764,1.0783 -0.825558,2.1875 -1.089843,3.3398 C 55.15173,1747.5547 55,1748.75 55,1750 h 45 z"
       id="path2301"
       transform="matrix(0.26458333,0,0,0.26458333,58.208333,-168.66669)" />
    <path
       class="street1"
       style="opacity:1;fill:#f7f7f7;fill-opacity:1;stroke:none;stroke-width:0.99999994;stroke-miterlimit:4;stroke-dasharray:none;stroke-opacity:1"
       d="m 100,1695 c -1.25,0 -2.536739,-0.2418 -3.855469,-0.6641 -1.318729,-0.4222 -2.669502,-1.0243 -4.048828,-1.7441 -2.758651,-1.4395 -5.629799,-3.3495 -8.582031,-5.2305 -1.476116,-0.9405 -2.972064,-1.8746 -4.484375,-2.7383 -1.512311,-0.8636 -3.041659,-1.6581 -4.582031,-2.3203 -1.540373,-0.6621 -3.092044,-1.1915 -4.652344,-1.5273 -1.5603,-0.3359 -3.129078,-0.4766 -4.701172,-0.3613 -2.289146,0.1677 -4.735225,0.5916 -7.160156,1.2714 -2.424931,0.6799 -4.829229,1.6154 -7.033203,2.8028 -1.101988,0.5937 -2.152954,1.251 -3.132813,1.9707 -0.979859,0.7197 -1.888033,1.5025 -2.701172,2.3476 -0.813138,0.8452 -1.530987,1.7527 -2.132812,2.7227 -0.601825,0.97 -1.087675,2.0014 -1.433594,3.0957 -0.403618,1.2768 -0.60104,2.5376 -0.625,3.7852 -0.02396,1.2476 0.126494,2.4831 0.416016,3.7089 0.289521,1.2259 0.719033,2.4427 1.255859,3.6543 0.536826,1.2116 1.180483,2.4163 1.898437,3.6211 1.435909,2.4096 3.168282,4.8131 4.931641,7.2403 1.763359,2.4272 3.557745,4.8783 5.119141,7.3828 0.468825,0.752 0.671225,1.5658 0.667968,2.4336 -0.0033,0.8678 -0.213111,1.7895 -0.570312,2.7578 -0.714402,1.9365 -2.018093,4.0599 -3.439453,6.3066 -1.42136,2.2468 -2.959352,4.6182 -4.142578,7.0528 -0.591613,1.2172 -1.094344,2.4501 -1.449219,3.6914 C 45.207625,1747.5011 45,1748.75 45,1750 h 10 c 0,-1.25 0.15173,-2.4453 0.416016,-3.5977 0.264285,-1.1523 0.642079,-2.2615 1.089843,-3.3398 0.89553,-2.1565 2.076088,-4.1884 3.220703,-6.1895 1.144616,-2.001 2.25274,-3.9722 3,-6.0058 0.373631,-1.0168 0.657464,-2.0492 0.810547,-3.1094 0.153084,-1.0602 0.175612,-2.1463 0.02734,-3.2734 -0.149595,-1.1372 -0.488466,-2.2343 -0.964844,-3.3028 -0.476378,-1.0684 -1.091028,-2.1088 -1.794921,-3.1328 -1.407788,-2.0479 -3.170332,-4.0316 -4.892579,-6.0468 -1.722246,-2.0153 -3.403916,-4.062 -4.646484,-6.2383 -0.621284,-1.0882 -1.133864,-2.2083 -1.486328,-3.3731 -0.352464,-1.1648 -0.544921,-2.375 -0.529297,-3.6406 0.0098,-0.7959 0.174006,-1.5432 0.464844,-2.2441 0.290837,-0.701 0.708764,-1.3547 1.228515,-1.961 0.519752,-0.6063 1.141325,-1.1659 1.837891,-1.6777 0.696566,-0.5119 1.46778,-0.9769 2.289062,-1.3945 1.642566,-0.8353 3.481707,-1.4818 5.310547,-1.9415 1.828841,-0.4596 3.647768,-0.7324 5.246094,-0.8183 1.582588,-0.085 3.149699,0.105 4.701172,0.5039 1.551473,0.3988 3.086147,1.0064 4.603516,1.7539 1.517369,0.7475 3.017769,1.6367 4.498047,2.5977 1.480277,0.9609 2.940661,1.994 4.380859,3.0332 2.880396,2.0784 5.678709,4.1777 8.380859,5.7578 1.351075,0.79 2.678437,1.4495 3.980469,1.9121 C 97.473907,1704.7341 98.75,1705 100,1705 Z"
       id="path2299"
       transform="matrix(0.26458333,0,0,0.26458333,58.208333,-168.66669)" />
    <path
       class="grass1"
       style="opacity:1;fill:#94d35e;fill-opacity:1;stroke:none;stroke-width:0.99999994;stroke-miterlimit:4;stroke-dasharray:none;stroke-opacity:1"
       d="m 0,1650 c 1.2499998,1.25 2.5528528,2.2503 3.8925781,3.0605 1.3397253,0.8103 2.7154757,1.43 4.1152344,1.9239 1.3997587,0.4939 2.8238065,0.8612 4.2539065,1.1621 1.4301,0.3008 2.868079,0.5364 4.298828,0.7676 2.861499,0.4622 5.692963,0.9087 8.378906,1.832 1.342972,0.4616 2.649752,1.0408 3.904297,1.8027 1.254545,0.7619 2.457324,1.7052 3.59375,2.8907 0.483806,0.5046 0.759122,1.1959 0.875,2.0273 0.115878,0.8314 0.07301,1.803 -0.08398,2.8672 -0.313983,2.1284 -1.078947,4.6293 -1.914063,7.125 -0.835116,2.4957 -1.740151,4.9863 -2.335937,7.0976 -0.297893,1.0557 -0.519761,2.0173 -0.615235,2.836 -0.09547,0.8186 -0.06528,1.4947 0.136719,1.9824 0.336241,0.8118 0.4903,1.6386 0.501953,2.4785 0.01165,0.8399 -0.118704,1.6931 -0.351562,2.5567 -0.465716,1.727 -1.341398,3.496 -2.304688,5.291 -0.96329,1.7949 -2.013745,3.6162 -2.833984,5.4433 -0.41012,0.9136 -0.763339,1.8273 -1.017578,2.7422 -0.25424,0.9149 -0.409453,1.8304 -0.427735,2.7422 -0.06559,3.271 0.08318,7.7205 -0.05273,12.0801 -0.06796,2.1798 -0.207427,4.3361 -0.480469,6.3125 -0.273042,1.9764 -0.680075,3.7724 -1.283203,5.2285 -0.676495,1.6332 -1.343909,2.9789 -2.013672,4.1035 -0.669763,1.1246 -1.341907,2.0278 -2.027344,2.7754 -0.685437,0.7476 -1.383905,1.3395 -2.107422,1.8418 -0.723515,0.5023 -1.471857,0.9161 -2.255859,1.3047 -1.568003,0.7771 -3.2802309,1.4582 -5.2246092,2.5703 -0.9721893,0.556 -2.0016709,1.2194 -3.1015626,2.0566 C 2.4196397,1747.7395 1.2499998,1748.75 0,1750 h 45 c 0,-1.25 0.207625,-2.4989 0.5625,-3.7402 0.354875,-1.2413 0.857606,-2.4742 1.449219,-3.6914 1.183226,-2.4346 2.721218,-4.806 4.142578,-7.0528 1.42136,-2.2467 2.725051,-4.3701 3.439453,-6.3066 0.357201,-0.9683 0.567056,-1.89 0.570312,-2.7578 0.0033,-0.8678 -0.199143,-1.6816 -0.667968,-2.4336 -1.561396,-2.5045 -3.355782,-4.9556 -5.119141,-7.3828 -1.763359,-2.4272 -3.495732,-4.8307 -4.931641,-7.2403 -0.717954,-1.2048 -1.361611,-2.4095 -1.898437,-3.6211 -0.536826,-1.2116 -0.966338,-2.4284 -1.255859,-3.6543 -0.289522,-1.2258 -0.439976,-2.4613 -0.416016,-3.7089 0.02396,-1.2476 0.221382,-2.5084 0.625,-3.7852 0.345919,-1.0943 0.831769,-2.1257 1.433594,-3.0957 0.601825,-0.97 1.319674,-1.8775 2.132812,-2.7227 0.813139,-0.8451 1.721313,-1.6279 2.701172,-2.3476 0.979859,-0.7197 2.030825,-1.377 3.132813,-1.9707 2.203974,-1.1874 4.608272,-2.1229 7.033203,-2.8028 2.424931,-0.6798 4.87101,-1.1037 7.160156,-1.2714 1.572094,-0.1153 3.140872,0.025 4.701172,0.3613 1.5603,0.3358 3.111971,0.8652 4.652344,1.5273 1.540372,0.6622 3.06972,1.4567 4.582031,2.3203 1.512311,0.8637 3.008259,1.7978 4.484375,2.7383 2.952232,1.881 5.82338,3.791 8.582031,5.2305 1.379326,0.7198 2.730099,1.3219 4.048828,1.7441 C 97.463261,1694.7582 98.75,1695 100,1695 v -45 z"
       id="rect2193-2"
       transform="matrix(0.26458333,0,0,0.26458333,58.208333,-168.66669)" />
  </g>
</svg>
