<?xml version="1.0" encoding="UTF-8" standalone="no"?>
<svg
   xmlns:dc="http://purl.org/dc/elements/1.1/"
   xmlns:cc="http://creativecommons.org/ns#"
   xmlns:rdf="http://www.w3.org/1999/02/22-rdf-syntax-ns#"
   xmlns:svg="http://www.w3.org/2000/svg"
   xmlns="http://www.w3.org/2000/svg"
   id="svg8"
   version="1.1"
   viewBox="0 0 26.458333 26.458334"
   height="100"
   width="100">
  <defs
     id="defs2" />
  <metadata
     id="metadata5">
    <rdf:RDF>
      <cc:Work
         rdf:about="">
        <dc:format>image/svg+xml</dc:format>
        <dc:type
           rdf:resource="http://purl.org/dc/dcmitype/StillImage" />
        <dc:title></dc:title>
      </cc:Work>
    </rdf:RDF>
  </metadata>
  <g
     transform="translate(0,-270.54165)"
     id="layer1" />
  <g
     class="tile11"
     id="g1927"
     transform="translate(-58.208333,-122.37498)">
    <rect
       class="castle1"
       style="opacity:1;fill:#7f5f2a;fill-opacity:1;stroke:none;stroke-width:2.64583325;stroke-miterlimit:4;stroke-dasharray:none;stroke-opacity:1"
       id="rect1878-3"
       width="26.458334"
       height="26.458334"
       x="58.208336"
       y="122.37502" />
    <path
       class="grass2"
       style="fill:#94d35e;fill-opacity:1;stroke:none;stroke-width:0.99999994;stroke-linecap:butt;stroke-linejoin:miter;stroke-miterlimit:4;stroke-dasharray:none;stroke-opacity:1"
       d="m 100,1155 c -4.187501,0 -7.027423,0.2295 -9.230469,0.6367 -2.203046,0.4072 -3.769407,0.9916 -5.408203,1.6992 -1.74943,0.7555 -3.370375,1.1322 -4.880859,1.2071 -1.510485,0.075 -2.910808,-0.151 -4.21875,-0.5977 -1.307942,-0.4466 -2.522261,-1.1149 -3.664063,-1.9238 -1.141802,-0.809 -2.210591,-1.7594 -3.222656,-2.7715 -0.589256,-0.5893 -1.091325,-1.3071 -1.519531,-2.1113 -0.428207,-0.8042 -0.782093,-1.6942 -1.074219,-2.6309 -0.584252,-1.8733 -0.921581,-3.9294 -1.111328,-5.8379 -0.208527,-2.0974 -0.108494,-2.5673 -0.09375,-3.8711 -1.54073,0.5744 -2.908949,1.4405 -3.826172,2.9512 -3.416712,5.6273 0.36824,14.4512 2.875,21.375 1.671919,4.6179 6.913455,12.2371 10.921875,18.0938 C 83.080815,1192.2264 90.000016,1190 100,1200 Z"
       id="path1921"
       transform="matrix(0.26458333,0,0,0.26458333,58.208333,-168.66669)" />
    <path
       class="street1"
       style="fill:#f7f7f7;fill-opacity:1;stroke:none;stroke-width:0.99999994;stroke-linecap:butt;stroke-linejoin:miter;stroke-miterlimit:4;stroke-dasharray:none;stroke-opacity:1"
       d="m 100,1145 c -2.500001,0 -4.550528,0.097 -6.273438,0.252 -1.722909,0.1548 -3.118117,0.3679 -4.304687,0.6035 -2.373139,0.4712 -3.91365,1.03 -5.585937,1.3789 -1.083184,0.2259 -2.022713,0.3219 -2.847657,0.2988 -0.824943,-0.023 -1.535467,-0.1662 -2.160156,-0.418 -0.624689,-0.2517 -1.164064,-0.6121 -1.646484,-1.0722 -0.482421,-0.4601 -0.908505,-1.0199 -1.306641,-1.668 -0.436197,-0.7101 -0.701416,-1.6735 -0.853516,-2.7207 -0.152099,-1.0472 -0.19108,-2.1775 -0.175781,-3.2188 0.0032,-0.2145 0.02202,-0.187 0.0293,-0.3925 -3.127951,-0.1956 -6.488434,-0.2919 -9.298828,0.7558 -0.01474,1.3038 -0.114777,1.7737 0.09375,3.8711 0.189747,1.9085 0.527076,3.9646 1.111328,5.8379 0.292126,0.9367 0.646012,1.8267 1.074219,2.6309 0.428206,0.8042 0.930275,1.522 1.519531,2.1113 1.012065,1.0121 2.080854,1.9625 3.222656,2.7715 1.141802,0.8089 2.356121,1.4772 3.664063,1.9238 1.307942,0.4467 2.708265,0.6725 4.21875,0.5977 1.510484,-0.075 3.131429,-0.4516 4.880859,-1.2071 1.638796,-0.7076 3.205157,-1.292 5.408203,-1.6992 C 92.972577,1155.2295 95.812499,1155 100,1155 Z"
       id="path1919"
       transform="matrix(0.26458333,0,0,0.26458333,58.208333,-168.66669)" />
    <path
       class="grass1"
       style="fill:#94d35e;fill-opacity:1;stroke:none;stroke-width:0.99999994;stroke-linecap:butt;stroke-linejoin:miter;stroke-miterlimit:4;stroke-dasharray:none;stroke-opacity:1"
       d="m 100,1100 c -9.999984,9.9999 -14.612073,5.7161 -16.441406,19.6973 -1.184493,9.0528 0.941424,15.8026 -1.558594,17.8027 -1.190818,0.9527 -4.022018,0.7369 -7.125,0.543 -0.0073,0.2055 -0.02614,0.178 -0.0293,0.3925 -0.0153,1.0413 0.02368,2.1716 0.175781,3.2188 0.1521,1.0472 0.417319,2.0106 0.853516,2.7207 0.398136,0.6481 0.82422,1.2079 1.306641,1.668 0.48242,0.4601 1.021795,0.8205 1.646484,1.0722 0.624689,0.2518 1.335213,0.3949 2.160156,0.418 0.824944,0.023 1.764473,-0.073 2.847657,-0.2988 1.672287,-0.3489 3.212798,-0.9077 5.585937,-1.3789 1.18657,-0.2356 2.581778,-0.4487 4.304687,-0.6035 C 95.449472,1145.0971 97.499999,1145 100,1145 Z"
       id="path1880-5"
       transform="matrix(0.26458333,0,0,0.26458333,58.208333,-168.66669)" />
  </g>
</svg>
