<?xml version="1.0" encoding="UTF-8" standalone="no"?>
<svg
   xmlns:dc="http://purl.org/dc/elements/1.1/"
   xmlns:cc="http://creativecommons.org/ns#"
   xmlns:rdf="http://www.w3.org/1999/02/22-rdf-syntax-ns#"
   xmlns:svg="http://www.w3.org/2000/svg"
   xmlns="http://www.w3.org/2000/svg"
   id="svg8"
   version="1.1"
   viewBox="0 0 26.458333 26.458334"
   height="100"
   width="100">
  <defs
     id="defs2" />
  <metadata
     id="metadata5">
    <rdf:RDF>
      <cc:Work
         rdf:about="">
        <dc:format>image/svg+xml</dc:format>
        <dc:type
           rdf:resource="http://purl.org/dc/dcmitype/StillImage" />
        <dc:title></dc:title>
      </cc:Work>
    </rdf:RDF>
  </metadata>
  <g
     transform="translate(0,-270.54165)"
     id="layer1" />
  <g
     class="tile11"
     id="g1876"
     transform="translate(-58.208333,-93.270814)">
    <path
       class="grass1"
       style="opacity:1;fill:#94d35e;fill-opacity:1;stroke:none;stroke-width:10;stroke-miterlimit:4;stroke-dasharray:none;stroke-opacity:1"
       d="m 100,990 c -2.499997,2.5 -4.687275,4.37561 -6.667969,5.87891 -1.980693,1.50329 -3.754954,2.63524 -5.427734,3.64843 -1.67278,1.01316 -3.244055,1.90786 -4.820313,2.93746 -1.576257,1.0297 -3.156531,2.1934 -4.847656,3.7461 -1.108993,1.0183 -2.01578,2.0334 -2.755859,3.0469 -0.74008,1.0135 -1.313595,2.0252 -1.761719,3.0391 -0.448124,1.0139 -0.770781,2.0293 -1.003906,3.0488 -0.233126,1.0195 -0.377571,2.044 -0.472656,3.0742 -0.190171,2.0605 -0.181495,4.1467 -0.28125,6.2813 -0.09976,2.1345 -0.308591,4.3164 -0.933594,6.5664 -0.434918,1.5657 -0.631624,2.9824 -0.585938,4.4121 0.04569,1.4296 0.335033,2.8717 0.869141,4.4883 0.534108,1.6165 1.313404,3.4087 2.34375,5.5351 1.030346,2.1264 2.311302,4.5877 3.845703,7.5469 0.875004,1.6875 1.387069,3.2761 1.736328,4.7832 0.349259,1.5071 0.535748,2.9336 0.761719,4.293 0.225971,1.3594 0.490952,2.6519 0.996094,3.8965 0.505141,1.2445 1.25073,2.441 2.4375,3.6035 2.185435,2.1406 3.689259,3.8459 4.871093,5.3574 1.181834,1.5115 2.041679,2.8277 2.941407,4.1894 0.899727,1.3617 1.838619,2.7698 3.177734,4.461 1.339115,1.6912 3.078128,3.666 5.578125,6.166 z"
       id="path1872"
       transform="matrix(0.26458333,0,0,0.26458333,58.208333,-168.66669)" />
    <path
       class="castle1"
       style="opacity:1;fill:#7f5f2a;fill-opacity:1;stroke:none;stroke-width:10;stroke-miterlimit:4;stroke-dasharray:none;stroke-opacity:1"
       d="m 0,990 v 100 h 100 c -2.499997,-2.5 -4.23901,-4.4748 -5.578125,-6.166 -1.339115,-1.6912 -2.278007,-3.0993 -3.177734,-4.461 -0.899728,-1.3617 -1.759573,-2.6779 -2.941407,-4.1894 -1.181834,-1.5115 -2.685658,-3.2168 -4.871093,-5.3574 -1.18677,-1.1625 -1.932359,-2.359 -2.4375,-3.6035 -0.505142,-1.2446 -0.770123,-2.5371 -0.996094,-3.8965 -0.225971,-1.3594 -0.41246,-2.7859 -0.761719,-4.293 -0.349259,-1.5071 -0.861324,-3.0957 -1.736328,-4.7832 -1.534401,-2.9592 -2.815357,-5.4205 -3.845703,-7.5469 -1.030346,-2.1264 -1.809642,-3.9186 -2.34375,-5.5351 -0.534108,-1.6166 -0.823454,-3.0587 -0.869141,-4.4883 -0.04569,-1.4297 0.15102,-2.8464 0.585938,-4.4121 0.625003,-2.25 0.833838,-4.4319 0.933594,-6.5664 0.09976,-2.1346 0.09108,-4.2208 0.28125,-6.2813 0.09508,-1.0302 0.23953,-2.0547 0.472656,-3.0742 0.233125,-1.0195 0.555782,-2.0349 1.003906,-3.0488 0.448124,-1.0139 1.021639,-2.0256 1.761719,-3.0391 0.740079,-1.0135 1.646866,-2.0286 2.755859,-3.0469 1.691125,-1.5527 3.271399,-2.7164 4.847656,-3.7461 1.576258,-1.0296 3.147533,-1.9243 4.820313,-2.93746 1.67278,-1.01319 3.447041,-2.14514 5.427734,-3.64843 C 95.312725,994.37561 97.500003,992.5 100,990 Z"
       id="rect1842-7"
       transform="matrix(0.26458333,0,0,0.26458333,58.208333,-168.66669)" />
  </g>
</svg>
