<?xml version="1.0" encoding="UTF-8" standalone="no"?>
<svg
   xmlns:dc="http://purl.org/dc/elements/1.1/"
   xmlns:cc="http://creativecommons.org/ns#"
   xmlns:rdf="http://www.w3.org/1999/02/22-rdf-syntax-ns#"
   xmlns:svg="http://www.w3.org/2000/svg"
   xmlns="http://www.w3.org/2000/svg"
   id="svg8"
   version="1.1"
   viewBox="0 0 26.458333 26.458334"
   height="100"
   width="100">
  <defs
     id="defs2" />
  <metadata
     id="metadata5">
    <rdf:RDF>
      <cc:Work
         rdf:about="">
        <dc:format>image/svg+xml</dc:format>
        <dc:type
           rdf:resource="http://purl.org/dc/dcmitype/StillImage" />
        <dc:title></dc:title>
      </cc:Work>
    </rdf:RDF>
  </metadata>
  <g
     transform="translate(0,-270.54165)"
     id="layer1" />
  <g
     class="tile19"
     id="g2396"
     transform="translate(-58.208333,-326.10413)">
    <path
       class="castle1"
       transform="matrix(0.26458333,0,0,0.26458333,58.208333,-168.66669)"
       id="path2399"
       d="m 0,1870 v 100 h 100 c -1.25,-1.25 -2.458722,-2.6313 -3.634766,-4.0879 -1.176044,-1.4566 -2.319156,-2.9879 -3.435546,-4.5371 -2.232781,-3.0985 -4.361427,-6.2697 -6.441407,-9.0547 -1.03999,-1.3925 -2.066601,-2.6888 -3.089843,-3.832 -1.023243,-1.1432 -2.041702,-2.1323 -3.0625,-2.9121 -1.020799,-0.7799 -2.04547,-1.3499 -3.078126,-1.6524 -1.032655,-0.3025 -2.073996,-0.3376 -3.132812,-0.049 -1.031224,0.2813 -2.98438,1.0312 -5.441406,1.8906 -2.457027,0.8594 -5.417962,1.8282 -8.464844,2.5469 -1.523441,0.3594 -3.067867,0.6563 -4.582031,0.8457 -1.514165,0.1895 -2.998043,0.2715 -4.398438,0.2012 -1.400395,-0.07 -2.718259,-0.293 -3.90039,-0.7129 -1.182132,-0.4199 -2.228516,-1.0371 -3.087891,-1.8965 -6.333332,-6.3333 -18.000002,-18.25 -24.75,-25 -0.84375,-0.8438 -1.279134,-1.6727 -1.408203,-2.4922 -0.129069,-0.8195 0.04818,-1.6295 0.427734,-2.4336 0.379557,-0.804 0.962403,-1.603 1.644531,-2.4004 0.682129,-0.7973 1.463542,-1.5931 2.242188,-2.3926 0.778646,-0.7994 1.553548,-1.6017 2.222656,-2.4121 0.669108,-0.8103 1.232422,-1.6289 1.585938,-2.4589 0.353515,-0.8301 0.498209,-1.6727 0.330078,-2.5313 C 26.376791,1903.7703 25.895833,1902.8958 25,1902 c -1.687492,-1.6875 -3.468761,-3.9063 -5.347656,-6.4414 -1.878895,-2.5352 -3.85548,-5.3867 -5.933594,-8.3398 -2.078114,-2.9532 -4.2578197,-6.0079 -6.5429688,-8.9493 C 4.8906322,1875.3281 2.4999997,1872.5 0,1870 Z"
       style="opacity:1;fill:#7f5f2a;fill-opacity:1;stroke:none;stroke-width:0.99999994;stroke-miterlimit:4;stroke-dasharray:none;stroke-opacity:1" />
    <path
       class="grass2"
       transform="matrix(0.26458333,0,0,0.26458333,58.208333,-168.66669)"
       id="path2404"
       d="m 55,1870 c 0,1.25 0.133672,2.4379 0.373047,3.5762 0.239375,1.1382 0.583639,2.227 1.005859,3.2812 0.844441,2.1084 1.999683,4.0753 3.236328,6.0137 1.236646,1.9384 2.555806,3.8477 3.732422,5.8379 1.176617,1.9901 2.210648,4.0626 2.875,6.3262 0.347267,1.1832 0.567621,2.3592 0.697266,3.5214 0.129645,1.1623 0.167944,2.3111 0.146484,3.4395 -0.04292,2.2569 -0.322071,4.4318 -0.570312,6.4766 -0.248242,2.0447 -0.465283,3.9575 -0.386719,5.6875 0.03928,0.8649 0.152289,1.6841 0.373047,2.4511 0.220758,0.767 0.548828,1.4825 1.017578,2.1387 0.76743,1.0744 1.695546,1.8216 2.75,2.3066 1.054454,0.4851 2.235013,0.7087 3.511719,0.7344 1.276705,0.026 2.647846,-0.1455 4.082031,-0.4492 1.434185,-0.3037 2.932092,-0.7412 4.458984,-1.2441 3.053785,-1.006 6.227691,-2.2797 9.263672,-3.3028 1.517991,-0.5115 3.001587,-0.9605 4.417969,-1.2812 C 97.400757,1915.1929 98.75,1915 100,1915 v -45 z"
       style="opacity:1;fill:#94d35e;fill-opacity:1;stroke:none;stroke-width:0.99999994;stroke-miterlimit:4;stroke-dasharray:none;stroke-opacity:1" />
    <path
       class="street1"
       transform="matrix(0.26458333,0,0,0.26458333,58.208333,-168.66669)"
       id="path2402"
       d="m 45,1870 c 0,1.25 0.161365,2.4428 0.449219,3.5918 0.287853,1.149 0.703036,2.255 1.208984,3.3281 1.011896,2.1462 2.389755,4.1656 3.855469,6.1582 1.465713,1.9927 3.019405,3.9587 4.380859,5.9981 0.680727,1.0197 1.313259,2.058 1.863281,3.1269 0.550023,1.069 1.015676,2.1673 1.365235,3.3106 0.374038,1.2233 0.592035,2.5131 0.699219,3.8457 0.107183,1.3326 0.105201,2.7086 0.04297,4.1054 -0.124465,2.7938 -0.491485,5.6706 -0.708984,8.4512 -0.10875,1.3903 -0.180165,2.7567 -0.166016,4.0762 0.01415,1.3195 0.115124,2.5932 0.34961,3.7969 0.234486,1.2036 0.602035,2.338 1.154297,3.3808 0.552261,1.0428 1.288384,1.9932 2.255859,2.8301 1.205787,1.043 2.552499,1.8105 4.003906,2.3535 1.451407,0.5431 3.00829,0.8611 4.636719,1.0098 1.628429,0.1487 3.327601,0.1264 5.064453,-0.014 1.736853,-0.1401 3.510431,-0.3974 5.28711,-0.7207 3.553356,-0.6465 7.11885,-1.5532 10.419921,-2.2988 1.650536,-0.3728 3.234183,-0.7061 4.71875,-0.9453 C 97.365426,1925.1456 98.75,1925 100,1925 v -10 c -1.25,0 -2.599243,0.1929 -4.015625,0.5137 -1.416382,0.3207 -2.899978,0.7697 -4.417969,1.2812 -3.035981,1.0231 -6.209887,2.2968 -9.263672,3.3028 -1.526892,0.5029 -3.024799,0.9404 -4.458984,1.2441 -1.434185,0.3037 -2.805326,0.4749 -4.082031,0.4492 -1.276706,-0.026 -2.457265,-0.2493 -3.511719,-0.7344 -1.054454,-0.485 -1.98257,-1.2322 -2.75,-2.3066 -0.46875,-0.6562 -0.79682,-1.3717 -1.017578,-2.1387 -0.220758,-0.767 -0.333765,-1.5862 -0.373047,-2.4511 -0.07856,-1.73 0.138477,-3.6428 0.386719,-5.6875 0.248241,-2.0448 0.527393,-4.2197 0.570312,-6.4766 0.02146,-1.1284 -0.01684,-2.2772 -0.146484,-3.4395 -0.129645,-1.1622 -0.349999,-2.3382 -0.697266,-3.5214 -0.664352,-2.2636 -1.698383,-4.3361 -2.875,-6.3262 -1.176616,-1.9902 -2.495776,-3.8995 -3.732422,-5.8379 -1.236645,-1.9384 -2.391887,-3.9053 -3.236328,-6.0137 -0.42222,-1.0542 -0.766484,-2.143 -1.005859,-3.2812 C 55.133672,1872.4379 55,1871.25 55,1870 Z"
       style="opacity:1;fill:#f7f7f7;fill-opacity:1;stroke:none;stroke-width:0.99999994;stroke-miterlimit:4;stroke-dasharray:none;stroke-opacity:1" />
    <path
       class="grass1"
       transform="matrix(0.26458333,0,0,0.26458333,58.208333,-168.66669)"
       id="rect2337-7"
       d="m 0,1870 c 2.4999997,2.5 4.8906323,5.3281 7.1757812,8.2695 2.2851491,2.9414 4.4648548,5.9961 6.5429688,8.9493 2.078114,2.953 4.054699,5.8046 5.933594,8.3398 1.878895,2.5351 3.660164,4.7539 5.347656,6.4414 0.895833,0.8958 1.376791,1.7703 1.544922,2.6289 0.168131,0.8586 0.02344,1.7012 -0.330078,2.5313 -0.353516,0.83 -0.91683,1.6486 -1.585938,2.4589 -0.669108,0.8104 -1.44401,1.6128 -2.222656,2.4121 -0.778646,0.7995 -1.560059,1.5953 -2.242188,2.3926 -0.682127,0.7974 -1.264974,1.5964 -1.644531,2.4004 -0.379557,0.8041 -0.556803,1.6141 -0.427734,2.4336 0.129069,0.8195 0.564453,1.6484 1.408203,2.4922 6.749998,6.75 18.416668,18.6667 24.75,25 0.859375,0.8594 1.905759,1.4766 3.087891,1.8965 1.182131,0.4199 2.499995,0.6426 3.90039,0.7129 1.400395,0.07 2.884273,-0.012 4.398438,-0.2012 1.514164,-0.1894 3.05859,-0.4863 4.582031,-0.8457 3.046882,-0.7187 6.007817,-1.6875 8.464844,-2.5469 2.457026,-0.8594 4.410182,-1.6093 5.441406,-1.8906 1.058816,-0.2888 2.100158,-0.2537 3.132812,0.049 1.032656,0.3025 2.057327,0.8725 3.078126,1.6524 1.020797,0.7798 2.039257,1.7689 3.0625,2.9121 1.023241,1.1432 2.049853,2.4395 3.089843,3.832 2.07998,2.785 4.208626,5.9562 6.441407,9.0547 1.116389,1.5492 2.259502,3.0805 3.435546,4.5371 C 97.541278,1967.3687 98.75,1968.75 100,1970 v -45 c -1.25,0 -2.634574,0.1456 -4.119141,0.3848 -1.484567,0.2392 -3.068214,0.5725 -4.71875,0.9453 -3.301071,0.7456 -6.866565,1.6523 -10.419921,2.2988 -1.776679,0.3233 -3.550257,0.5806 -5.28711,0.7207 -1.736852,0.1401 -3.436024,0.1624 -5.064453,0.014 -1.628429,-0.1487 -3.185312,-0.4667 -4.636719,-1.0098 -1.451407,-0.543 -2.798119,-1.3105 -4.003906,-2.3535 -0.967475,-0.8369 -1.703598,-1.7873 -2.255859,-2.8301 -0.552262,-1.0428 -0.919811,-2.1772 -1.154297,-3.3808 -0.234486,-1.2037 -0.33546,-2.4774 -0.34961,-3.7969 -0.01415,-1.3195 0.05727,-2.6859 0.166016,-4.0762 0.217499,-2.7806 0.584519,-5.6574 0.708984,-8.4512 0.06223,-1.3968 0.06421,-2.7728 -0.04297,-4.1054 -0.107184,-1.3326 -0.325181,-2.6224 -0.699219,-3.8457 -0.349559,-1.1433 -0.815212,-2.2416 -1.365235,-3.3106 -0.550022,-1.0689 -1.182554,-2.1072 -1.863281,-3.1269 -1.361454,-2.0394 -2.915146,-4.0054 -4.380859,-5.9981 -1.465714,-1.9926 -2.843573,-4.012 -3.855469,-6.1582 -0.505948,-1.0731 -0.921131,-2.1791 -1.208984,-3.3281 C 45.161365,1872.4428 45,1871.25 45,1870 Z"
       style="opacity:1;fill:#94d35e;fill-opacity:1;stroke:none;stroke-width:0.99999994;stroke-miterlimit:4;stroke-dasharray:none;stroke-opacity:1" />
  </g>
</svg>
