<?xml version="1.0" encoding="UTF-8" standalone="no"?>
<svg
   xmlns:dc="http://purl.org/dc/elements/1.1/"
   xmlns:cc="http://creativecommons.org/ns#"
   xmlns:rdf="http://www.w3.org/1999/02/22-rdf-syntax-ns#"
   xmlns:svg="http://www.w3.org/2000/svg"
   xmlns="http://www.w3.org/2000/svg"
   id="svg8"
   version="1.1"
   viewBox="0 0 26.458333 26.458334"
   height="100"
   width="100">
  <defs
     id="defs2" />
  <metadata
     id="metadata5">
    <rdf:RDF>
      <cc:Work
         rdf:about="">
        <dc:format>image/svg+xml</dc:format>
        <dc:type
           rdf:resource="http://purl.org/dc/dcmitype/StillImage" />
        <dc:title></dc:title>
      </cc:Work>
    </rdf:RDF>
  </metadata>
  <g
     transform="translate(0,-270.54165)"
     id="layer1" />
  <g
     transform="translate(-58.208329,-5.9582659)"
     class="tile7"
     id="g1389">
    <path
       class="grass2"
       style="opacity:1;fill:#94d35e;fill-opacity:1;stroke:none;stroke-width:10;stroke-miterlimit:4;stroke-dasharray:none;stroke-opacity:1"
       d="m 100,715 c -1.25,0 -2.384187,0.12106 -3.443359,0.32617 -1.059172,0.20512 -2.043225,0.49491 -2.990235,0.83008 -1.894019,0.67035 -3.643178,1.52538 -5.560547,2.26563 -0.958684,0.37012 -1.958495,0.71131 -3.041015,0.98632 -1.082521,0.27502 -2.246227,0.48305 -3.53125,0.58789 -1.285023,0.10485 -2.691621,0.10718 -4.257813,-0.0332 -1.566192,-0.14037 -3.292723,-0.42216 -5.21875,-0.88281 -1.542499,-0.36893 -3.014133,-0.89555 -4.457031,-1.51953 -1.442898,-0.62399 -2.85703,-1.3464 -4.283203,-2.10743 -2.852347,-1.52205 -5.754404,-3.20043 -9.037109,-4.5625 -1.641353,-0.68103 -3.378697,-1.28209 -5.251954,-1.74609 -1.873256,-0.464 -3.882276,-0.79098 -6.070312,-0.91992 -2.188036,-0.12894 -4.554933,-0.0605 -7.140625,0.26367 -2.585693,0.32414 -5.390806,0.90553 -8.457031,1.80078 -5.815627,1.698 -10.130992,2.87544 -14.242188,3.62891 -2.055598,0.37673 -4.0600595,0.64779 -6.1757811,0.82422 C 4.7260753,714.91861 2.4999997,715 0,715 v 45 h 100 z"
       id="path1384"
       transform="matrix(0.26458333,0,0,0.26458333,58.208333,-168.66669)" />
    <path
       class="street1"
       style="opacity:1;fill:#f7f7f7;fill-opacity:1;stroke:none;stroke-width:10;stroke-miterlimit:4;stroke-dasharray:none;stroke-opacity:1"
       d="m 100,705 c -1.236172,0 -2.455029,0.15681 -3.662109,0.41602 -1.207081,0.2592 -2.402878,0.6217 -3.589844,1.03125 -2.373933,0.81909 -4.715156,1.82836 -7.0625,2.5957 -1.173672,0.38367 -2.348806,0.70661 -3.529297,0.91406 -1.180491,0.20745 -2.368165,0.30028 -3.564453,0.22266 -1.196289,-0.0776 -2.401984,-0.32532 -3.623047,-0.79688 -1.221063,-0.47156 -2.456122,-1.16628 -3.710938,-2.14062 -1.644283,-1.27676 -3.444481,-2.41347 -5.357421,-3.41602 -1.912941,-1.00255 -3.939774,-1.87103 -6.035157,-2.61133 -2.095383,-0.74029 -4.259559,-1.35376 -6.451172,-1.84375 -2.191612,-0.48999 -4.4097,-0.85773 -6.611328,-1.10937 -2.201627,-0.25165 -4.386289,-0.38686 -6.511718,-0.41211 -2.12543,-0.0253 -4.191279,0.0608 -6.154297,0.25 -1.963018,0.18918 -3.82467,0.48138 -5.539063,0.87305 -1.714393,0.39166 -3.282555,0.88265 -4.662109,1.46484 -2.298574,0.97002 -4.319167,1.73993 -6.212891,2.34961 -1.893724,0.60968 -3.66078,1.05882 -5.453125,1.38672 -1.792345,0.3279 -3.6090784,0.53353 -5.6035154,0.6582 C 4.6715787,704.9567 2.4999997,705 0,705 v 10 c 2.4999997,0 4.7260753,-0.0814 6.8417969,-0.25781 2.1157216,-0.17643 4.1201831,-0.44749 6.1757811,-0.82422 4.111196,-0.75347 8.426561,-1.93091 14.242188,-3.62891 3.066225,-0.89525 5.871338,-1.47664 8.457031,-1.80078 2.585692,-0.32414 4.952589,-0.39261 7.140625,-0.26367 2.188036,0.12894 4.197056,0.45592 6.070312,0.91992 1.873257,0.464 3.610601,1.06506 5.251954,1.74609 3.282705,1.36207 6.184762,3.04045 9.037109,4.5625 1.426173,0.76103 2.840305,1.48344 4.283203,2.10743 1.442898,0.62398 2.914532,1.1506 4.457031,1.51953 1.926027,0.46065 3.652558,0.74244 5.21875,0.88281 1.566192,0.14038 2.97279,0.13805 4.257813,0.0332 1.285023,-0.10484 2.448729,-0.31287 3.53125,-0.58789 1.08252,-0.27501 2.082331,-0.6162 3.041015,-0.98632 1.917369,-0.74025 3.666528,-1.59528 5.560547,-2.26563 0.94701,-0.33517 1.931063,-0.62496 2.990235,-0.83008 C 97.615813,715.12106 98.75,715 100,715 Z"
       id="path1382"
       transform="matrix(0.26458333,0,0,0.26458333,58.208333,-168.66669)" />
    <path
       class="grass1"
       style="opacity:1;fill:#94d35e;fill-opacity:1;stroke:none;stroke-width:10;stroke-miterlimit:4;stroke-dasharray:none;stroke-opacity:1"
       d="m 0,660 v 45 c 2.4999997,0 4.6715787,-0.0433 6.6660156,-0.16797 1.994437,-0.12467 3.8111704,-0.3303 5.6035154,-0.6582 1.792345,-0.3279 3.559401,-0.77704 5.453125,-1.38672 1.893724,-0.60968 3.914317,-1.37959 6.212891,-2.34961 1.379554,-0.58219 2.947716,-1.07318 4.662109,-1.46484 1.714393,-0.39167 3.576045,-0.68387 5.539063,-0.87305 1.963018,-0.18918 4.028867,-0.27525 6.154297,-0.25 2.125429,0.0253 4.310091,0.16046 6.511718,0.41211 2.201628,0.25164 4.419716,0.61938 6.611328,1.10937 2.191613,0.48999 4.355789,1.10346 6.451172,1.84375 2.095383,0.7403 4.122216,1.60878 6.035157,2.61133 1.91294,1.00255 3.713138,2.13926 5.357421,3.41602 1.254816,0.97434 2.489875,1.66906 3.710938,2.14062 1.221063,0.47156 2.426758,0.71925 3.623047,0.79688 1.196288,0.0776 2.383962,-0.0152 3.564453,-0.22266 1.180491,-0.20745 2.355625,-0.53039 3.529297,-0.91406 2.347344,-0.76734 4.688567,-1.77661 7.0625,-2.5957 1.186966,-0.40955 2.382763,-0.77205 3.589844,-1.03125 C 97.544971,705.15681 98.763828,705 100,705 v -45 z"
       id="rect1374"
       transform="matrix(0.26458333,0,0,0.26458333,58.208333,-168.66669)" />
  </g>
</svg>
