<?xml version="1.0" encoding="UTF-8" standalone="no"?>
<svg
   xmlns:dc="http://purl.org/dc/elements/1.1/"
   xmlns:cc="http://creativecommons.org/ns#"
   xmlns:rdf="http://www.w3.org/1999/02/22-rdf-syntax-ns#"
   xmlns:svg="http://www.w3.org/2000/svg"
   xmlns="http://www.w3.org/2000/svg"
   id="svg8"
   version="1.1"
   viewBox="0 0 26.458333 26.458334"
   height="100"
   width="100">
  <defs
     id="defs2" />
  <metadata
     id="metadata5">
    <rdf:RDF>
      <cc:Work
         rdf:about="">
        <dc:format>image/svg+xml</dc:format>
        <dc:type
           rdf:resource="http://purl.org/dc/dcmitype/StillImage" />
        <dc:title></dc:title>
      </cc:Work>
    </rdf:RDF>
  </metadata>
  <g
     transform="translate(0,-270.54165)"
     id="layer1" />
  <g
     class="tile6"
     id="g1312"
     transform="translate(-58.208333,52.250018)">
    <path
       class="grass4"
       style="opacity:1;fill:#94d35e;fill-opacity:1;stroke:none;stroke-width:11.33858299;stroke-miterlimit:4;stroke-dasharray:none;stroke-opacity:1"
       d="m 45,540 c 2e-6,-2.33484 0.319428,-4.45198 0.845703,-6.91211 0.526275,-2.46013 1.258457,-5.26227 2.082031,-8.9668 0.470048,-2.11432 0.721882,-4.66321 0.769532,-7.32421 0.04765,-2.66101 -0.108691,-5.43566 -0.449219,-8 -0.340528,-2.56435 -0.866063,-4.91786 -1.560547,-6.74219 -0.347242,-0.91217 -0.736701,-1.6923 -1.166016,-2.29883 -0.429314,-0.60654 -0.89914,-1.04123 -1.40625,-1.26172 -1.082311,-0.47058 -2.781109,-0.77443 -4.814453,-0.97266 -2.033343,-0.19823 -4.400904,-0.28984 -6.816406,-0.33398 -4.831004,-0.0883 -9.856341,0.0135 -12.802734,-0.16797 C 15.40784,496.7563 12.012821,496.25145 8.9238281,495.8125 5.8348354,495.37355 3.0513128,495 0,495 v 45 z"
       id="path1271"
       transform="matrix(0.26458333,0,0,0.26458333,58.208333,-168.66669)" />
    <path
       class="grass3"
       style="opacity:1;fill:#94d35e;fill-opacity:1;stroke:none;stroke-width:11.33858299;stroke-miterlimit:4;stroke-dasharray:none;stroke-opacity:1"
       d="m 100,495 c -2.468092,0.11174 -6.196359,0.8592 -10.441406,1.59961 -2.122524,0.3702 -4.373833,0.73931 -6.66211,1.02539 -2.288277,0.28608 -4.612486,0.49016 -6.880859,0.53125 -2.202629,0.0399 -4.354948,-0.0865 -6.347656,-0.25 -1.992708,-0.16349 -3.826004,-0.36453 -5.396485,-0.47656 -1.570481,-0.11204 -2.876551,-0.13567 -3.8125,0.0586 -0.467974,0.0971 -0.843747,0.24922 -1.113281,0.4707 -0.269534,0.22149 -0.433961,0.51293 -0.478515,0.89063 -0.213929,1.81349 -0.20747,3.82983 -0.101563,5.93164 0.105907,2.10181 0.311099,4.29005 0.494141,6.44922 0.183041,2.15917 0.343853,4.28786 0.361328,6.27344 0.01747,1.98557 -0.107254,3.82718 -0.498047,5.4082 -0.735445,2.97541 -1.766508,5.42598 -2.613281,8.04297 -0.423387,1.30849 -0.80069,2.65798 -1.072266,4.13672 C 55.165924,536.57053 55.000003,538.1778 55,540 h 45 z"
       id="path1269"
       transform="matrix(0.26458333,0,0,0.26458333,58.208333,-168.66669)" />
    <path
       class="grass2"
       style="opacity:1;fill:#94d35e;fill-opacity:1;stroke:none;stroke-width:11.33858299;stroke-miterlimit:4;stroke-dasharray:none;stroke-opacity:1"
       d="m 55,440 c 2e-6,1.34425 -0.20878,3.10266 -0.527344,5.13477 -0.318564,2.0321 -0.747112,4.33758 -1.183594,6.77539 -0.436481,2.4378 -0.880623,5.00895 -1.234374,7.57031 -0.353752,2.56136 -0.617128,5.11286 -0.6875,7.51562 -0.06051,2.06585 -0.05791,3.96625 0.03125,5.71094 0.08916,1.7447 0.264149,3.3342 0.550781,4.77539 0.286631,1.44119 0.684903,2.73528 1.216797,3.89063 0.531894,1.15534 1.198486,2.17145 2.023437,3.05859 0.302655,0.32547 1.135824,0.70231 2.359375,1.08203 1.223551,0.37972 2.837652,0.76286 4.701172,1.09961 1.86352,0.33675 3.976657,0.62765 6.199219,0.82422 2.222561,0.19657 4.554793,0.29864 6.855469,0.25781 2.479021,-0.044 4.937648,-0.23516 7.3125,-0.49609 2.374851,-0.26093 4.665529,-0.59206 6.808593,-0.91797 C 93.711909,485.62942 97.406721,485 100,485 v -45 z"
       id="path1267"
       transform="matrix(0.26458333,0,0,0.26458333,58.208333,-168.66669)" />
    <path
       class="street4"
       style="opacity:1;fill:#f7f7f7;fill-opacity:1;stroke:none;stroke-width:11.33858299;stroke-miterlimit:4;stroke-dasharray:none;stroke-opacity:1"
       d="m 40.384766,484.97461 c -0.03305,0.0385 -0.03191,0.12364 -0.06641,0.16016 -0.51877,0.54914 -1.381431,0.95725 -2.513671,1.2539 -1.132243,0.29666 -2.534309,0.48144 -4.13086,0.57813 -3.193103,0.19338 -7.164946,0.0394 -11.320312,-0.25196 -4.155367,-0.2913 -8.493636,-0.7204 -12.4179691,-1.07617 C 6.0112133,485.2829 2.5000035,485 0,485 v 10 c 3.0513128,0 5.8348356,0.37355 8.9238281,0.8125 3.0889929,0.43895 6.4840119,0.9438 10.7578129,1.20703 2.946393,0.18148 7.97173,0.0797 12.802734,0.16797 2.415502,0.0441 4.783063,0.13575 6.816406,0.33398 2.033344,0.19823 3.732142,0.50208 4.814453,0.97266 0.211978,0.0922 0.389179,0.36341 0.587891,0.52734 z"
       id="path1291"
       transform="matrix(0.26458333,0,0,0.26458333,58.208333,-168.66669)" />
    <path
       class="street3"
       style="opacity:1;fill:#f7f7f7;fill-opacity:1;stroke:none;stroke-width:11.33858299;stroke-miterlimit:4;stroke-dasharray:none;stroke-opacity:1"
       d="m 59.125,498.36914 -14.421875,0.65234 c 0.276663,0.22824 0.568504,0.38138 0.818359,0.73438 0.429315,0.60653 0.818774,1.38666 1.166016,2.29883 0.694484,1.82433 1.220019,4.17784 1.560547,6.74219 0.340528,2.56431 0.496868,5.33899 0.449219,8 -0.04765,2.66097 -0.299484,5.20989 -0.769532,7.32421 -0.823574,3.70453 -1.555756,6.50667 -2.082031,8.9668 C 45.319428,535.54802 45.000002,537.66516 45,540 h 10 c 3e-6,-1.8222 0.165924,-3.42947 0.4375,-4.9082 0.271576,-1.47874 0.648879,-2.82823 1.072266,-4.13672 0.846773,-2.61699 1.877836,-5.06756 2.613281,-8.04297 0.390793,-1.58102 0.515522,-3.42263 0.498047,-5.4082 -0.01747,-1.98558 -0.178287,-4.11427 -0.361328,-6.27344 -0.183042,-2.15917 -0.388234,-4.34741 -0.494141,-6.44922 -0.105907,-2.10181 -0.112366,-4.11815 0.101563,-5.93164 0.02403,-0.2037 0.166366,-0.32439 0.257812,-0.48047 z"
       id="path1296"
       transform="matrix(0.26458333,0,0,0.26458333,58.208333,-168.66669)" />
    <path
       class="street2"
       style="opacity:1;fill:#f7f7f7;fill-opacity:1;stroke:none;stroke-width:11.33858299;stroke-miterlimit:4;stroke-dasharray:none;stroke-opacity:1"
       d="M 56.421875,484.99609 59.125,498.36914 c 0.07811,-0.13332 0.09653,-0.30812 0.220703,-0.41016 0.269534,-0.22148 0.645307,-0.37357 1.113281,-0.4707 0.935949,-0.19426 2.242019,-0.17063 3.8125,-0.0586 1.570481,0.11203 3.403777,0.31307 5.396485,0.47656 1.992708,0.16349 4.145027,0.2899 6.347656,0.25 2.268373,-0.0411 4.592582,-0.24517 6.880859,-0.53125 2.288277,-0.28608 4.539586,-0.65519 6.66211,-1.02539 C 93.803641,495.8592 97.531908,495.11174 100,495 v -10 c -2.593279,0 -6.288091,0.62942 -10.574219,1.28125 -2.143064,0.32591 -4.433746,0.65704 -6.808593,0.91797 -2.374852,0.26093 -4.833483,0.4521 -7.3125,0.49609 -2.300676,0.0408 -4.632908,-0.0612 -6.855469,-0.25781 -2.222562,-0.19657 -4.335699,-0.48747 -6.199219,-0.82422 -1.86352,-0.33675 -3.477621,-0.71989 -4.701172,-1.09961 -0.584575,-0.18142 -0.73588,-0.34276 -1.126953,-0.51758 z"
       id="path1301"
       transform="matrix(0.26458333,0,0,0.26458333,58.208333,-168.66669)" />
    <path
       style="opacity:1;fill:#f7f7f7;fill-opacity:1;stroke:none;stroke-width:11.33858299;stroke-miterlimit:4;stroke-dasharray:none;stroke-opacity:1"
       d="M 40.384766,484.97461 44.703125,499.02148 59.125,498.36914 56.421875,484.99609 Z"
       id="path1286"
       transform="matrix(0.26458333,0,0,0.26458333,58.208333,-168.66669)" />
    <path
       class="street1"
       style="opacity:1;fill:#f7f7f7;fill-opacity:1;stroke:none;stroke-width:11.33858299;stroke-miterlimit:4;stroke-dasharray:none;stroke-opacity:1"
       d="m 45,440 c 2e-6,1.66208 -0.227149,3.56936 -0.568359,5.66797 -0.341211,2.0986 -0.796123,4.38913 -1.25,6.81836 -0.453878,2.42923 -0.908095,4.99643 -1.246094,7.65039 -0.337999,2.65396 -0.561113,5.39518 -0.554688,8.16797 0.0065,2.79576 0.38917,6.31647 0.445313,9.48242 0.02807,1.58298 -0.0259,3.07815 -0.248047,4.34766 -0.210309,1.20185 -0.606128,2.15506 -1.193359,2.83984 l 16.037109,0.0215 c -0.427467,-0.19108 -1.074366,-0.39448 -1.232422,-0.56445 -0.824951,-0.88714 -1.491543,-1.90325 -2.023437,-3.05859 -0.531894,-1.15535 -0.930166,-2.44944 -1.216797,-3.89063 -0.286632,-1.44119 -0.461619,-3.03069 -0.550781,-4.77539 -0.08916,-1.74469 -0.09176,-3.64509 -0.03125,-5.71094 0.07037,-2.40276 0.333748,-4.95426 0.6875,-7.51562 0.35375,-2.56136 0.797894,-5.13251 1.234374,-7.57031 0.436482,-2.43781 0.86503,-4.74329 1.183594,-6.77539 C 54.79122,443.10266 55.000002,441.34425 55,440 Z"
       id="path1265"
       transform="matrix(0.26458333,0,0,0.26458333,58.208333,-168.66669)" />
    <path
       class="grass1"
       style="opacity:1;fill:#94d35e;fill-opacity:1;stroke:none;stroke-width:11.33858299;stroke-miterlimit:4;stroke-dasharray:none;stroke-opacity:1"
       d="m 0,440 v 45 c 2.5000035,0 6.0112133,0.2829 9.9355469,0.63867 3.9243331,0.35577 8.2626021,0.78487 12.4179691,1.07617 4.155366,0.29131 8.127209,0.44534 11.320312,0.25196 1.596551,-0.0967 2.998617,-0.28147 4.13086,-0.57813 1.132242,-0.29665 1.994901,-0.70476 2.513671,-1.2539 0.647447,-0.68536 1.03762,-1.7305 1.259766,-3 0.222146,-1.26951 0.276118,-2.76468 0.248047,-4.34766 -0.05614,-3.16595 -0.438804,-6.68666 -0.445313,-9.48242 -0.0064,-2.77279 0.216689,-5.51401 0.554688,-8.16797 0.337999,-2.65396 0.792216,-5.22116 1.246094,-7.65039 0.453877,-2.42923 0.908789,-4.71976 1.25,-6.81836 C 44.772851,443.56936 45.000002,441.66208 45,440 Z"
       id="rect1196-3"
       transform="matrix(0.26458333,0,0,0.26458333,58.208333,-168.66669)" />
  </g>
</svg>
