<?xml version="1.0" encoding="UTF-8" standalone="no"?>
<svg
   xmlns:dc="http://purl.org/dc/elements/1.1/"
   xmlns:cc="http://creativecommons.org/ns#"
   xmlns:rdf="http://www.w3.org/1999/02/22-rdf-syntax-ns#"
   xmlns:svg="http://www.w3.org/2000/svg"
   xmlns="http://www.w3.org/2000/svg"
   id="svg8"
   version="1.1"
   viewBox="0 0 26.458333 26.458334"
   height="100"
   width="100">
  <defs
     id="defs2" />
  <metadata
     id="metadata5">
    <rdf:RDF>
      <cc:Work
         rdf:about="">
        <dc:format>image/svg+xml</dc:format>
        <dc:type
           rdf:resource="http://purl.org/dc/dcmitype/StillImage" />
        <dc:title></dc:title>
      </cc:Work>
    </rdf:RDF>
  </metadata>
  <g
     transform="translate(0,-270.54165)"
     id="layer1" />
  <g
     transform="translate(-58.208328,23.1459)"
     class="tile7"
     id="g1361">
    <path
       class="grass2"
       style="opacity:1;fill:#94d35e;fill-opacity:1;stroke:none;stroke-width:10.25978279;stroke-miterlimit:4;stroke-dasharray:none;stroke-opacity:1"
       d="m 55,550 c 5e-6,2.5 -0.271659,4.91053 -0.689453,7.23438 -0.417794,2.32384 -0.981799,4.5604 -1.564453,6.71679 -0.582654,2.15639 -1.185112,4.23283 -1.679688,6.23047 -0.494575,1.99764 -0.881598,3.91804 -1.035156,5.76563 -0.307119,3.69518 -0.227714,6.91619 -0.05273,9.86914 0.174979,2.95295 0.445295,5.63698 0.523437,8.25586 0.04104,1.37534 0.139098,3.01564 0.392578,4.71289 0.253481,1.69725 0.663845,3.45169 1.328125,5.05468 0.33214,0.8015 0.727187,1.56572 1.199219,2.26563 0.472032,0.6999 1.019531,1.33457 1.65625,1.88086 0.636719,0.54629 1.363252,1.00309 2.189453,1.34375 0.826202,0.34066 1.75249,0.56543 2.792969,0.64844 1.543488,0.12313 3.169286,-0.0171 4.851562,-0.35938 1.682276,-0.34224 3.420478,-0.88541 5.191407,-1.56445 3.541856,-1.35809 7.210987,-3.2614 10.80664,-5.19531 3.595653,-1.93392 7.118821,-3.89964 10.367188,-5.38086 1.624183,-0.74062 3.180419,-1.36034 4.642578,-1.79493 C 97.38208,595.249 98.750002,595 100,595 v -45 z"
       id="path1356"
       transform="matrix(0.26458333,0,0,0.26458333,58.208333,-168.66669)" />
    <path
       transform="matrix(0.26458333,0,0,0.26458333,58.208333,-168.66669)"
       class="street1"
       style="opacity:1;fill:#f7f7f7;fill-opacity:1;stroke:none;stroke-width:10.25978279;stroke-miterlimit:4;stroke-dasharray:none;stroke-opacity:1"
       d="m 45,550 c 0,2.5 -0.200682,4.58071 -0.525391,6.45312 -0.324709,1.87242 -0.77422,3.53671 -1.271484,5.20704 -0.497264,1.67033 -1.042882,3.34649 -1.560547,5.24023 -0.517665,1.89374 -1.006666,4.00424 -1.392578,6.54688 -0.367391,2.42061 -0.560365,4.52903 -0.634766,6.46679 -0.0744,1.93777 -0.03013,3.70632 0.08008,5.45117 0.220423,3.48971 0.70117,6.88221 1.009766,11.33985 0.110534,1.59668 0.272758,3.53027 0.664063,5.59765 0.195652,1.0337 0.44794,2.10013 0.78125,3.17579 0.333309,1.07565 0.747729,2.16137 1.263671,3.22851 0.515943,1.06714 1.133401,2.11686 1.876954,3.125 0.743552,1.00815 1.612767,1.97438 2.628906,2.87305 1.016139,0.89867 2.17997,1.73003 3.513672,2.46875 1.333702,0.73872 2.836961,1.38381 4.533203,1.91211 0.8853,0.27572 1.792691,0.46345 2.71875,0.57031 0.926058,0.10686 1.870865,0.1336 2.830078,0.0918 1.918427,-0.0836 3.894967,-0.44506 5.900391,-1.00196 2.005424,-0.5569 4.03872,-1.30928 6.070312,-2.17773 2.031592,-0.86845 4.061662,-1.85283 6.058594,-2.87109 3.993863,-2.03652 7.85741,-4.20975 11.347656,-5.875 1.745123,-0.83263 3.397806,-1.53797 4.925781,-2.03516 C 97.346335,605.28992 98.750002,605 100,605 v -10 c -1.249998,0 -2.61792,0.249 -4.080078,0.68359 -1.462159,0.43459 -3.018395,1.05431 -4.642578,1.79493 -3.248367,1.48122 -6.771535,3.44694 -10.367188,5.38086 -3.595653,1.93391 -7.264784,3.83722 -10.80664,5.19531 -1.770929,0.67904 -3.509131,1.22221 -5.191407,1.56445 -1.682276,0.34224 -3.308074,0.48251 -4.851562,0.35938 -1.040479,-0.083 -1.966767,-0.30778 -2.792969,-0.64844 -0.826201,-0.34066 -1.552734,-0.79746 -2.189453,-1.34375 -0.636719,-0.54629 -1.184218,-1.18096 -1.65625,-1.88086 -0.472032,-0.69991 -0.867079,-1.46413 -1.199219,-2.26563 -0.66428,-1.60299 -1.074644,-3.35743 -1.328125,-5.05468 -0.25348,-1.69725 -0.351538,-3.33755 -0.392578,-4.71289 -0.07814,-2.61888 -0.348458,-5.30291 -0.523437,-8.25586 -0.17498,-2.95295 -0.254385,-6.17396 0.05273,-9.86914 0.153558,-1.84759 0.540581,-3.76799 1.035156,-5.76563 0.494576,-1.99764 1.097034,-4.07408 1.679688,-6.23047 0.582654,-2.15639 1.146659,-4.39295 1.564453,-6.71679 C 54.728341,554.91053 55.000005,552.5 55,550 Z"
       id="path1354" />
    <path
       class="grass1"
       transform="matrix(0.26458333,0,0,0.26458333,58.208333,-168.66669)"
       style="opacity:1;fill:#94d35e;fill-opacity:1;stroke:none;stroke-width:10.25978279;stroke-miterlimit:4;stroke-dasharray:none;stroke-opacity:1"
       d="m 0,550 v 100 h 100 v -45 c -1.249998,0 -2.653665,0.28992 -4.181641,0.78711 -1.527975,0.49719 -3.180658,1.20253 -4.925781,2.03516 -3.490246,1.66525 -7.353793,3.83848 -11.347656,5.875 -1.996932,1.01826 -4.027002,2.00264 -6.058594,2.87109 -2.031592,0.86845 -4.064888,1.62083 -6.070312,2.17773 -2.005424,0.5569 -3.981964,0.91836 -5.900391,1.00196 -0.959213,0.0418 -1.90402,0.0151 -2.830078,-0.0918 -0.926059,-0.10686 -1.83345,-0.29459 -2.71875,-0.57031 -1.696242,-0.5283 -3.199501,-1.17339 -4.533203,-1.91211 -1.333702,-0.73872 -2.497533,-1.57008 -3.513672,-2.46875 -1.016139,-0.89867 -1.885354,-1.8649 -2.628906,-2.87305 -0.743553,-1.00814 -1.361011,-2.05786 -1.876954,-3.125 -0.515942,-1.06714 -0.930362,-2.15286 -1.263671,-3.22851 -0.33331,-1.07566 -0.585598,-2.14209 -0.78125,-3.17579 -0.391305,-2.06738 -0.553529,-4.00097 -0.664063,-5.59765 -0.308596,-4.45764 -0.789343,-7.85014 -1.009766,-11.33985 -0.110211,-1.74485 -0.154478,-3.5134 -0.08008,-5.45117 0.0744,-1.93776 0.267375,-4.04618 0.634766,-6.46679 0.385912,-2.54264 0.874913,-4.65314 1.392578,-6.54688 0.517665,-1.89374 1.063283,-3.5699 1.560547,-5.24023 0.497264,-1.67033 0.946775,-3.33462 1.271484,-5.20704 C 44.799318,554.58071 45,552.5 45,550 Z"
       id="rect1344" />
  </g>
</svg>
