<?xml version="1.0" encoding="UTF-8" standalone="no"?>
<svg
   xmlns:dc="http://purl.org/dc/elements/1.1/"
   xmlns:cc="http://creativecommons.org/ns#"
   xmlns:rdf="http://www.w3.org/1999/02/22-rdf-syntax-ns#"
   xmlns:svg="http://www.w3.org/2000/svg"
   xmlns="http://www.w3.org/2000/svg"
   id="svg8"
   version="1.1"
   viewBox="0 0 26.458333 26.458334"
   height="100"
   width="100">
  <defs
     id="defs2" />
  <metadata
     id="metadata5">
    <rdf:RDF>
      <cc:Work
         rdf:about="">
        <dc:format>image/svg+xml</dc:format>
        <dc:type
           rdf:resource="http://purl.org/dc/dcmitype/StillImage" />
        <dc:title></dc:title>
      </cc:Work>
    </rdf:RDF>
  </metadata>
  <g
     transform="translate(0,-270.54165)"
     id="layer1" />
  <g
     class="tile2"
     id="g2846"
     transform="translate(-58.208333,168.66668)">
    <path
       class="grass3"
       style="fill:#94d35e;fill-opacity:1;stroke:none;stroke-width:0.99999994px;stroke-linecap:butt;stroke-linejoin:miter;stroke-opacity:1"
       d="m 265,310.56641 c 0,-1.19946 -0.15654,-2.56763 -0.43555,-4.05469 -0.27901,-1.48706 -0.68083,-3.09324 -1.17187,-4.76758 -0.98209,-3.34868 -2.32166,-6.97093 -3.75,-10.4668 -1.42834,-3.49586 -2.94444,-6.86462 -4.2832,-9.70507 -1.33877,-2.84046 -2.49954,-5.15271 -3.2129,-6.53516 -0.58076,-1.1255 -1.36198,-2.11773 -2.30468,-2.99219 -0.94271,-0.87445 -2.04635,-1.63216 -3.27149,-2.28711 -1.22514,-0.65494 -2.57194,-1.20686 -4,-1.67383 -1.42806,-0.46696 -2.93876,-0.84768 -4.49023,-1.1582 -3.10294,-0.62103 -6.37267,-0.96207 -9.49219,-1.14648 C 225.46838,265.59488 222.5,265.56645 220,265.56641 v 45 z"
       id="path2749"
       transform="matrix(0.26458333,0,0,0.26458333,0,-224.37905)" />
    <path
       class="grass2"
       style="fill:#94d35e;fill-opacity:1;stroke:none;stroke-width:0.99999994px;stroke-linecap:butt;stroke-linejoin:miter;stroke-opacity:1"
       d="m 275,210.56641 c 0,1.24999 0.11647,2.45244 0.3125,3.62695 0.19603,1.17451 0.47254,2.32061 0.78906,3.45508 0.63304,2.26893 1.43007,4.49298 2.0918,6.81445 0.33086,1.16074 0.62879,2.34717 0.85352,3.57422 0.22471,1.22704 0.37688,2.49541 0.41992,3.82422 0.043,1.3288 -0.0241,2.71758 -0.23828,4.18359 -0.2142,1.46601 -0.57609,3.00977 -1.12305,4.64844 -0.73963,2.2159 -1.61556,3.94126 -2.55859,5.50391 -0.94305,1.56264 -1.95293,2.96111 -2.95899,4.52734 -1.00606,1.56623 -2.00883,3.29871 -2.9375,5.52539 -0.92867,2.22668 -1.78325,4.94822 -2.49414,8.49219 -0.41667,2.07722 -0.60574,4.195 -0.61914,6.33008 -0.0134,2.13507 0.14991,4.28674 0.43945,6.43359 0.28954,2.14685 0.70513,4.28979 1.19727,6.40234 0.49213,2.11256 1.05991,4.19633 1.65429,6.22852 1.18879,4.06438 2.48277,7.92219 3.47852,11.38867 0.49788,1.73324 0.91964,3.36816 1.21875,4.88281 0.29911,1.51466 0.47461,2.9082 0.47461,4.15821 h 45 c -1.25,-1.25004 -3.12528,-3.43693 -5.33789,-6.17969 -2.21261,-2.74276 -4.76284,-6.04074 -7.36328,-9.51172 -5.20089,-6.94196 -10.60268,-14.57594 -13.90625,-19.84375 -0.88549,-1.41198 -1.60266,-2.77567 -2.17969,-4.10937 -0.57702,-1.33371 -1.01282,-2.63732 -1.33789,-3.93165 -0.32507,-1.29432 -0.53835,-2.57919 -0.66797,-3.87304 -0.12962,-1.29385 -0.17729,-2.59741 -0.16797,-3.92969 0.0186,-2.66455 0.25879,-5.44443 0.49414,-8.49609 0.23535,-3.05167 0.4668,-6.37502 0.4668,-10.125 0,-0.88389 0.0969,-1.75373 0.28125,-2.61133 0.18433,-0.8576 0.45605,-1.70315 0.80273,-2.5332 0.69336,-1.66011 1.68946,-3.26425 2.9004,-4.80665 1.21093,-1.54239 2.63671,-3.02286 4.18945,-4.4375 1.55273,-1.41463 3.23242,-2.76225 4.95117,-4.03906 3.4375,-2.55362 7.03125,-4.82165 10.07812,-6.76367 C 316.25,213.43298 318.75,211.81638 320,210.56641 Z"
       id="path2747"
       transform="matrix(0.26458333,0,0,0.26458333,0,-224.37905)" />
    <path
       class="grass1"
       style="fill:#94d35e;fill-opacity:1;stroke:none;stroke-width:0.99999994px;stroke-linecap:butt;stroke-linejoin:miter;stroke-opacity:1"
       d="m 220,210.56641 v 45 c 2.5,4e-5 5.625,0.31327 8.98438,0.70703 3.35937,0.39376 6.95312,0.86841 10.39062,1.19336 3.4375,0.32495 6.71875,0.49935 9.45312,0.29297 1.36719,-0.1032 2.59766,-0.30226 3.64258,-0.625 1.04492,-0.32275 1.9043,-0.76903 2.5293,-1.36915 1.25,-1.29975 2.5614,-2.7827 3.85938,-4.38085 1.29797,-1.59816 2.58301,-3.31072 3.78124,-5.07032 1.19824,-1.7596 2.30896,-3.56748 3.25977,-5.35156 0.95081,-1.78408 1.7412,-3.54519 2.29688,-5.2168 0.5532,-1.66417 0.9177,-3.14944 1.13281,-4.49414 0.21511,-1.34469 0.28052,-2.54868 0.23437,-3.65039 -0.0461,-1.1017 -0.20303,-2.1019 -0.43359,-3.03711 -0.23056,-0.9352 -0.53492,-1.8052 -0.87305,-2.65039 -0.67626,-1.69037 -1.49122,-3.27717 -2.13672,-5.0664 -0.32274,-0.89462 -0.60294,-1.84094 -0.80273,-2.875 C 265.11856,212.93859 265,211.8164 265,210.56641 Z"
       id="path8065-7"
       transform="matrix(0.26458333,0,0,0.26458333,0,-224.37905)" />
    <path
       class="street3"
       style="fill:#f7f7f7;fill-opacity:1;stroke:none;stroke-width:0.26458332px;stroke-linecap:butt;stroke-linejoin:miter;stroke-opacity:1"
       d="m 66.311197,-152.13126 1.142566,-4.5682 c -1.341395,1.25217 -6.607032,-0.0609 -9.24543,-0.061 v 2.64584 c 2.427549,3e-5 6.493745,0.12623 8.102864,1.98334 z"
       id="path2638" />
    <path
       class="street2"
       style="fill:#f7f7f7;fill-opacity:1;stroke:none;stroke-width:0.26458332px;stroke-linecap:butt;stroke-linejoin:miter;stroke-opacity:1"
       d="m 70.581736,-153.27538 -4.270539,1.14412 c 0.144693,0.16699 0.301141,0.3259 0.402558,0.52244 0.75497,1.4631 3.400827,6.86162 3.400827,9.40046 h 2.645834 c 0,-2.43705 -2.471926,-6.93552 -2.17868,-11.06702 z"
       id="path2648" />
    <path
       style="fill:#f7f7f7;fill-opacity:1;stroke:none;stroke-width:0.26458332px;stroke-linecap:butt;stroke-linejoin:miter;stroke-opacity:1"
       d="m 67.502857,-156.74649 c -0.01109,0.0116 -0.02305,0.0273 -0.03411,0.0388 -0.0037,0.004 -0.01119,0.005 -0.01498,0.008 l -1.142566,4.5682 4.270539,-1.14412 c 0.02514,-0.35395 0.03376,-0.71035 0.103354,-1.0573 0.08548,-0.42612 0.200258,-0.67678 0.299722,-1.02113 z"
       id="path2643" />
    <path
       class="street1"
       style="fill:#f7f7f7;fill-opacity:1;stroke:none;stroke-width:0.26458332px;stroke-linecap:butt;stroke-linejoin:miter;stroke-opacity:1"
       d="m 70.114582,-168.66669 c 0,2.64583 2.016895,3.13963 0.845945,6.66213 -0.583179,1.75433 -2.14162,3.8812 -3.45767,5.25807 l 3.481956,1.39268 c 0.776039,-2.68659 1.903412,-3.26306 2.597258,-5.34179 1.157743,-3.46852 -0.821655,-5.32526 -0.821655,-7.97109 z"
       id="path2618" />
    <path
       class="castle1"
       style="fill:#7f5f2a;fill-opacity:1;stroke:none;stroke-width:0.26458332px;stroke-linecap:butt;stroke-linejoin:miter;stroke-opacity:1"
       d="m 84.666666,-168.66669 c -1.322916,1.32289 -7.937501,4.19573 -7.9375,7.9375 10e-7,3.96873 -0.976593,6.12999 0.897693,9.11868 1.748141,2.78755 5.716891,8.07921 7.039807,9.40216 z"
       id="path2546-5" />
  </g>
</svg>
