<?xml version="1.0" encoding="UTF-8" standalone="no"?>
<svg
   xmlns:dc="http://purl.org/dc/elements/1.1/"
   xmlns:cc="http://creativecommons.org/ns#"
   xmlns:rdf="http://www.w3.org/1999/02/22-rdf-syntax-ns#"
   xmlns:svg="http://www.w3.org/2000/svg"
   xmlns="http://www.w3.org/2000/svg"
   id="svg8"
   version="1.1"
   viewBox="0 0 26.458333 26.458334"
   height="100"
   width="100">
  <defs
     id="defs2" />
  <metadata
     id="metadata5">
    <rdf:RDF>
      <cc:Work
         rdf:about="">
        <dc:format>image/svg+xml</dc:format>
        <dc:type
           rdf:resource="http://purl.org/dc/dcmitype/StillImage" />
        <dc:title></dc:title>
      </cc:Work>
    </rdf:RDF>
  </metadata>
  <g
     transform="translate(0,-270.54165)"
     id="layer1" />
  <g
     class="tile9"
     id="g1834"
     transform="translate(-58.208333,-35.062479)">
    <path
       class="grass3"
       style="opacity:1;fill:#94d35e;fill-opacity:1;stroke:none;stroke-width:10;stroke-miterlimit:4;stroke-dasharray:none;stroke-opacity:1"
       d="m 100,825 c -1.25,0 -2.452978,-0.12315 -3.617188,-0.33984 -1.164209,-0.2167 -2.290254,-0.52689 -3.388671,-0.89649 -2.196836,-0.7392 -4.282278,-1.71939 -6.335938,-2.6875 -2.05366,-0.96811 -4.074057,-1.92459 -6.144531,-2.61133 -1.035237,-0.34336 -2.082906,-0.61953 -3.152344,-0.79687 -1.069438,-0.17734 -2.161518,-0.25559 -3.285156,-0.20313 -1.70734,0.0797 -3.58062,0.31279 -5.472656,0.6875 -1.892037,0.37472 -3.803389,0.89053 -5.587891,1.53516 -1.784502,0.64463 -3.441437,1.41911 -4.826172,2.30859 C 56.804718,822.88558 55.692737,823.89074 55,825 c -1.029028,1.64775 -1.656981,3.05884 -2.009766,4.38281 -0.352784,1.32398 -0.430987,2.56078 -0.357422,3.86133 0.147131,2.60111 0.89684,5.45605 1.25,9.76563 0.479347,5.84944 0.758712,10.09755 0.917969,14.13281 C 54.960039,861.17784 55.000002,865 55,870 h 45 z"
       id="path1808"
       transform="matrix(0.26458333,0,0,0.26458333,58.208333,-168.66669)" />
    <path
       class="grass2"
       style="opacity:1;fill:#94d35e;fill-opacity:1;stroke:none;stroke-width:10;stroke-miterlimit:4;stroke-dasharray:none;stroke-opacity:1"
       d="m 55,770 c 0,1.25 -0.198078,2.64684 -0.525391,4.15625 -0.327313,1.50941 -0.783117,3.13071 -1.296875,4.82813 -1.027514,3.39482 -2.288718,7.09413 -3.216796,10.8125 -0.46404,1.85918 -0.84439,3.72368 -1.072266,5.55664 -0.227877,1.83295 -0.301499,3.63577 -0.152344,5.37109 0.149155,1.73532 0.520444,3.40442 1.1875,4.9707 0.333528,0.78314 0.741053,1.54009 1.230469,2.26758 0.489416,0.72749 1.061696,1.42498 1.724609,2.08789 0.466128,0.46613 0.990698,0.76732 1.574219,0.93945 0.583521,0.17214 1.225508,0.21515 1.929687,0.16211 1.408359,-0.10607 3.062065,-0.59368 4.972657,-1.1875 1.910591,-0.59381 4.078623,-1.29326 6.517578,-1.82422 1.219477,-0.26547 2.506813,-0.49019 3.863281,-0.63671 1.356468,-0.14653 2.782572,-0.21509 4.279297,-0.17383 1.247556,0.0344 2.400179,0.17965 3.484375,0.4082 1.084196,0.22855 2.098809,0.54024 3.066406,0.90625 1.935194,0.73203 3.684225,1.6814 5.433594,2.62305 1.749369,0.94165 3.499862,1.87462 5.4375,2.57226 0.968819,0.34882 1.984284,0.63904 3.070312,0.8418 C 97.593841,814.8844 98.75,815 100,815 v -45 z"
       id="path1806"
       transform="matrix(0.26458333,0,0,0.26458333,58.208333,-168.66669)" />
    <path
       class="street3"
       style="opacity:1;fill:#f7f7f7;fill-opacity:1;stroke:none;stroke-width:10;stroke-miterlimit:4;stroke-dasharray:none;stroke-opacity:1"
       d="m 55.216797,824.79492 -12.119141,0.3457 c 0.477322,9.30384 0.954143,18.72753 1.511719,26.12891 0.555061,7.36804 0.652438,9.55002 0.611328,11.14063 C 45.179593,864.00076 45,865 45,870 h 10 c 2e-6,-5 -0.03996,-8.82216 -0.199219,-12.85742 -0.159257,-4.03526 -0.438622,-8.28337 -0.917969,-14.13281 -0.353157,-4.30958 -1.102869,-7.16452 -1.25,-9.76563 -0.07356,-1.30055 0.0046,-2.53735 0.357422,-3.86133 C 53.343019,828.05884 53.970972,826.64775 55,825 c 0.04718,-0.0756 0.165769,-0.13049 0.216797,-0.20508 z"
       id="path1825"
       transform="matrix(0.26458333,0,0,0.26458333,58.208333,-168.66669)" />
    <path
       style="opacity:1;fill:#f7f7f7;fill-opacity:1;stroke:none;stroke-width:10;stroke-miterlimit:4;stroke-dasharray:none;stroke-opacity:1"
       d="m 53.669922,810.52344 -11.496094,4.52344 c 0.293767,1.78975 0.558215,3.56282 0.644531,5.26562 0.08745,1.72523 0.191097,3.10895 0.279297,4.82812 l 12.119141,-0.3457 z"
       id="path1818"
       transform="matrix(0.26458333,0,0,0.26458333,58.208333,-168.66669)" />
    <path
       class="street2"
       style="opacity:1;fill:#f7f7f7;fill-opacity:1;stroke:none;stroke-width:10;stroke-miterlimit:4;stroke-dasharray:none;stroke-opacity:1"
       d="m 76.015625,807.33008 c -1.496725,-0.0413 -2.922829,0.0273 -4.279297,0.17383 -1.356468,0.14652 -2.643804,0.37126 -3.863281,0.63671 -2.438955,0.53096 -4.606987,1.23041 -6.517578,1.82422 -1.910592,0.59382 -3.564298,1.08143 -4.972657,1.1875 -0.704177,0.053 -1.346166,0.01 -1.929687,-0.16211 -0.290215,-0.0856 -0.52209,-0.31292 -0.783203,-0.46679 l 1.546875,14.27148 c 0.698141,-1.02044 1.682239,-1.96992 2.972656,-2.79883 1.384735,-0.88948 3.04167,-1.66396 4.826172,-2.30859 1.784502,-0.64463 3.695854,-1.16044 5.587891,-1.53516 1.892036,-0.37471 3.765316,-0.60777 5.472656,-0.6875 1.123638,-0.0525 2.215718,0.0258 3.285156,0.20313 1.069438,0.17734 2.117107,0.45351 3.152344,0.79687 2.070474,0.68674 4.090871,1.64322 6.144531,2.61133 2.05366,0.96811 4.139102,1.9483 6.335938,2.6875 1.098417,0.3696 2.224464,0.67979 3.388671,0.89649 C 97.547022,824.87685 98.75,825 100,825 v -10 c -1.25,0 -2.406159,-0.1156 -3.492188,-0.31836 -1.086026,-0.20276 -2.101493,-0.49298 -3.070312,-0.8418 -1.937638,-0.69764 -3.688131,-1.63061 -5.4375,-2.57226 -1.749369,-0.94165 -3.4984,-1.89102 -5.433594,-2.62305 -0.967597,-0.36601 -1.98221,-0.6777 -3.066406,-0.90625 -1.084196,-0.22855 -2.236819,-0.37382 -3.484375,-0.4082 z"
       id="path1813"
       transform="matrix(0.26458333,0,0,0.26458333,58.208333,-168.66669)" />
    <path
       class="street1"
       style="opacity:1;fill:#f7f7f7;fill-opacity:1;stroke:none;stroke-width:10;stroke-miterlimit:4;stroke-dasharray:none;stroke-opacity:1"
       d="m 45,770 c 0,2.5 -0.322572,4.78188 -0.8125,6.93164 -0.489928,2.14976 -1.147947,4.1683 -1.816406,6.14063 -0.668459,1.97232 -1.34722,3.89755 -1.882813,5.86523 -0.535592,1.96768 -0.928202,3.97744 -1.019531,6.11328 -0.09072,2.12162 0.04853,4.27059 0.314453,6.42383 0.265922,2.15323 0.659681,4.31024 1.076172,6.44727 0.416491,2.13701 0.85581,4.25318 1.216797,6.32617 0.04755,0.27305 0.05309,0.52731 0.09766,0.79883 l 11.496094,-4.52344 c -0.263895,-0.15551 -0.556717,-0.23836 -0.791016,-0.47266 -0.662913,-0.66291 -1.235193,-1.3604 -1.724609,-2.08789 -0.489416,-0.72749 -0.896941,-1.48444 -1.230469,-2.26758 -0.667056,-1.56628 -1.038345,-3.23538 -1.1875,-4.9707 -0.149155,-1.73532 -0.07553,-3.53814 0.152344,-5.37109 0.227876,-1.83296 0.608226,-3.69747 1.072266,-5.55664 0.928077,-3.71837 2.189282,-7.41769 3.216796,-10.8125 0.513758,-1.69742 0.969562,-3.31872 1.296875,-4.82813 C 54.801922,772.64684 55,771.25 55,770 Z"
       id="path1804"
       transform="matrix(0.26458333,0,0,0.26458333,58.208333,-168.66669)" />
    <path
       class="grass1"
       style="opacity:1;fill:#94d35e;fill-opacity:1;stroke:none;stroke-width:10;stroke-miterlimit:4;stroke-dasharray:none;stroke-opacity:1"
       d="m 0,770 v 100 h 45 c 0,-5 0.179593,-5.99924 0.220703,-7.58984 0.04111,-1.59061 -0.05627,-3.77259 -0.611328,-11.14063 -0.660605,-8.76902 -1.230274,-19.89518 -1.791016,-30.95703 -0.09941,-1.96112 -0.3812,-3.99147 -0.742187,-6.06445 -0.360987,-2.07299 -0.800306,-4.18915 -1.216797,-6.32617 -0.416491,-2.13703 -0.81025,-4.29404 -1.076172,-6.44727 -0.265922,-2.15324 -0.405171,-4.30221 -0.314453,-6.42383 0.09133,-2.13584 0.483939,-4.1456 1.019531,-6.11328 0.535593,-1.96768 1.214354,-3.89291 1.882813,-5.86523 0.668459,-1.97233 1.326478,-3.99087 1.816406,-6.14063 C 44.677428,774.78188 45,772.5 45,770 Z"
       id="rect1799"
       transform="matrix(0.26458333,0,0,0.26458333,58.208333,-168.66669)" />
  </g>
</svg>
