<?xml version="1.0" encoding="UTF-8" standalone="no"?>
<svg
   xmlns:dc="http://purl.org/dc/elements/1.1/"
   xmlns:cc="http://creativecommons.org/ns#"
   xmlns:rdf="http://www.w3.org/1999/02/22-rdf-syntax-ns#"
   xmlns:svg="http://www.w3.org/2000/svg"
   xmlns="http://www.w3.org/2000/svg"
   id="svg8"
   version="1.1"
   viewBox="0 0 210 297"
   height="297mm"
   width="210mm">
  <defs
     id="defs2" />
  <metadata
     id="metadata5">
    <rdf:RDF>
      <cc:Work
         rdf:about="">
        <dc:format>image/svg+xml</dc:format>
        <dc:type
           rdf:resource="http://purl.org/dc/dcmitype/StillImage" />
        <dc:title></dc:title>
      </cc:Work>
    </rdf:RDF>
  </metadata>
  <g
     id="layer1">
    <g
       id="text817"
       style="font-style:normal;font-variant:normal;font-weight:normal;font-stretch:normal;font-size:10.58333302px;line-height:1.25;font-family:Stick;-inkscape-font-specification:'Stick, Normal';font-variant-ligatures:normal;font-variant-caps:normal;font-variant-numeric:normal;font-feature-settings:normal;text-align:start;letter-spacing:0px;word-spacing:0px;writing-mode:lr-tb;text-anchor:start;fill:#000000;fill-opacity:1;stroke:none;stroke-width:0.26458332"
       aria-label="castles.IO">
      <path
         id="path819"
         style="font-style:normal;font-variant:normal;font-weight:normal;font-stretch:normal;font-size:10.58333302px;font-family:Stick;-inkscape-font-specification:'Stick, Normal';font-variant-ligatures:normal;font-variant-caps:normal;font-variant-numeric:normal;font-feature-settings:normal;text-align:start;writing-mode:lr-tb;text-anchor:start;stroke-width:0.26458332"
         d="m 45.919965,28.725703 4.34975,-0.296333 -1.121833,2.868083 -0.889,-0.28575 0.645583,-1.651 -2.032,0.15875 0.1905,3.831167 3.2385,-0.508 0.08467,0.867833 -4.212167,0.60325 z" />
      <path
         id="path821"
         style="font-style:normal;font-variant:normal;font-weight:normal;font-stretch:normal;font-size:10.58333302px;font-family:Stick;-inkscape-font-specification:'Stick, Normal';font-variant-ligatures:normal;font-variant-caps:normal;font-variant-numeric:normal;font-feature-settings:normal;text-align:start;writing-mode:lr-tb;text-anchor:start;stroke-width:0.26458332"
         d="m 54.936946,33.276536 -2.973917,0.98425 -0.867833,-2.931583 2.550583,-1.037167 0.306917,0.772584 -1.799167,0.719666 0.423334,1.354667 2.169583,-0.687917 -0.66675,-2.973916 -2.677583,0.518583 -0.201083,-0.836083 3.598333,-0.66675 1.248833,5.513916 -0.899583,0.254 z" />
      <path
         id="path823"
         style="font-style:normal;font-variant:normal;font-weight:normal;font-stretch:normal;font-size:10.58333302px;font-family:Stick;-inkscape-font-specification:'Stick, Normal';font-variant-ligatures:normal;font-variant-caps:normal;font-variant-numeric:normal;font-feature-settings:normal;text-align:start;writing-mode:lr-tb;text-anchor:start;stroke-width:0.26458332"
         d="m 56.672612,33.50937 3.037417,-0.433917 -0.03175,-0.867833 -3.14325,-2.31775 0.3175,-0.740834 3.788833,-0.687916 0.137583,0.85725 -2.952749,0.518583 2.719916,1.926167 0.07408,2.032 -3.820583,0.53975 z" />
      <path
         id="path825"
         style="font-style:normal;font-variant:normal;font-weight:normal;font-stretch:normal;font-size:10.58333302px;font-family:Stick;-inkscape-font-specification:'Stick, Normal';font-variant-ligatures:normal;font-variant-caps:normal;font-variant-numeric:normal;font-feature-settings:normal;text-align:start;writing-mode:lr-tb;text-anchor:start;stroke-width:0.26458332"
         d="m 62.705107,29.678203 -1.17475,0.105833 -0.07408,-0.85725 1.248833,-0.116416 v -2.0955 h 0.92075 v 2.021417 l 1.407584,-0.127 0.07408,0.857249 -1.481667,0.127 v 3.71475 l 1.30175,-0.179916 0.07408,0.878416 -2.296584,0.275167 z" />
      <path
         id="path827"
         style="font-style:normal;font-variant:normal;font-weight:normal;font-stretch:normal;font-size:10.58333302px;font-family:Stick;-inkscape-font-specification:'Stick, Normal';font-variant-ligatures:normal;font-variant-caps:normal;font-variant-numeric:normal;font-feature-settings:normal;text-align:start;writing-mode:lr-tb;text-anchor:start;stroke-width:0.26458332"
         d="m 66.017673,25.910537 h 0.931334 l 0.105833,8.318499 h -0.931333 z" />
      <path
         id="path829"
         style="font-style:normal;font-variant:normal;font-weight:normal;font-stretch:normal;font-size:10.58333302px;font-family:Stick;-inkscape-font-specification:'Stick, Normal';font-variant-ligatures:normal;font-variant-caps:normal;font-variant-numeric:normal;font-feature-settings:normal;text-align:start;writing-mode:lr-tb;text-anchor:start;stroke-width:0.26458332"
         d="m 68.568245,28.863287 4.243916,-0.41275 -0.264583,3.323166 H 70.282745 V 30.93762 h 1.375833 l 0.137584,-1.576917 -2.25425,0.232833 0.28575,3.735917 3.386666,-0.529167 0.0635,0.867834 -4.296833,0.624416 z" />
      <path
         id="path831"
         style="font-style:normal;font-variant:normal;font-weight:normal;font-stretch:normal;font-size:10.58333302px;font-family:Stick;-inkscape-font-specification:'Stick, Normal';font-variant-ligatures:normal;font-variant-caps:normal;font-variant-numeric:normal;font-feature-settings:normal;text-align:start;writing-mode:lr-tb;text-anchor:start;stroke-width:0.26458332"
         d="m 73.955149,33.50937 3.037416,-0.433917 -0.03175,-0.867833 -3.14325,-2.31775 0.3175,-0.740834 3.788834,-0.687916 0.137583,0.85725 -2.95275,0.518583 2.719917,1.926167 0.07408,2.032 -3.820583,0.53975 z" />
      <path
         id="path833"
         style="font-style:normal;font-variant:normal;font-weight:normal;font-stretch:normal;font-size:10.58333302px;font-family:Stick;-inkscape-font-specification:'Stick, Normal';font-variant-ligatures:normal;font-variant-caps:normal;font-variant-numeric:normal;font-feature-settings:normal;text-align:start;writing-mode:lr-tb;text-anchor:start;stroke-width:0.26458332"
         d="m 80.950728,33.456453 q 0,0.328083 -0.232833,0.560917 -0.232834,0.232833 -0.560917,0.232833 -0.328083,0 -0.560917,-0.232833 -0.232833,-0.232834 -0.232833,-0.560917 0,-0.328083 0.232833,-0.560917 0.232834,-0.232833 0.560917,-0.232833 0.328083,0 0.560917,0.232833 0.232833,0.232834 0.232833,0.560917 z" />
      <path
         id="path835"
         style="font-style:normal;font-variant:normal;font-weight:normal;font-stretch:normal;font-size:10.58333302px;font-family:Stick;-inkscape-font-specification:'Stick, Normal';font-variant-ligatures:normal;font-variant-caps:normal;font-variant-numeric:normal;font-feature-settings:normal;text-align:start;writing-mode:lr-tb;text-anchor:start;stroke-width:0.26458332"
         d="m 82.696971,26.439703 h 0.973667 v 7.8105 h -0.973667 z" />
      <path
         id="path837"
         style="font-style:normal;font-variant:normal;font-weight:normal;font-stretch:normal;font-size:10.58333302px;font-family:Stick;-inkscape-font-specification:'Stick, Normal';font-variant-ligatures:normal;font-variant-caps:normal;font-variant-numeric:normal;font-feature-settings:normal;text-align:start;writing-mode:lr-tb;text-anchor:start;stroke-width:0.26458332"
         d="m 85.395703,28.291787 0.963083,-0.148167 0.613833,5.122333 3.344334,-0.07408 0.254,-5.704417 -5.344584,0.01058 0.04233,-0.878417 6.318249,-0.01058 -0.34925,7.429499 -5.132916,0.137584 z" />
    </g>
  </g>
</svg>
