<?xml version="1.0" encoding="UTF-8" standalone="no"?>
<!-- Created with Inkscape (http://www.inkscape.org/) -->

<svg
   xmlns:dc="http://purl.org/dc/elements/1.1/"
   xmlns:cc="http://creativecommons.org/ns#"
   xmlns:rdf="http://www.w3.org/1999/02/22-rdf-syntax-ns#"
   xmlns:svg="http://www.w3.org/2000/svg"
   xmlns="http://www.w3.org/2000/svg"
   xmlns:sodipodi="http://sodipodi.sourceforge.net/DTD/sodipodi-0.dtd"
   xmlns:inkscape="http://www.inkscape.org/namespaces/inkscape"
   width="83.952332mm"
   height="47.180565mm"
   viewBox="0 0 83.952328 47.180564"
   version="1.1"
   id="svg8"
   inkscape:version="0.92.5 (2060ec1f9f, 2020-04-08)"
   sodipodi:docname="player-material_bg.svg">
  <defs
     id="defs2" />
  <sodipodi:namedview
     id="base"
     pagecolor="#ffffff"
     bordercolor="#666666"
     borderopacity="1.0"
     inkscape:pageopacity="0.0"
     inkscape:pageshadow="2"
     inkscape:zoom="2.8284271"
     inkscape:cx="213.34914"
     inkscape:cy="100.56172"
     inkscape:document-units="mm"
     inkscape:current-layer="layer1"
     showgrid="true"
     inkscape:snap-grids="true"
     inkscape:window-width="2560"
     inkscape:window-height="1416"
     inkscape:window-x="2560"
     inkscape:window-y="0"
     inkscape:window-maximized="0"
     fit-margin-top="0"
     fit-margin-left="0"
     fit-margin-right="0"
     fit-margin-bottom="0">
    <inkscape:grid
       type="xygrid"
       id="grid815"
       empspacing="10"
       originx="-79.374997"
       originy="-204.84285" />
  </sodipodi:namedview>
  <metadata
     id="metadata5">
    <rdf:RDF>
      <cc:Work
         rdf:about="">
        <dc:format>image/svg+xml</dc:format>
        <dc:type
           rdf:resource="http://purl.org/dc/dcmitype/StillImage" />
        <dc:title></dc:title>
      </cc:Work>
    </rdf:RDF>
  </metadata>
  <g
     inkscape:label="Layer 1"
     inkscape:groupmode="layer"
     id="layer1"
     transform="translate(-79.375008,-44.976582)">
    <path
       style="fill:#000000;fill-opacity:1;stroke:#000000;stroke-width:0.3507244px;stroke-linecap:butt;stroke-linejoin:miter;stroke-opacity:1"
       d="M 10.583333,5.9583332 V 19.1875 c 0,1.43588 237.104457,-5.291667 311.490157,0 7.68868,0.546959 13.94734,-13.229158 13.94734,-13.229158 z"
       id="path817"
       inkscape:connector-curvature="0"
       sodipodi:nodetypes="csscc" />
    <path
       style="fill:#000000;fill-opacity:1;stroke:#000000;stroke-width:0.30332443px;stroke-linecap:butt;stroke-linejoin:miter;stroke-opacity:1"
       d="M 10.583335,21.833347 V 146.18752 c 5.513528,-1.46109 44.890326,4.13339 46.83125,-9.0412 2.796204,-18.98003 4.035531,-49.090479 3.131426,-71.646011 C 59.638093,42.849623 64.87417,41.106757 55.241511,31.401461 43.437152,19.508088 10.583335,21.833347 10.583335,21.833347 Z"
       id="path819"
       inkscape:connector-curvature="0"
       sodipodi:nodetypes="ccsssc" />
    <path
       style="fill:#000000;fill-opacity:1;stroke:#000000;stroke-width:0.3507244px;stroke-linecap:butt;stroke-linejoin:miter;stroke-opacity:1"
       d="m 333.47193,164.9144 c 0,0 4.08845,-11.57683 0,-13.22917 -20.08585,-8.11766 -36.93558,3.54426 -78.54087,-2.476 -25.09859,-3.63175 -49.4821,2.37801 -75.58378,0.27856 -20.30842,-1.63348 -40.10772,2.45709 -59.88638,1.05807 -24.210899,-1.71251 -37.364197,-1.60922 -54.794644,0.23723 -36.846062,3.90319 -33.776818,1.37306 -50.916388,0.15379 -7.6886805,-0.54696 -5.7154486,13.97751 -5.7154486,13.97751 z"
       id="path817-3"
       inkscape:connector-curvature="0"
       sodipodi:nodetypes="csssssscc" />
    <path
       style="fill:#b0bec5;fill-opacity:1;stroke:none;stroke-width:0.42844909px;stroke-linecap:butt;stroke-linejoin:miter;stroke-opacity:1"
       d="m 79.375008,45.759009 c 0.0355,3.359665 62.437682,-6.611275 78.862912,5.120927 5.62834,10.725544 5.80376,18.578402 4.24976,31.807568 l -1.09184,9.469643 -82.020832,-0.309808 z"
       id="path1532"
       inkscape:connector-curvature="0"
       sodipodi:nodetypes="cccccc" />
  </g>
</svg>
